<svg width="156" height="38" viewBox="0 0 156 38" fill="none" xmlns="http://www.w3.org/2000/svg">
<g clip-path="url(#clip0_67_502)">
<path d="M49.17 12.8667C48.6754 12.8667 48.2321 12.7896 47.8403 12.6386C47.4485 12.4877 47.1145 12.2629 46.8447 11.9706C46.5717 11.6751 46.3629 11.3186 46.2184 10.8947C46.0739 10.4707 46 9.98254 46 9.43334C46 8.88413 46.0835 8.39595 46.2505 7.972C46.4175 7.54805 46.6488 7.18834 46.9378 6.89607C47.2301 6.60059 47.5705 6.37898 47.9624 6.22803C48.3542 6.07708 48.7749 6 49.2246 6C49.4976 6 49.7449 6.01927 49.9665 6.06102C50.1881 6.10278 50.3808 6.14774 50.5446 6.19913C50.7084 6.25051 50.8465 6.30511 50.9525 6.35971C51.0585 6.41431 51.1355 6.45928 51.1805 6.48176L50.8304 7.45812C50.6795 7.36177 50.4611 7.27184 50.1785 7.18834C49.8958 7.10483 49.5907 7.05987 49.2631 7.05987C48.9773 7.05987 48.7139 7.10805 48.4666 7.20761C48.2193 7.30717 48.0073 7.4517 47.8243 7.64762C47.6444 7.84353 47.5031 8.09083 47.4003 8.38952C47.2975 8.68822 47.2494 9.03187 47.2494 9.4237C47.2494 9.77057 47.2879 10.0917 47.3682 10.384C47.4485 10.6763 47.5673 10.9268 47.7343 11.1388C47.8981 11.3507 48.1069 11.5145 48.3606 11.6334C48.6143 11.749 48.9162 11.81 49.2728 11.81C49.6967 11.81 50.0404 11.7683 50.3069 11.6815C50.5735 11.5948 50.7791 11.5145 50.9236 11.4407L51.2448 12.417C51.1677 12.4684 51.0649 12.5198 50.9364 12.568C50.808 12.6194 50.6538 12.6675 50.4771 12.7157C50.3005 12.7639 50.1014 12.8024 49.8798 12.8281C49.6582 12.857 49.4205 12.8699 49.1668 12.8699L49.17 12.8667Z" fill="black"/>
<path d="M56.3579 6.14453H57.5527V12.7254H56.3579V9.81232H53.4995V12.7254H52.3047V6.14453H53.4995V8.77494H56.3579V6.14453Z" fill="black"/>
<path d="M63.5071 12.7258C63.4172 12.4656 63.3273 12.2087 63.2309 11.9582C63.1346 11.7044 63.0447 11.4443 62.9547 11.1809H60.1766C60.0867 11.4475 59.9967 11.7077 59.9036 11.9646C59.8104 12.2215 59.7205 12.4753 59.6338 12.729H58.3909C58.6382 12.0256 58.8726 11.3768 59.0942 10.7827C59.3158 10.1885 59.531 9.62324 59.743 9.09331C59.955 8.56016 60.1637 8.05592 60.3725 7.57416C60.5813 7.0924 60.7965 6.61707 61.0181 6.15137H62.1582C62.3798 6.62028 62.595 7.09561 62.8038 7.57416C63.0125 8.05271 63.2245 8.56016 63.4365 9.09331C63.6485 9.62646 63.8669 10.1885 64.0917 10.7827C64.3165 11.3768 64.551 12.0256 64.7983 12.729H63.5071V12.7258ZM61.5673 7.42C61.4227 7.75402 61.2557 8.16512 61.0694 8.64367C60.8832 9.12543 60.6873 9.64573 60.4849 10.211H62.6496C62.4473 9.64894 62.2514 9.12221 62.0619 8.63403C61.8724 8.14585 61.7086 7.74117 61.5673 7.42Z" fill="black"/>
<path d="M70.059 12.7254C69.8438 12.3656 69.6029 11.977 69.3363 11.5627C69.0698 11.1484 68.7968 10.7309 68.5109 10.3101C68.2251 9.8894 67.936 9.48152 67.6405 9.08647C67.3451 8.69143 67.0656 8.33493 66.7991 8.01697V12.7254H65.6204V6.14453H66.5967C66.8505 6.4111 67.1202 6.72585 67.4125 7.08878C67.7048 7.4517 67.997 7.83069 68.2893 8.22252C68.5848 8.61435 68.8674 9.00939 69.1436 9.40443C69.4198 9.79948 69.6639 10.1688 69.8791 10.5093V6.14453H71.0675V12.7254H70.0525H70.059Z" fill="black"/>
<path d="M77.0831 12.7254C76.868 12.3656 76.6271 11.977 76.3605 11.5627C76.0939 11.1484 75.8177 10.7309 75.5351 10.3101C75.2492 9.8894 74.9602 9.48152 74.6647 9.08647C74.3692 8.69143 74.0898 8.33493 73.8232 8.01697V12.7254H72.6445V6.14453H73.6209C73.8746 6.4111 74.1476 6.72585 74.4367 7.08878C74.7257 7.4517 75.0212 7.83069 75.3135 8.22252C75.609 8.61435 75.8916 9.00939 76.1678 9.40443C76.444 9.79948 76.6881 10.1688 76.9033 10.5093V6.14453H78.0916V12.7254H77.0767H77.0831Z" fill="black"/>
<path d="M79.675 12.7254V6.14453H83.8985V7.15944H80.8698V8.78136H83.5677V9.77699H80.8698V11.704H84.1265V12.7189H79.675V12.7254Z" fill="black"/>
<path d="M89.3967 11.6912V12.7254H85.2375V6.14453H86.4323V11.6912H89.3935H89.3967Z" fill="black"/>
<path d="M51.9417 26.2164C51.9417 25.2304 51.8132 24.5302 51.5627 24.1191C51.309 23.708 50.8754 23.5025 50.2588 23.5025C50.066 23.5025 49.8669 23.5121 49.6614 23.5346C49.4558 23.5538 49.2567 23.5795 49.064 23.6052V31.9493H46V21.5112C46.2601 21.4437 46.5653 21.3699 46.9153 21.296C47.2654 21.2221 47.6348 21.1515 48.0266 21.0904C48.4184 21.0294 48.8167 20.9812 49.2278 20.9459C49.6389 20.9106 50.0436 20.8945 50.4418 20.8945C51.2223 20.8945 51.855 20.9941 52.3432 21.1932C52.8281 21.3923 53.2296 21.6268 53.5443 21.903C53.9844 21.5883 54.4854 21.341 55.0539 21.1643C55.6223 20.9877 56.1458 20.8977 56.6276 20.8977C57.4916 20.8977 58.2014 21.0166 58.7538 21.2575C59.3094 21.4983 59.7494 21.8356 60.0802 22.2756C60.4078 22.7156 60.6358 23.2359 60.7579 23.8365C60.8799 24.4403 60.9442 25.1115 60.9442 25.8502V31.9557H57.8802V26.2196C57.8802 25.2336 57.7517 24.5334 57.5012 24.1223C57.2475 23.7112 56.8139 23.5057 56.1972 23.5057C56.0334 23.5057 55.8022 23.5474 55.5099 23.6277C55.2144 23.7112 54.9704 23.814 54.7809 23.936C54.8772 24.2508 54.9382 24.5848 54.9671 24.9317C54.9928 25.2818 55.0089 25.6543 55.0089 26.0526V31.9525H51.9449V26.2164H51.9417Z" fill="black"/>
<path d="M66.2468 18.0172C66.2468 18.5792 66.0638 19.0225 65.7008 19.3436C65.3379 19.6648 64.9107 19.8254 64.4161 19.8254C63.9215 19.8254 63.4944 19.6648 63.1314 19.3436C62.7685 19.0225 62.5854 18.5792 62.5854 18.0172C62.5854 17.4551 62.7685 17.0151 63.1314 16.6907C63.4944 16.3696 63.9215 16.209 64.4161 16.209C64.9107 16.209 65.3379 16.3696 65.7008 16.6907C66.0638 17.0119 66.2468 17.4551 66.2468 18.0172ZM65.9578 31.9529H62.8938V21.1422H65.9578V31.9529Z" fill="black"/>
<path d="M77.963 31.6023C77.69 31.6858 77.3753 31.7629 77.0188 31.84C76.6623 31.917 76.2897 31.9813 75.8979 32.0359C75.5061 32.0905 75.111 32.1354 74.7063 32.1708C74.3017 32.2061 73.9163 32.2222 73.5437 32.2222C72.654 32.2222 71.8575 32.0905 71.1606 31.8303C70.4604 31.5702 69.8727 31.1976 69.3941 30.7094C68.9156 30.2245 68.5495 29.6335 68.2957 28.943C68.042 28.2525 67.9167 27.472 67.9167 26.6113C67.9167 25.7505 68.0259 24.9444 68.2443 24.2378C68.4627 23.5312 68.7775 22.9338 69.1918 22.4392C69.6029 21.9446 70.1071 21.5689 70.7013 21.3087C71.2987 21.0486 71.9796 20.9169 72.7472 20.9169C73.1711 20.9169 73.5533 20.9586 73.8873 21.0389C74.2214 21.1224 74.5618 21.238 74.9055 21.389V16.4975L77.9695 16.0029V31.6055L77.963 31.6023ZM71.0353 26.4635C71.0353 27.4078 71.2473 28.169 71.6713 28.7439C72.0952 29.3187 72.7279 29.6078 73.563 29.6078C73.836 29.6078 74.0897 29.5982 74.3241 29.5757C74.5554 29.5564 74.7481 29.5307 74.899 29.505V23.9359C74.7063 23.8138 74.4558 23.7111 74.1475 23.6276C73.8392 23.5441 73.5276 23.5055 73.2129 23.5055C71.7612 23.5055 71.0353 24.4915 71.0353 26.4667V26.4635Z" fill="black"/>
<path d="M89.9686 31.6023C89.6956 31.6858 89.3809 31.7629 89.0244 31.84C88.6679 31.917 88.2953 31.9813 87.9035 32.0359C87.5117 32.0905 87.1166 32.1354 86.7119 32.1708C86.3073 32.2061 85.9219 32.2222 85.5493 32.2222C84.6597 32.2222 83.8632 32.0905 83.1662 31.8303C82.4661 31.5702 81.8783 31.1976 81.3998 30.7094C80.9212 30.2245 80.5551 29.6335 80.3013 28.943C80.0476 28.2525 79.9224 27.472 79.9224 26.6113C79.9224 25.7505 80.0316 24.9444 80.25 24.2378C80.4684 23.5312 80.7831 22.9338 81.1974 22.4392C81.6085 21.9446 82.1128 21.5689 82.7069 21.3087C83.3043 21.0486 83.9852 20.9169 84.7528 20.9169C85.1768 20.9169 85.5589 20.9586 85.893 21.0389C86.227 21.1224 86.5674 21.238 86.9111 21.389V16.4975L89.9751 16.0029V31.6055L89.9686 31.6023ZM83.0409 26.4635C83.0409 27.4078 83.2529 28.169 83.6769 28.7439C84.1008 29.3187 84.7335 29.6078 85.5686 29.6078C85.8416 29.6078 86.0953 29.5982 86.3298 29.5757C86.561 29.5564 86.7537 29.5307 86.9047 29.505V23.9359C86.712 23.8138 86.4614 23.7111 86.1531 23.6276C85.8448 23.5441 85.5332 23.5055 85.2185 23.5055C83.7668 23.5055 83.0409 24.4915 83.0409 26.4667V26.4635Z" fill="black"/>
<path d="M96.7516 32.1582C95.862 32.1453 95.1393 32.049 94.5837 31.8691C94.0281 31.6925 93.5913 31.442 93.2669 31.1176C92.9425 30.7932 92.7241 30.4046 92.6085 29.9453C92.4929 29.486 92.4351 28.969 92.4351 28.3941V16.4946L95.499 16V27.7774C95.499 28.0504 95.5183 28.2977 95.5601 28.5161C95.6018 28.7345 95.6789 28.9208 95.7977 29.0717C95.9134 29.2227 96.0804 29.3447 96.302 29.4411C96.5204 29.5374 96.8159 29.5985 97.1852 29.6274L96.7548 32.155L96.7516 32.1582Z" fill="black"/>
<path d="M98.4153 26.6311C98.4153 25.6708 98.563 24.8326 98.8585 24.1131C99.154 23.3937 99.5394 22.7931 100.021 22.3146C100.503 21.836 101.052 21.4731 101.675 21.2258C102.298 20.9785 102.941 20.8564 103.596 20.8564C105.131 20.8564 106.342 21.3254 107.235 22.2632C108.124 23.201 108.571 24.582 108.571 26.4063C108.571 26.583 108.564 26.7789 108.551 26.9908C108.539 27.2028 108.523 27.3923 108.51 27.5561H101.563C101.63 28.1856 101.926 28.6866 102.446 29.056C102.966 29.4253 103.666 29.6116 104.543 29.6116C105.105 29.6116 105.655 29.5602 106.197 29.4575C106.737 29.3547 107.18 29.2294 107.524 29.0785L107.935 31.5643C107.771 31.6478 107.549 31.7281 107.276 31.8116C107.003 31.8952 106.698 31.9658 106.361 32.0268C106.024 32.0879 105.664 32.1392 105.282 32.181C104.9 32.2227 104.514 32.242 104.132 32.242C103.159 32.242 102.314 32.0975 101.595 31.8116C100.875 31.5226 100.278 31.1308 99.806 30.6297C99.3338 30.1287 98.9838 29.5377 98.7589 28.8504C98.5341 28.1663 98.4185 27.4244 98.4185 26.6311H98.4153ZM105.61 25.4588C105.597 25.1987 105.552 24.945 105.475 24.6977C105.398 24.4504 105.282 24.232 105.125 24.0393C104.967 23.8466 104.768 23.6892 104.527 23.5671C104.286 23.4451 103.991 23.3809 103.634 23.3809C103.278 23.3809 102.998 23.4387 102.751 23.5543C102.504 23.6699 102.298 23.8241 102.134 24.0168C101.971 24.2095 101.842 24.4311 101.755 24.6848C101.666 24.9386 101.601 25.1955 101.56 25.4556H105.61V25.4588Z" fill="black"/>
<path d="M117.522 25.7446C117.249 26.7852 116.957 27.8193 116.648 28.8471C116.34 29.8749 116.016 30.909 115.672 31.9496H113.289C113.042 31.3747 112.775 30.6906 112.486 29.8941C112.197 29.1008 111.898 28.2337 111.59 27.2926C111.282 26.3548 110.964 25.3592 110.642 24.3121C110.321 23.2651 110.006 22.2052 109.705 21.1357H112.932C113.042 21.6303 113.164 22.1667 113.295 22.748C113.427 23.3294 113.565 23.9299 113.71 24.5466C113.854 25.1632 114.005 25.7831 114.166 26.4062C114.323 27.0293 114.487 27.6299 114.651 28.2048C114.827 27.6009 115.004 26.9843 115.174 26.3548C115.344 25.7253 115.508 25.1054 115.669 24.4952C115.826 23.885 115.977 23.2972 116.122 22.7288C116.266 22.1603 116.391 21.6303 116.501 21.1357H118.72C118.829 21.6303 118.954 22.1603 119.089 22.7288C119.227 23.2972 119.369 23.8882 119.52 24.4952C119.671 25.1054 119.828 25.7253 119.992 26.3548C120.156 26.9843 120.326 27.6009 120.506 28.2048C120.673 27.6299 120.836 27.0293 121 26.4062C121.164 25.7831 121.321 25.1632 121.466 24.5466C121.61 23.9299 121.749 23.3294 121.88 22.748C122.012 22.1667 122.131 21.6271 122.243 21.1357H125.429C125.127 22.2052 124.813 23.2619 124.491 24.3121C124.167 25.3592 123.852 26.3548 123.544 27.2926C123.236 28.2304 122.934 29.0976 122.638 29.8941C122.343 30.6906 122.073 31.3747 121.822 31.9496H119.439C119.096 30.909 118.762 29.8749 118.431 28.8471C118.1 27.8193 117.801 26.7852 117.525 25.7446H117.522Z" fill="black"/>
<path d="M130.729 20.8525C131.634 20.8525 132.386 20.9553 132.99 21.1609C133.594 21.3664 134.075 21.6619 134.438 22.0441C134.801 22.4295 135.058 22.8952 135.209 23.4412C135.36 23.9904 135.434 24.6006 135.434 25.2719V31.6439C134.994 31.7403 134.387 31.8527 133.603 31.9844C132.823 32.1161 131.875 32.1803 130.767 32.1803C130.067 32.1803 129.434 32.1193 128.866 31.994C128.297 31.872 127.806 31.6696 127.395 31.387C126.984 31.1076 126.669 30.7382 126.451 30.2886C126.232 29.8357 126.123 29.2801 126.123 28.6249C126.123 27.9697 126.248 27.4591 126.502 27.0223C126.756 26.5823 127.096 26.2354 127.52 25.9752C127.944 25.7151 128.432 25.5256 128.978 25.41C129.527 25.2944 130.096 25.2365 130.684 25.2365C131.082 25.2365 131.435 25.2526 131.74 25.2879C132.049 25.3233 132.299 25.3682 132.492 25.4228V25.1338C132.492 24.6135 132.335 24.1959 132.02 23.8812C131.705 23.5664 131.156 23.4091 130.375 23.4091C129.855 23.4091 129.341 23.4476 128.834 23.5215C128.326 23.5986 127.889 23.7046 127.517 23.8394L127.128 21.3728C127.305 21.3182 127.53 21.2604 127.796 21.1994C128.063 21.1384 128.355 21.0838 128.67 21.0356C128.985 20.9874 129.319 20.9457 129.666 20.9136C130.016 20.8782 130.369 20.8622 130.725 20.8622L130.729 20.8525ZM130.976 29.8133C131.278 29.8133 131.564 29.8068 131.84 29.794C132.113 29.7811 132.335 29.7587 132.498 29.733V27.4109C132.376 27.3852 132.19 27.3563 131.943 27.3274C131.695 27.3017 131.471 27.2856 131.265 27.2856C130.976 27.2856 130.706 27.3017 130.452 27.337C130.199 27.3723 129.977 27.4366 129.784 27.5329C129.592 27.6293 129.441 27.7578 129.332 27.9248C129.222 28.0886 129.168 28.2941 129.168 28.5414C129.168 29.02 129.328 29.354 129.65 29.537C129.971 29.7233 130.414 29.8133 130.976 29.8133Z" fill="black"/>
<path d="M144.725 23.8557C144.452 23.7883 144.128 23.7144 143.759 23.6405C143.389 23.5667 142.991 23.5281 142.567 23.5281C142.374 23.5281 142.146 23.5442 141.88 23.5795C141.613 23.6148 141.411 23.6502 141.273 23.6919V31.9557H138.209V21.7199C138.758 21.5272 139.404 21.3474 140.152 21.1739C140.9 21.0037 141.732 20.917 142.651 20.917C142.814 20.917 143.013 20.9266 143.248 20.9491C143.479 20.9684 143.714 20.9973 143.948 21.0326C144.179 21.0679 144.414 21.1097 144.648 21.1547C144.88 21.2028 145.079 21.2606 145.246 21.3281L144.732 23.8557H144.725Z" fill="black"/>
<path d="M146.164 26.6311C146.164 25.6708 146.312 24.8326 146.607 24.1131C146.903 23.3937 147.288 22.7931 147.77 22.3146C148.252 21.836 148.801 21.4731 149.424 21.2258C150.047 20.9785 150.689 20.8564 151.345 20.8564C152.88 20.8564 154.091 21.3254 154.983 22.2632C155.873 23.201 156.32 24.582 156.32 26.4063C156.32 26.583 156.313 26.7789 156.3 26.9908C156.287 27.2028 156.271 27.3923 156.259 27.5561H149.312C149.379 28.1856 149.674 28.6866 150.195 29.056C150.715 29.4253 151.415 29.6116 152.292 29.6116C152.854 29.6116 153.403 29.5602 153.946 29.4575C154.486 29.3547 154.929 29.2294 155.273 29.0785L155.684 31.5643C155.52 31.6478 155.298 31.7281 155.025 31.8116C154.752 31.8952 154.447 31.9658 154.11 32.0268C153.773 32.0879 153.413 32.1392 153.031 32.181C152.649 32.2227 152.263 32.242 151.881 32.242C150.908 32.242 150.063 32.0975 149.344 31.8116C148.624 31.5226 148.027 31.1308 147.555 30.6297C147.083 30.1287 146.733 29.5377 146.508 28.8504C146.283 28.1663 146.167 27.4244 146.167 26.6311H146.164ZM153.358 25.4588C153.345 25.1987 153.301 24.945 153.223 24.6977C153.146 24.4504 153.031 24.232 152.873 24.0393C152.716 23.8466 152.517 23.6892 152.276 23.5671C152.035 23.4451 151.74 23.3809 151.383 23.3809C151.027 23.3809 150.747 23.4387 150.5 23.5543C150.253 23.6699 150.047 23.8241 149.883 24.0168C149.719 24.2095 149.591 24.4311 149.504 24.6848C149.414 24.9386 149.35 25.1955 149.308 25.4556H153.358V25.4588Z" fill="black"/>
<path fill-rule="evenodd" clip-rule="evenodd" d="M28.4933 18.2182L31.7653 16.3135L31.7649 29.2541L35.7261 26.9482L35.7265 14.0075L38.9985 12.1028L38.998 28.8527L28.4928 34.9681L28.4933 18.2182Z" fill="black"/>
<path fill-rule="evenodd" clip-rule="evenodd" d="M21.5432 22.2768L10.8674 16.062L10.8673 12.2527L24.815 20.3722L24.8156 32.4506L14.0946 25.8848L14.0946 28.6413L10.8226 26.7365L10.8225 20.0705L21.5434 26.6362L21.5432 22.2768Z" fill="black"/>
<path fill-rule="evenodd" clip-rule="evenodd" d="M15.7034 32.5875C15.7035 34.7425 14.2029 35.616 12.3518 34.5384C10.5007 33.4608 9.00007 30.8403 9 28.6852C8.99993 26.5301 10.5005 25.6567 12.3516 26.7343C14.2027 27.8118 15.7033 30.4324 15.7034 32.5875ZM12.3517 32.1326C13.0615 32.5458 13.6369 32.2108 13.6369 31.3845C13.6369 30.5582 13.0614 29.5533 12.3516 29.1401C11.6419 28.7269 11.0665 29.0618 11.0665 29.8882C11.0665 30.7145 11.642 31.7194 12.3517 32.1326Z" fill="black"/>
<path fill-rule="evenodd" clip-rule="evenodd" d="M27.8155 14.007L31.7699 16.3086L28.4978 18.2132L24.5434 15.9116L27.8155 14.007Z" fill="black"/>
<path fill-rule="evenodd" clip-rule="evenodd" d="M25.065 7.80906L14.1506 14.1618L10.8785 12.2573L25.065 4L39 12.1109L35.7279 14.0154L25.065 7.80906Z" fill="black"/>
<path fill-rule="evenodd" clip-rule="evenodd" d="M27.885 12.0522C29.6921 13.104 29.6921 14.8093 27.885 15.8611C26.0779 16.9129 23.1481 16.9129 21.341 15.8611C19.534 14.8093 19.534 13.104 21.341 12.0522C23.1481 11.0004 26.0779 11.0004 27.885 12.0522ZM25.8184 14.6583C26.4841 14.2708 26.4841 13.6425 25.8184 13.2551C25.1527 12.8676 24.0733 12.8676 23.4076 13.2551C22.7419 13.6425 22.7419 14.2708 23.4076 14.6583C24.0733 15.0457 25.1527 15.0457 25.8184 14.6583Z" fill="black"/>
</g>
<defs>
<clipPath id="clip0_67_502">
<rect width="156" height="38" fill="white"/>
</clipPath>
</defs>
</svg>
