<svg width="162" height="40" viewBox="0 0 162 40" fill="none" xmlns="http://www.w3.org/2000/svg">
<g style="mix-blend-mode:plus-darker">
<path fill-rule="evenodd" clip-rule="evenodd" d="M25.3594 18.3461L29.6159 15.8883L29.6154 32.5859L34.7687 29.6105L34.7692 12.9129L39.0258 10.4552L39.0251 32.0679L25.3587 39.9589L25.3594 18.3461Z" fill="black"/>
<path fill-rule="evenodd" clip-rule="evenodd" d="M16.3178 23.5829L2.42936 15.5638L2.42921 10.6486L20.5742 21.1254L20.5749 36.7104L6.62765 28.2385L6.62771 31.7952L2.37112 29.3374L2.37097 20.7361L16.3181 29.2079L16.3178 23.5829Z" fill="black"/>
<path fill-rule="evenodd" clip-rule="evenodd" d="M8.72061 36.887C8.72069 39.6678 6.76859 40.7948 4.36046 39.4044C1.95233 38.0139 8.8682e-05 34.6325 3.01952e-09 31.8518C-8.8676e-05 29.0711 1.95201 27.9441 4.36014 29.3345C6.76827 30.7249 8.72052 34.1063 8.72061 36.887ZM4.36036 36.3C5.28375 36.8332 6.03227 36.401 6.03223 35.3348C6.0322 34.2685 5.28362 32.972 4.36024 32.4388C3.43686 31.9057 2.68834 32.3378 2.68837 33.4041C2.68841 34.4703 3.43698 35.7669 4.36036 36.3Z" fill="black"/>
<path fill-rule="evenodd" clip-rule="evenodd" d="M24.4776 12.9123L29.6219 15.8821L25.3651 18.3396L20.2209 15.3697L24.4776 12.9123Z" fill="black"/>
<path fill-rule="evenodd" clip-rule="evenodd" d="M20.8994 4.91491L6.7005 13.112L2.44375 10.6546L20.8994 0L39.0277 10.4656L34.771 12.9231L20.8994 4.91491Z" fill="black"/>
<path fill-rule="evenodd" clip-rule="evenodd" d="M24.5679 10.3899C26.9188 11.7471 26.9188 13.9475 24.5679 15.3047C22.2171 16.6618 18.4056 16.6618 16.0547 15.3047C13.7039 13.9475 13.7039 11.7471 16.0547 10.3899C18.4056 9.03275 22.2171 9.03275 24.5679 10.3899ZM21.8795 13.7526C22.7455 13.2526 22.7455 12.442 21.8795 11.942C21.0134 11.442 19.6093 11.442 18.7432 11.942C17.8772 12.442 17.8772 13.2526 18.7432 13.7526C19.6093 14.2526 21.0134 14.2526 21.8795 13.7526Z" fill="black"/>
<path d="M56.8819 28.9357C55.594 28.9357 54.4399 28.735 53.4196 28.342C52.3994 27.9489 51.5296 27.3635 50.8271 26.6025C50.1163 25.8331 49.5727 24.9048 49.1964 23.8009C48.82 22.697 48.6277 21.4258 48.6277 19.9958C48.6277 18.5657 48.8451 17.2945 49.28 16.1906C49.7149 15.0867 50.317 14.1501 51.0697 13.389C51.8307 12.6197 52.7172 12.0426 53.7374 11.6496C54.7577 11.2565 55.8533 11.0558 57.0241 11.0558C57.7349 11.0558 58.3789 11.106 58.9559 11.2147C59.5329 11.3234 60.0347 11.4405 60.4612 11.5743C60.8877 11.7081 61.2474 11.8503 61.5233 11.9924C61.7993 12.1346 62 12.2517 62.1171 12.3102L61.2055 14.8526C60.8125 14.6017 60.2438 14.3675 59.5079 14.1501C58.7719 13.9326 57.9775 13.8156 57.1244 13.8156C56.3801 13.8156 55.6944 13.941 55.0504 14.2003C54.4065 14.4595 53.8545 14.8358 53.3778 15.346C52.9095 15.8561 52.5415 16.5001 52.2739 17.2778C52.0063 18.0556 51.8809 18.9504 51.8809 19.9707C51.8809 20.8739 51.9812 21.7102 52.1903 22.4712C52.3994 23.2322 52.7088 23.8845 53.1437 24.4365C53.5702 24.9884 54.1138 25.4149 54.7744 25.7244C55.4351 26.0254 56.2212 26.1843 57.1495 26.1843C58.2534 26.1843 59.1483 26.0756 59.8424 25.8498C60.5365 25.624 61.0717 25.4149 61.4481 25.2226L62.2844 27.7649C62.0837 27.8987 61.816 28.0325 61.4815 28.158C61.147 28.2918 60.7456 28.4172 60.2856 28.5427C59.8257 28.6681 59.3072 28.7685 58.7301 28.8354C58.1531 28.9107 57.5342 28.9441 56.8735 28.9441L56.8819 28.9357Z" fill="black"/>
<path d="M75.5982 11.4321H78.7092V28.5678H75.5982V20.9826H68.1552V28.5678H65.0442V11.4321H68.1552V18.2814H75.5982V11.4321Z" fill="black"/>
<path d="M94.214 28.5679C93.9798 27.8905 93.7457 27.2215 93.4948 26.5692C93.2439 25.9085 93.0097 25.2311 92.7756 24.5453H85.5416C85.3075 25.2395 85.0733 25.9169 84.8308 26.5859C84.5883 27.2549 84.3541 27.9156 84.1283 28.5763H80.8918C81.5358 26.7448 82.1463 25.0555 82.7233 23.5083C83.3004 21.9612 83.8607 20.4893 84.4126 19.1094C84.9646 17.7212 85.5082 16.4082 86.0518 15.1538C86.5954 13.8993 87.1557 12.6616 87.7327 11.449H90.7016C91.2786 12.67 91.8389 13.9077 92.3825 15.1538C92.9261 16.3998 93.4781 17.7212 94.03 19.1094C94.582 20.4977 95.1507 21.9612 95.7361 23.5083C96.3215 25.0555 96.932 26.7448 97.5759 28.5763H94.214V28.5679ZM89.1628 14.7523C88.7865 15.6221 88.3516 16.6925 87.8665 17.9386C87.3815 19.1931 86.8713 20.5479 86.3445 22.0197H91.9811C91.4542 20.5562 90.9441 19.1847 90.4507 17.9135C89.9573 16.6424 89.5308 15.5886 89.1628 14.7523V14.7523Z" fill="black"/>
<path d="M111.274 28.5678C110.714 27.6311 110.087 26.6192 109.392 25.5404C108.698 24.4616 107.987 23.3744 107.243 22.2789C106.499 21.1833 105.746 20.1212 104.977 19.0926C104.207 18.0639 103.48 17.1357 102.786 16.3077V28.5678H99.7166V11.4321H102.259C102.92 12.1263 103.622 12.9458 104.383 13.8908C105.144 14.8358 105.905 15.8227 106.666 16.8429C107.436 17.8632 108.171 18.8919 108.891 19.9205C109.61 20.9492 110.245 21.9109 110.806 22.7974V11.4321H113.9V28.5678H111.257H111.274Z" fill="black"/>
<path d="M129.564 28.5678C129.004 27.6311 128.377 26.6192 127.683 25.5404C126.989 24.4616 126.269 23.3744 125.533 22.2789C124.789 21.1833 124.037 20.1212 123.267 19.0926C122.498 18.0639 121.77 17.1357 121.076 16.3077V28.5678H118.007V11.4321H120.549C121.21 12.1263 121.921 12.9458 122.673 13.8908C123.426 14.8358 124.195 15.8227 124.956 16.8429C125.726 17.8632 126.462 18.8919 127.181 19.9205C127.9 20.9492 128.536 21.9109 129.096 22.7974V11.4321H132.19V28.5678H129.548H129.564Z" fill="black"/>
<path d="M136.313 28.5678V11.4321H147.311V14.0748H139.424V18.2981H146.449V20.8906H139.424V25.9084H147.904V28.5511H136.313V28.5678Z" fill="black"/>
<path d="M161.627 25.8749V28.5678H150.797V11.4321H153.908V25.8749H161.619H161.627Z" fill="black"/>
</g>
</svg>
