<svg width="1766" height="1339" viewBox="0 0 1766 1339" fill="none" xmlns="http://www.w3.org/2000/svg"><g filter="url(#a)"><ellipse cx="930.373" cy="593.498" rx="297.663" ry="192.665" transform="rotate(.821 930.373 593.498)" fill="#ABC8FF"/></g><g filter="url(#b)"><ellipse cx="1244.72" cy="680.752" rx="270.644" ry="246.869" transform="rotate(5.934 1244.72 680.752)" fill="#CCC8F6"/></g><g filter="url(#c)"><ellipse cx="624.717" cy="680.752" rx="270.644" ry="246.869" transform="rotate(5.934 624.717 680.752)" fill="#A8DFF8"/></g><g filter="url(#d)"><path d="M608.588 613.148c-67.696-7.036-103.26 25.654-108.306 74.198-10.529 101.293 583.298 199.421 682.578 124.355 72.95-55.167 73.51-143.469 6.64-181.796-75.58-43.312-71.01-50.546-151.73-30.908-67.346 16.386-144.578 45.525-217.97 57.618-68.694 11.32-151.08-37.217-211.212-43.467Z" fill="#DBE7FF"/></g><defs><filter id="a" x="232.727" y=".805" width="1395.29" height="1185.39" filterUnits="userSpaceOnUse" color-interpolation-filters="sRGB"><feFlood flood-opacity="0" result="BackgroundImageFix"/><feBlend mode="normal" in="SourceGraphic" in2="BackgroundImageFix" result="shape"/><feGaussianBlur stdDeviation="200" result="effect1_foregroundBlur_1692_14"/></filter><filter id="b" x="724.297" y="183.594" width="1040.84" height="994.316" filterUnits="userSpaceOnUse" color-interpolation-filters="sRGB"><feFlood flood-opacity="0" result="BackgroundImageFix"/><feBlend mode="normal" in="SourceGraphic" in2="BackgroundImageFix" result="shape"/><feGaussianBlur stdDeviation="125" result="effect1_foregroundBlur_1692_14"/></filter><filter id="c" x="104.297" y="183.594" width="1040.84" height="994.316" filterUnits="userSpaceOnUse" color-interpolation-filters="sRGB"><feFlood flood-opacity="0" result="BackgroundImageFix"/><feBlend mode="normal" in="SourceGraphic" in2="BackgroundImageFix" result="shape"/><feGaussianBlur stdDeviation="125" result="effect1_foregroundBlur_1692_14"/></filter><filter id="d" x=".143" y="88.645" width="1738.5" height="1249.54" filterUnits="userSpaceOnUse" color-interpolation-filters="sRGB"><feFlood flood-opacity="0" result="BackgroundImageFix"/><feBlend mode="normal" in="SourceGraphic" in2="BackgroundImageFix" result="shape"/><feGaussianBlur stdDeviation="250" result="effect1_foregroundBlur_1692_14"/></filter></defs></svg>