<svg width="28" height="28" viewBox="0 0 28 28" fill="none" xmlns="http://www.w3.org/2000/svg">
<path d="M24.6697 8.36071C25.3141 7.51515 25.1511 6.30726 24.3055 5.66282C23.46 5.01838 22.2521 5.18142 21.6076 6.02698L24.6697 8.36071ZM12.0241 21.7772L10.6237 23.098C11.0115 23.5092 11.5605 23.7292 12.125 23.6995C12.6895 23.6699 13.2125 23.3936 13.5551 22.9441L12.0241 21.7772ZM5.67798 12.2428C4.94853 11.4694 3.73021 11.4337 2.95678 12.1632C2.18335 12.8926 2.1477 14.1109 2.87715 14.8844L5.67798 12.2428ZM21.6076 6.02698L10.4931 20.6103L13.5551 22.9441L24.6697 8.36071L21.6076 6.02698ZM13.4245 20.4564L5.67798 12.2428L2.87715 14.8844L10.6237 23.098L13.4245 20.4564Z" fill="#19A0A2"/>
</svg>
