<svg width="166" height="195" viewBox="0 0 166 195" fill="none" xmlns="http://www.w3.org/2000/svg">
<g filter="url(#filter0_b_17_588)">
<rect x="0.586426" width="165" height="195" rx="17.6786" fill="#DFFAF5"/>
</g>
<path d="M47.006 33.1956L47.006 39.0827L49.0432 39.0827L49.0432 41.3443L47.006 41.3443L47.006 49.1304L44.2264 49.1304L44.2264 33.1956L47.006 33.1956ZM33.9197 44.4346C37.4675 42.6391 39.3666 40.412 39.8327 37.0282L34.921 37.0282L34.921 34.7839L42.6554 34.7839C42.6468 39.7214 40.9462 43.8649 35.4907 46.5408L33.9197 44.4346ZM55.6726 35.6816C55.664 37.4598 56.4581 39.2294 59.1255 39.9977L57.658 42.1384C56.0438 41.6464 54.9562 40.6969 54.2915 39.4797C53.6009 40.904 52.4442 42.0262 50.6833 42.5873L49.1985 40.4293C52.0212 39.5402 52.8672 37.4253 52.8758 35.3881L52.8758 34.076L55.6726 34.076L55.6726 35.6816ZM51.4429 45.9884C51.4343 43.9771 53.6009 42.7858 57.0192 42.7945C60.3426 42.7858 62.4747 43.9771 62.4747 45.9884C62.4747 48.0169 60.3426 49.1995 57.0192 49.1995C53.6009 49.1995 51.4343 48.0169 51.4429 45.9884ZM54.2052 45.9884C54.2052 46.748 55.1288 47.0328 57.0192 47.0415C58.8665 47.0328 59.7383 46.748 59.7297 45.9884C59.7383 45.2633 58.8665 44.9266 57.0192 44.9352C55.1288 44.9266 54.2052 45.2633 54.2052 45.9884ZM59.5398 42.5182L59.5398 33.1956L62.3193 33.1956L62.3193 36.6657L64.3047 36.6657L64.3047 38.9445L62.3193 38.9445L62.3193 42.5182L59.5398 42.5182ZM82.7429 33.1956L82.7429 49.165L80.1015 49.165L80.1015 41.3788L79.2728 41.3788L79.2728 48.4744L76.6487 48.4744L76.6487 44.1583L75.5092 45.6776C74.1453 44.9698 73.2649 43.8131 72.7038 42.3974C72.1945 44.0634 71.3399 45.4273 69.9329 46.2646L68.241 44.1583C70.7357 42.7168 71.2795 39.825 71.2795 36.8901L68.8798 36.8901L68.8798 34.6976L76.0962 34.6976L76.0962 36.8901L73.9727 36.8901C73.9813 39.4366 74.4993 41.9658 76.6487 43.3383L76.6487 33.3855L79.2728 33.3855L79.2728 39.169L80.1015 39.169L80.1015 33.1956L82.7429 33.1956ZM97.3312 34.4386L97.3312 35.906C97.3226 37.926 97.3226 40.2048 96.6579 43.7095L93.8611 43.4505C94.4567 40.5933 94.5258 38.418 94.5344 36.6139L85.4189 36.6139L85.4189 34.4386L97.3312 34.4386ZM83.9514 47.404L83.9514 45.1769L88.8545 45.1769L88.8545 39.8423L91.5995 39.8423L91.5995 45.1769L98.5224 45.1769L98.5224 47.404L83.9514 47.404ZM115.856 33.2301L115.856 37.5116L117.841 37.5116L117.841 39.756L115.856 39.756L115.856 45.0043L113.076 45.0043L113.076 33.2301L115.856 33.2301ZM103.425 42.5528L103.425 34.3523L106.17 34.3523L106.17 36.424L108.57 36.424L108.57 34.3523L111.332 34.3523L111.332 42.5528L103.425 42.5528ZM105.273 48.9405L105.273 43.7613L108.052 43.7613L108.052 46.7307L116.322 46.7307L116.322 48.9405L105.273 48.9405ZM106.17 40.412L108.57 40.412L108.57 38.5129L106.17 38.5129L106.17 40.412ZM122.848 34.007C124.065 34.007 125.152 34.4472 125.929 35.1809L129.184 35.1809L129.184 33.1956L131.946 33.1956L131.946 42.501L129.184 42.501L129.184 40.8263L125.886 40.8263C125.118 41.5428 124.048 41.9744 122.848 41.9658C120.413 41.9744 118.514 40.2653 118.532 37.995C118.514 35.6902 120.413 34.007 122.848 34.007ZM120.828 45.9884C120.819 43.9771 122.986 42.7858 126.387 42.7945C129.814 42.7858 131.98 43.9771 131.98 45.9884C131.98 47.9996 129.814 49.1995 126.387 49.1995C122.986 49.1995 120.819 47.9996 120.828 45.9884ZM121.156 37.995C121.139 39.0568 121.846 39.6438 122.848 39.6351C123.815 39.6438 124.488 39.0568 124.505 37.995C124.488 36.8815 123.815 36.3549 122.848 36.3549C121.846 36.3549 121.139 36.8815 121.156 37.995ZM123.538 45.9884C123.53 46.7566 124.496 47.0587 126.387 47.0587C128.355 47.0587 129.27 46.7566 129.27 45.9884C129.27 45.2028 128.355 44.8921 126.387 44.8834C124.496 44.8921 123.53 45.2028 123.538 45.9884ZM127.069 38.6511L129.184 38.6511L129.184 37.3562L127.077 37.3562C127.112 37.5634 127.129 37.7792 127.129 37.995C127.129 38.2195 127.112 38.4353 127.069 38.6511Z" fill="#252728"/>
<g clip-path="url(#clip0_17_588)">
<path fill-rule="evenodd" clip-rule="evenodd" d="M65.4212 113.453C67.5855 112.236 68.3531 109.496 67.1356 107.332C65.9183 105.168 63.1769 104.401 61.0126 105.618L45.0262 114.608C43.5763 115.424 42.6952 116.972 42.7357 118.635C42.7762 120.298 43.7318 121.802 45.2198 122.546L54.5709 127.221L45.0262 132.588C43.5763 133.403 42.6952 134.952 42.7357 136.615C42.7762 138.278 43.7318 139.782 45.2198 140.526L81.1892 158.506C82.4548 159.138 83.9449 159.138 85.2105 158.506L121.18 140.526C122.668 139.782 123.624 138.278 123.664 136.615C123.704 134.952 122.824 133.403 121.374 132.588L111.829 127.221L121.18 122.546C122.668 121.802 123.624 120.298 123.664 118.635C123.704 116.972 122.824 115.424 121.374 114.608L105.387 105.618C103.223 104.401 100.481 105.168 99.2642 107.332C98.0466 109.496 98.8141 112.236 100.979 113.453L109.583 118.292L83.1998 131.48L56.8169 118.292L65.4212 113.453ZM102.118 132.074L85.2105 140.526C83.9449 141.158 82.4548 141.158 81.1892 140.526L64.2813 132.074L56.8169 136.272L83.1998 149.46L109.583 136.272L102.118 132.074Z" fill="url(#paint0_linear_17_588)"/>
<g filter="url(#filter1_b_17_588)">
<path d="M85.211 78.5458C83.9454 77.9131 82.4553 77.9131 81.1897 78.5458L45.2203 96.5256C43.697 97.287 42.7349 98.8434 42.7349 100.546C42.7349 102.249 43.697 103.805 45.2203 104.566L81.1897 122.546C82.4553 123.179 83.9454 123.179 85.211 122.546L121.18 104.566C122.704 103.805 123.666 102.249 123.666 100.546C123.666 98.8434 122.704 97.287 121.18 96.5256L85.211 78.5458Z" fill="#6FE4C8" fill-opacity="0.4"/>
</g>
</g>
<defs>
<filter id="filter0_b_17_588" x="-34.7707" y="-35.3571" width="235.714" height="265.714" filterUnits="userSpaceOnUse" color-interpolation-filters="sRGB">
<feFlood flood-opacity="0" result="BackgroundImageFix"/>
<feGaussianBlur in="BackgroundImageFix" stdDeviation="17.6786"/>
<feComposite in2="SourceAlpha" operator="in" result="effect1_backgroundBlur_17_588"/>
<feBlend mode="normal" in="SourceGraphic" in2="effect1_backgroundBlur_17_588" result="shape"/>
</filter>
<filter id="filter1_b_17_588" x="33.0231" y="68.3596" width="100.355" height="64.3728" filterUnits="userSpaceOnUse" color-interpolation-filters="sRGB">
<feFlood flood-opacity="0" result="BackgroundImageFix"/>
<feGaussianBlur in="BackgroundImageFix" stdDeviation="4.85586"/>
<feComposite in2="SourceAlpha" operator="in" result="effect1_backgroundBlur_17_588"/>
<feBlend mode="normal" in="SourceGraphic" in2="effect1_backgroundBlur_17_588" result="shape"/>
</filter>
<linearGradient id="paint0_linear_17_588" x1="83.1998" y1="81.3078" x2="83.1999" y2="137.944" gradientUnits="userSpaceOnUse">
<stop stop-color="#A9F8E6"/>
<stop offset="1" stop-color="#2BCDA9"/>
</linearGradient>
<clipPath id="clip0_17_588">
<rect width="82.5" height="82.4774" fill="white" transform="translate(41.8374 77.1752)"/>
</clipPath>
</defs>
</svg>
