<svg width="166" height="195" viewBox="0 0 166 195" fill="none" xmlns="http://www.w3.org/2000/svg">
<g filter="url(#filter0_b_17_611)">
<rect x="0.586426" width="165" height="195" rx="17.6786" fill="white"/>
</g>
<path d="M35.2874 34.4391L35.2874 36.6144L34.1998 36.6144L34.1998 40.5074C34.7263 40.4557 35.2356 40.4039 35.7363 40.3434L35.9262 42.3461C32.7496 42.9331 29.1845 42.9762 26.569 42.9676L26.2928 40.7923C26.7675 40.7923 27.2768 40.7837 27.812 40.775L27.812 36.6144L26.6899 36.6144L26.6899 34.4391L35.2874 34.4391ZM28.658 48.941L28.658 43.8653L31.4375 43.8653L31.4375 46.7312L39.7071 46.7312L39.7071 48.941L28.658 48.941ZM30.4707 40.7146C30.8333 40.706 31.1958 40.6887 31.5584 40.6715L31.5584 36.6144L30.4707 36.6144L30.4707 40.7146ZM36.4614 44.9875L36.4614 33.2306L39.2409 33.2306L39.2409 37.4948L41.2263 37.4948L41.2263 39.7565L39.2409 39.7565L39.2409 44.9875L36.4614 44.9875ZM55.6765 33.1961L55.6765 49.1655L53.0351 49.1655L53.0351 41.3793L52.1028 41.3793L52.1028 48.4749L49.4959 48.4749L49.4959 33.386L52.1028 33.386L52.1028 39.1522L53.0351 39.1522L53.0351 33.1961L55.6765 33.1961ZM42.1068 45.3501L42.1068 34.7326L48.5981 34.7326L48.5981 45.3501L42.1068 45.3501ZM44.6964 43.192L46.0258 43.192L46.0258 36.8906L44.6964 36.8906L44.6964 43.192ZM70.6791 33.1961L70.6791 49.2172L67.8823 49.2172L67.8823 41.362L65.4135 41.362L65.4135 39.1695L67.8823 39.1695L67.8823 33.1961L70.6791 33.1961ZM56.8677 44.1588C59.5955 42.9676 60.5105 40.2485 60.5277 38.0991L60.5277 37.8919L57.4547 37.8919L57.4547 35.6994L60.545 35.6994L60.545 33.6104L63.3073 33.6104L63.3073 35.6994L66.3112 35.6994L66.3112 37.8919L63.29 37.8919L63.29 38.0991C63.29 40.1794 64.2309 42.7518 66.9845 43.9344L65.5343 46.0234C63.7734 45.3328 62.6081 43.9689 61.9261 42.3461C61.2528 44.0811 60.0875 45.54 58.3006 46.2651L56.8677 44.1588ZM90.2222 33.1961L90.2222 49.1655L87.5808 49.1655L87.5808 41.3793L86.7521 41.3793L86.7521 48.4749L84.1279 48.4749L84.1279 44.1588L82.9885 45.6781C81.6246 44.9703 80.7441 43.8135 80.183 42.3979C79.6737 44.0639 78.8192 45.4278 77.4121 46.2651L75.7202 44.1588C78.2149 42.7173 78.7587 39.8255 78.7587 36.8906L76.359 36.8906L76.359 34.698L83.5755 34.698L83.5755 36.8906L81.452 36.8906C81.4606 39.4371 81.9785 41.9663 84.1279 43.3388L84.1279 33.386L86.7521 33.386L86.7521 39.1695L87.5808 39.1695L87.5808 33.1961L90.2222 33.1961ZM104.81 34.4391L104.81 35.9065C104.802 37.9264 104.802 40.2053 104.137 43.71L101.34 43.451C101.936 40.5938 102.005 38.4185 102.014 36.6144L92.8981 36.6144L92.8981 34.4391L104.81 34.4391ZM91.4307 47.4045L91.4307 45.1774L96.3337 45.1774L96.3337 39.8428L99.0787 39.8428L99.0787 45.1774L106.002 45.1774L106.002 47.4045L91.4307 47.4045ZM125.13 41.2239L125.13 43.3819L119.451 43.3819L119.451 45.5918L116.705 45.5918L116.705 43.3819L110.559 43.3819L110.559 41.2239L125.13 41.2239ZM112.148 48.941L112.148 44.4869L114.893 44.4869L114.893 46.7312L123.542 46.7312L123.542 48.941L112.148 48.941ZM112.372 40.3952L112.372 33.714L115.083 33.714L115.083 35.1469L120.538 35.1469L120.538 33.714L123.283 33.714L123.283 40.3952L112.372 40.3952ZM115.083 38.2372L120.538 38.2372L120.538 37.1668L115.083 37.1668L115.083 38.2372ZM128.79 34.5599L128.79 37.9782L130.137 37.9782L130.137 34.5599L132.692 34.5599L132.692 45.5227L126.201 45.5227L126.201 34.5599L128.79 34.5599ZM128.79 43.3302L130.137 43.3302L130.137 40.119L128.79 40.119L128.79 43.3302ZM133.59 48.4749L133.59 33.386L136.197 33.386L136.197 39.1522L137.129 39.1522L137.129 33.1961L139.77 33.1961L139.77 49.1655L137.129 49.1655L137.129 41.3793L136.197 41.3793L136.197 48.4749L133.59 48.4749Z" fill="#252728"/>
<path d="M84.8042 144.423L84.8042 120.132L81.3667 120.132L81.3667 144.423C79.7465 144.841 78.3345 145.836 77.3954 147.22C76.4562 148.605 76.0544 150.284 76.2653 151.944C76.4761 153.603 77.2851 155.129 78.5407 156.235C79.7962 157.341 81.4121 157.951 83.0855 157.951C84.7588 157.951 86.3747 157.341 87.6302 156.235C88.8858 155.129 89.6948 153.603 89.9057 151.944C90.1165 150.284 89.7147 148.605 88.7755 147.22C87.8364 145.836 86.4244 144.841 84.8042 144.423Z" fill="#35D8B4"/>
<path d="M114.023 144.179C112.8 144.186 111.601 144.522 110.553 145.153L105.43 140.031L105.43 120.132L101.992 120.132L101.992 140.751C101.992 141.207 102.173 141.644 102.496 141.966L108.123 147.592C107.491 148.639 107.154 149.838 107.148 151.061C107.148 152.42 107.552 153.749 108.307 154.879C109.063 156.009 110.136 156.89 111.392 157.411C112.649 157.931 114.031 158.067 115.365 157.802C116.698 157.537 117.923 156.882 118.885 155.921C119.846 154.96 120.501 153.735 120.766 152.402C121.032 151.068 120.895 149.686 120.375 148.43C119.855 147.175 118.974 146.101 117.843 145.346C116.712 144.591 115.383 144.188 114.023 144.188L114.023 144.179Z" fill="#35D8B4"/>
<path d="M60.7417 120.132L60.7417 140.04L55.6181 145.153C54.5701 144.523 53.3713 144.186 52.148 144.179C50.7882 144.179 49.459 144.582 48.3284 145.337C47.1978 146.093 46.3166 147.166 45.7963 148.422C45.2759 149.678 45.1398 151.06 45.4051 152.393C45.6703 153.726 46.3251 154.951 47.2866 155.912C48.2481 156.873 49.4731 157.528 50.8067 157.793C52.1403 158.059 53.5227 157.922 54.7789 157.402C56.0352 156.882 57.1089 156.001 57.8643 154.871C58.6198 153.74 59.023 152.412 59.023 151.052C59.017 149.829 58.6802 148.63 58.0484 147.583L63.6756 141.954C63.9971 141.633 64.1782 141.197 64.1792 140.743L64.1792 120.132L60.7417 120.132Z" fill="#35D8B4"/>
<g filter="url(#filter1_bi_17_611)">
<path d="M105.429 92.6304C105.226 92.6304 105.026 92.6304 104.825 92.6459C103.139 89.1177 100.622 86.0514 97.4891 83.7101C94.3565 81.3688 90.7024 79.8224 86.8404 79.2038L86.4348 79.1436C86.0102 79.0818 85.5874 79.0234 85.1698 78.989C83.7874 78.8601 82.3961 78.8601 81.0138 78.989C80.5824 79.0234 80.1545 79.0818 79.5959 79.1608L79.3518 79.1986C75.4863 79.8145 71.8281 81.3594 68.6915 83.7005C65.555 86.0416 63.0337 89.1089 61.3445 92.639C61.1434 92.639 60.944 92.6304 60.7412 92.6304C56.1828 92.6304 51.8111 94.4407 48.5878 97.6631C45.3645 100.886 43.5537 105.256 43.5537 109.813C43.5537 114.37 45.3645 118.741 48.5878 121.963C51.8111 125.186 56.1828 126.996 60.7412 126.996L105.429 126.996C109.987 126.996 114.359 125.186 117.582 121.963C120.805 118.741 122.616 114.37 122.616 109.813C122.616 105.256 120.805 100.886 117.582 97.6631C114.359 94.4407 109.987 92.6304 105.429 92.6304Z" fill="url(#paint0_linear_17_611)" fill-opacity="0.4"/>
</g>
<defs>
<filter id="filter0_b_17_611" x="-34.7707" y="-35.3571" width="235.714" height="265.714" filterUnits="userSpaceOnUse" color-interpolation-filters="sRGB">
<feFlood flood-opacity="0" result="BackgroundImageFix"/>
<feGaussianBlur in="BackgroundImageFix" stdDeviation="17.6786"/>
<feComposite in2="SourceAlpha" operator="in" result="effect1_backgroundBlur_17_611"/>
<feBlend mode="normal" in="SourceGraphic" in2="effect1_backgroundBlur_17_611" result="shape"/>
</filter>
<filter id="filter1_bi_17_611" x="22.9287" y="58.2673" width="120.312" height="89.3536" filterUnits="userSpaceOnUse" color-interpolation-filters="sRGB">
<feFlood flood-opacity="0" result="BackgroundImageFix"/>
<feGaussianBlur in="BackgroundImageFix" stdDeviation="10.3125"/>
<feComposite in2="SourceAlpha" operator="in" result="effect1_backgroundBlur_17_611"/>
<feBlend mode="normal" in="SourceGraphic" in2="effect1_backgroundBlur_17_611" result="shape"/>
<feColorMatrix in="SourceAlpha" type="matrix" values="0 0 0 0 0 0 0 0 0 0 0 0 0 0 0 0 0 0 127 0" result="hardAlpha"/>
<feOffset dy="3.4375"/>
<feGaussianBlur stdDeviation="5.15625"/>
<feComposite in2="hardAlpha" operator="arithmetic" k2="-1" k3="1"/>
<feColorMatrix type="matrix" values="0 0 0 0 1 0 0 0 0 1 0 0 0 0 1 0 0 0 0.4 0"/>
<feBlend mode="normal" in2="shape" result="effect2_innerShadow_17_611"/>
</filter>
<linearGradient id="paint0_linear_17_611" x1="43.5537" y1="78.8923" x2="127.986" y2="114.129" gradientUnits="userSpaceOnUse">
<stop stop-color="#83FFE1"/>
<stop offset="0.77" stop-color="#11B2BD"/>
</linearGradient>
</defs>
</svg>
