<svg width="328" height="370" viewBox="0 0 328 370" fill="none" xmlns="http://www.w3.org/2000/svg">
<g filter="url(#filter0_b_98_779)">
<rect y="42.594" width="280" height="331" rx="30" transform="rotate(-8.74989 0 42.594)" fill="white"/>
</g>
<path d="M88.3772 86.4612L92.4997 113.245L88.0694 113.927L86.0595 100.868L84.6696 101.082L86.5013 112.983L82.1 113.66L80.9858 106.421L79.4669 109.264C76.9967 108.429 75.2213 106.716 73.9148 104.486C73.4907 107.412 72.4094 109.92 70.2657 111.688L66.8843 108.592C70.6963 105.53 70.8619 100.54 70.1043 95.617L66.0794 96.2365L65.5134 92.5591L77.617 90.6962L78.1829 94.3736L74.6214 94.9218C75.2932 99.1905 76.8148 103.299 80.7741 105.046L78.2048 88.3529L82.6061 87.6755L84.0991 97.3757L85.489 97.1618L83.947 87.1431L88.3772 86.4612ZM113.166 84.7801L113.545 87.2414C114.052 90.6315 114.64 94.4536 114.43 100.503L109.672 100.791C109.934 95.845 109.488 92.1787 109.037 89.1506L93.7478 91.5037L93.1863 87.8552L113.166 84.7801ZM94.072 109.98L93.4971 106.245L101.721 104.979L100.343 96.0316L104.947 95.323L106.325 104.27L117.936 102.483L118.511 106.219L94.072 109.98ZM133.945 86.3246C134.527 90.296 136.827 94.744 141.891 96.1581L139.9 100.17C136.808 99.3413 134.496 97.2221 132.88 94.5215C132.217 97.9139 130.631 100.9 127.788 102.745L124.562 99.507C129.057 96.5476 129.894 91.3944 129.226 87.051L129.154 86.5877L123.855 87.4033L123.276 83.639L138.275 81.3305L138.855 85.0948L133.874 85.8613L133.945 86.3246ZM143.317 105.424L139.195 78.6397L143.857 77.9222L145.372 87.7672L148.992 87.2101L149.584 91.0613L145.965 91.6183L147.979 104.706L143.317 105.424ZM174.5 85.774L175.061 89.4225L150.564 93.1928L150.003 89.5444L159.993 88.0068L159.725 86.2695L152.631 87.3614L151.187 77.9796L169.922 75.0962L170.474 78.6867L156.344 80.8616L156.678 83.0333L170.924 80.8406L171.481 84.4601L164.3 85.5653L164.568 87.3027L174.5 85.774ZM154.175 98.7433C153.691 95.498 156.978 93.169 162.869 92.2476C168.72 91.3618 172.512 92.6011 173.026 95.842C173.497 99.0004 170.26 101.366 164.411 102.266C158.518 103.173 154.676 101.897 154.175 98.7433ZM158.924 98.0124C159.062 99.1027 160.541 99.2752 163.871 98.7627C167.1 98.2658 168.531 97.6453 168.364 96.5595C168.197 95.4736 166.636 95.2543 163.408 95.7513C160.078 96.2638 158.728 96.931 158.924 98.0124ZM202.994 68.8796L205.989 88.3379L201.356 89.051L199.952 79.9299L196.332 80.487L195.762 76.7806L199.381 76.2235L198.361 69.5926L202.994 68.8796ZM181.892 85.4662C186.287 83.3966 187.266 79.8372 186.89 76.7233L181.968 77.4809L181.402 73.8035L195.966 71.5618L196.532 75.2392L191.639 75.9924C192.134 78.8212 194.055 81.7712 198.624 82.4759L196.961 86.4965C193.942 86.0423 191.763 84.5991 190.268 82.5912C189.465 85.175 187.766 87.4226 184.842 88.836L181.892 85.4662ZM188.923 98.0193L187.608 89.4773L192.241 88.7643L192.985 93.5999L207.058 91.434L207.628 95.1403L188.923 98.0193ZM221.776 75.741L222.217 78.6076L232.178 77.0745L232.744 80.7519L208.305 84.5133L207.739 80.8359L217.584 79.3207L217.143 76.454L221.776 75.741ZM208.137 75.9134C214.689 74.0898 216.179 70.674 215.788 68.0368L215.685 67.3708L220.434 66.6399L220.537 67.3059C220.957 70.1313 223.245 72.7729 230.231 72.5129L229.046 76.3709C224.269 76.4391 220.947 75.1719 218.912 73.0248C217.6 75.6722 214.83 77.892 210.311 79.2543L208.137 75.9134ZM211.902 89.9769C211.442 86.8909 214.713 84.5497 220.622 83.655C226.498 82.7358 230.264 83.994 230.753 87.0756C231.215 90.1761 227.993 92.4505 222.115 93.3552C216.208 94.2644 212.394 93.073 211.902 89.9769ZM216.651 89.246C216.783 90.2929 218.214 90.4432 221.589 89.9384C224.845 89.4226 226.251 88.8356 226.091 87.7932C225.93 86.7507 224.417 86.6428 221.162 87.1587C217.786 87.6634 216.462 88.2081 216.651 89.246Z" fill="#252728"/>
<g clip-path="url(#clip0_98_779)">
<path d="M218.185 153.141C233.191 164.144 236.436 185.227 225.433 200.233C214.431 215.238 193.347 218.483 178.342 207.48C163.337 196.478 160.092 175.395 171.094 160.389C182.096 145.384 203.18 142.139 218.185 153.141Z" fill="#33D8B3"/>
<g filter="url(#filter1_b_98_779)">
<path d="M145.997 248.221L106.093 237.986C100.879 236.648 99.9109 229.662 104.564 226.957L196.871 173.302C201.411 170.663 206.915 174.699 205.764 179.822L182.349 283.991C181.168 289.243 174.214 290.42 171.371 285.85L149.61 250.87C148.792 249.555 147.498 248.606 145.997 248.221Z" fill="url(#paint0_linear_98_779)" fill-opacity="0.4"/>
</g>
<g filter="url(#filter2_b_98_779)">
<path fill-rule="evenodd" clip-rule="evenodd" d="M104.64 227.087C100.103 229.724 101.047 236.536 106.13 237.84L146.034 248.075C147.572 248.47 148.899 249.442 149.738 250.791L171.498 285.77C174.27 290.226 181.051 289.078 182.202 283.958L205.617 179.789C206.74 174.794 201.373 170.859 196.947 173.432L104.64 227.087ZM106.055 238.131C100.711 236.761 99.7189 229.6 104.489 226.827L196.795 173.172C201.448 170.467 207.091 174.604 205.911 179.855L182.495 284.024C181.285 289.407 174.157 290.614 171.243 285.929L149.482 250.95C148.685 249.667 147.423 248.742 145.959 248.366L106.055 238.131Z" fill="url(#paint1_linear_98_779)" fill-opacity="0.3"/>
</g>
</g>
<defs>
<filter id="filter0_b_98_779" x="-55.7896" y="-55.7897" width="438.673" height="481.321" filterUnits="userSpaceOnUse" color-interpolation-filters="sRGB">
<feFlood flood-opacity="0" result="BackgroundImageFix"/>
<feGaussianBlur in="BackgroundImageFix" stdDeviation="30"/>
<feComposite in2="SourceAlpha" operator="in" result="effect1_backgroundBlur_98_779"/>
<feBlend mode="normal" in="SourceGraphic" in2="effect1_backgroundBlur_98_779" result="shape"/>
</filter>
<filter id="filter1_b_98_779" x="83.5213" y="154.422" width="140.445" height="152.317" filterUnits="userSpaceOnUse" color-interpolation-filters="sRGB">
<feFlood flood-opacity="0" result="BackgroundImageFix"/>
<feGaussianBlur in="BackgroundImageFix" stdDeviation="9.024"/>
<feComposite in2="SourceAlpha" operator="in" result="effect1_backgroundBlur_98_779"/>
<feBlend mode="normal" in="SourceGraphic" in2="effect1_backgroundBlur_98_779" result="shape"/>
</filter>
<filter id="filter2_b_98_779" x="83.371" y="154.271" width="140.746" height="152.618" filterUnits="userSpaceOnUse" color-interpolation-filters="sRGB">
<feFlood flood-opacity="0" result="BackgroundImageFix"/>
<feGaussianBlur in="BackgroundImageFix" stdDeviation="9.024"/>
<feComposite in2="SourceAlpha" operator="in" result="effect1_backgroundBlur_98_779"/>
<feBlend mode="normal" in="SourceGraphic" in2="effect1_backgroundBlur_98_779" result="shape"/>
</filter>
<linearGradient id="paint0_linear_98_779" x1="113.362" y1="229.29" x2="232.523" y2="177.531" gradientUnits="userSpaceOnUse">
<stop stop-color="#54EFD3" stop-opacity="0.9"/>
<stop offset="0.447036" stop-color="#4DECD9" stop-opacity="0.955296"/>
<stop offset="1" stop-color="#40D3AF" stop-opacity="0.9"/>
</linearGradient>
<linearGradient id="paint1_linear_98_779" x1="113.193" y1="229.313" x2="232.682" y2="177.389" gradientUnits="userSpaceOnUse">
<stop stop-color="#5AFFF5" stop-opacity="0.9"/>
<stop offset="0.447036" stop-color="#56FFE0" stop-opacity="0.955296"/>
<stop offset="1" stop-color="#4EF4FF" stop-opacity="0.9"/>
</linearGradient>
<clipPath id="clip0_98_779">
<rect width="140" height="140" fill="white" transform="translate(89.1133 161.421) rotate(-8.74989)"/>
</clipPath>
</defs>
</svg>
