<svg width="166" height="195" viewBox="0 0 166 195" fill="none" xmlns="http://www.w3.org/2000/svg">
<g filter="url(#filter0_b_17_579)">
<rect x="0.586426" width="165" height="195" rx="17.6786" fill="white"/>
</g>
<path d="M48.474 33.196L48.474 49.1654L45.8326 49.1654L45.8326 41.3792L45.0039 41.3792L45.0039 48.4748L42.3797 48.4748L42.3797 44.1588L41.2403 45.678C39.8764 44.9702 38.9959 43.8135 38.4349 42.3978C37.9256 44.0638 37.071 45.4277 35.6639 46.265L33.9721 44.1588C36.4667 42.7172 37.0106 39.8255 37.0106 36.8905L34.6108 36.8905L34.6108 34.698L41.8273 34.698L41.8273 36.8905L39.7038 36.8905C39.7124 39.437 40.2303 41.9662 42.3797 43.3387L42.3797 33.3859L45.0039 33.3859L45.0039 39.1694L45.8326 39.1694L45.8326 33.196L48.474 33.196ZM63.0623 34.439L63.0623 35.9065C63.0536 37.9264 63.0536 40.2053 62.389 43.7099L59.5922 43.4509C60.1878 40.5937 60.2568 38.4184 60.2655 36.6143L51.15 36.6143L51.15 34.439L63.0623 34.439ZM49.6825 47.4044L49.6825 45.1774L54.5855 45.1774L54.5855 39.8427L57.3305 39.8427L57.3305 45.1774L64.2535 45.1774L64.2535 47.4044L49.6825 47.4044ZM75.0264 37.2013C75.0091 39.5665 75.95 42.3633 78.7727 43.6408L77.2535 45.7989C75.527 45.0392 74.3703 43.5977 73.6711 41.8799C72.9806 43.7962 71.7893 45.3932 69.968 46.2132L68.3796 44.0379C71.2628 42.7172 72.2123 39.7909 72.2123 37.2013L72.2123 36.9251L69.053 36.9251L69.053 34.6807L77.9958 34.6807L77.9958 36.9251L75.0264 36.9251L75.0264 37.2013ZM78.7727 49.1654L78.7727 33.196L81.5522 33.196L81.5522 39.0658L83.7103 39.0658L83.7103 41.362L81.5522 41.362L81.5522 49.1654L78.7727 49.1654ZM98.6956 40.516L98.6956 42.6913L84.0901 42.6913L84.0901 40.516L90.0462 40.516L90.0462 39.4802L85.8165 39.4802L85.8165 33.8866L96.9865 33.8866L96.9865 36.0273L88.5615 36.0273L88.5615 37.3221L97.0555 37.3221L97.0555 39.4802L92.774 39.4802L92.774 40.516L98.6956 40.516ZM85.6957 46.2477C85.7043 44.3141 87.8278 43.2524 91.3411 43.2438C94.8284 43.2524 96.926 44.3141 96.9347 46.2477C96.926 48.1295 94.8284 49.2172 91.3411 49.2172C87.8278 49.2172 85.7043 48.1295 85.6957 46.2477ZM88.527 46.2477C88.5097 46.8952 89.3557 47.1282 91.3411 47.1282C93.266 47.1282 94.1551 46.8952 94.1551 46.2477C94.1551 45.6003 93.266 45.3327 91.3411 45.3327C89.3557 45.3327 88.5097 45.6003 88.527 46.2477ZM116.806 33.2305L116.806 44.8321L114.044 44.8321L114.044 39.3938L111.885 39.3938L111.885 37.184L114.044 37.184L114.044 33.2305L116.806 33.2305ZM103.029 40.9994C105.774 40.188 106.663 38.2026 106.723 36.3553L103.789 36.3553L103.789 34.1628L112.472 34.1628L112.472 36.3553L109.555 36.3553C109.589 38.0472 110.444 39.9377 113.042 40.7577L111.713 42.9503C109.995 42.4151 108.856 41.3792 108.165 40.0758C107.466 41.5087 106.275 42.6654 104.445 43.2265L103.029 40.9994ZM105.998 48.941L105.998 43.848L108.761 43.848L108.761 46.7311L117.151 46.7311L117.151 48.941L105.998 48.941ZM127.13 38.9104L127.13 40.6196L133.069 40.6196L133.069 42.8122L118.498 42.8122L118.498 40.6196L124.368 40.6196L124.368 38.9104L127.13 38.9104ZM119.171 37.7883C123.15 37.3135 124.324 35.4576 124.333 33.8866L124.333 33.4895L127.164 33.4895L127.164 33.8866C127.156 35.5698 128.252 37.3135 132.344 37.7883L131.308 39.929C128.52 39.5406 126.698 38.5047 125.705 37.0718C124.704 38.4961 122.891 39.5406 120.138 39.929L119.171 37.7883ZM120.103 46.3168C120.112 44.4782 122.227 43.4078 125.749 43.4164C129.253 43.4078 131.334 44.4782 131.342 46.3168C131.334 48.1641 129.253 49.1999 125.749 49.1999C122.227 49.1999 120.112 48.1641 120.103 46.3168ZM122.935 46.3168C122.917 46.9383 123.737 47.1541 125.749 47.1627C127.691 47.1541 128.563 46.9383 128.563 46.3168C128.563 45.6953 127.691 45.4967 125.749 45.5054C123.737 45.4967 122.917 45.6953 122.935 46.3168Z" fill="#252728"/>
<g clip-path="url(#clip0_17_579)">
<path d="M117.894 84.746C125.647 92.4971 125.647 105.064 117.894 112.815C110.14 120.566 97.57 120.566 89.8168 112.815C82.0636 105.064 82.0636 92.4971 89.8168 84.746C97.57 76.9949 110.141 76.9949 117.894 84.746Z" fill="#33D8B3"/>
<g filter="url(#filter1_b_17_579)">
<path d="M67.3279 133.639L45.0042 124.103C42.0876 122.857 42.1499 118.702 45.1026 117.544L103.674 94.5749C106.555 93.4453 109.399 96.2888 108.269 99.1685L85.2936 157.724C84.1354 160.676 79.9795 160.738 78.7333 157.823L69.195 135.505C68.8363 134.666 68.1675 133.997 67.3279 133.639Z" fill="url(#paint0_linear_17_579)" fill-opacity="0.4"/>
</g>
<g filter="url(#filter2_b_17_579)">
<path fill-rule="evenodd" clip-rule="evenodd" d="M45.1342 117.627C42.2553 118.756 42.1946 122.807 45.0383 124.021L67.3619 133.557C68.2225 133.925 68.908 134.61 69.2757 135.47L78.814 157.788C80.0291 160.631 84.0811 160.57 85.2104 157.692L108.186 99.1363C109.288 96.3285 106.515 93.5561 103.706 94.6575L45.1342 117.627ZM44.9686 124.184C41.9791 122.907 42.0429 118.649 45.0694 117.462L103.641 94.4925C106.594 93.3347 109.509 96.2493 108.351 99.201L85.3754 157.757C84.1882 160.782 79.9284 160.846 78.651 157.858L69.1127 135.54C68.763 134.722 68.1109 134.07 67.2923 133.72L44.9686 124.184Z" fill="url(#paint1_linear_17_579)" fill-opacity="0.3"/>
</g>
</g>
<defs>
<filter id="filter0_b_17_579" x="-34.7707" y="-35.3571" width="235.714" height="265.714" filterUnits="userSpaceOnUse" color-interpolation-filters="sRGB">
<feFlood flood-opacity="0" result="BackgroundImageFix"/>
<feGaussianBlur in="BackgroundImageFix" stdDeviation="17.6786"/>
<feComposite in2="SourceAlpha" operator="in" result="effect1_backgroundBlur_17_579"/>
<feBlend mode="normal" in="SourceGraphic" in2="effect1_backgroundBlur_17_579" result="shape"/>
</filter>
<filter id="filter1_b_17_579" x="32.2166" y="83.6859" width="86.9417" height="86.9239" filterUnits="userSpaceOnUse" color-interpolation-filters="sRGB">
<feFlood flood-opacity="0" result="BackgroundImageFix"/>
<feGaussianBlur in="BackgroundImageFix" stdDeviation="5.31771"/>
<feComposite in2="SourceAlpha" operator="in" result="effect1_backgroundBlur_17_579"/>
<feBlend mode="normal" in="SourceGraphic" in2="effect1_backgroundBlur_17_579" result="shape"/>
</filter>
<filter id="filter2_b_17_579" x="32.1273" y="83.5972" width="87.119" height="87.1012" filterUnits="userSpaceOnUse" color-interpolation-filters="sRGB">
<feFlood flood-opacity="0" result="BackgroundImageFix"/>
<feGaussianBlur in="BackgroundImageFix" stdDeviation="5.31771"/>
<feComposite in2="SourceAlpha" operator="in" result="effect1_backgroundBlur_17_579"/>
<feBlend mode="normal" in="SourceGraphic" in2="effect1_backgroundBlur_17_579" result="shape"/>
</filter>
<linearGradient id="paint0_linear_17_579" x1="50.0177" y1="119.691" x2="124.057" y2="100.222" gradientUnits="userSpaceOnUse">
<stop stop-color="#54EFD3" stop-opacity="0.9"/>
<stop offset="0.447036" stop-color="#4DECD9" stop-opacity="0.955296"/>
<stop offset="1" stop-color="#40D3AF" stop-opacity="0.9"/>
</linearGradient>
<linearGradient id="paint1_linear_17_579" x1="49.9163" y1="119.689" x2="124.162" y2="100.154" gradientUnits="userSpaceOnUse">
<stop stop-color="#5AFFF5" stop-opacity="0.9"/>
<stop offset="0.447036" stop-color="#56FFE0" stop-opacity="0.955296"/>
<stop offset="1" stop-color="#4EF4FF" stop-opacity="0.9"/>
</linearGradient>
<clipPath id="clip0_17_579">
<rect width="82.5" height="82.4774" fill="white" transform="translate(41.9771 78)"/>
</clipPath>
</defs>
</svg>
