<svg width="329" height="371" viewBox="0 0 329 371" fill="none" xmlns="http://www.w3.org/2000/svg">
<g filter="url(#filter0_b_98_795)">
<rect x="51.8965" width="280" height="331" rx="30" transform="rotate(9.02047 51.8965 0)" fill="#DFFAF5"/>
</g>
<path d="M107.074 72.6196C106.376 77.0177 106.317 81.5023 109.681 84.6023L106.627 87.7662C104.756 86.1936 103.76 84.0627 103.331 81.6216C102.006 84.0811 100.23 86.0238 97.8171 87.0201L95.557 83.1314C100.11 81.1696 101.809 76.6338 102.524 72.1345L103.199 67.8811L107.713 68.5977L107.074 72.6196ZM107.736 79.1024L108.328 75.3698L111.106 75.8108L112.434 67.4487L116.745 68.1331L112.73 93.4219L108.419 92.7375L110.514 79.5433L107.736 79.1024ZM113.762 94.7722L118.011 68.0077L122.438 68.7105L118.189 95.475L113.762 94.7722ZM144.462 86.0006L143.892 89.5884L124.709 86.543L127.134 71.2656L146.173 74.288L145.581 78.0206L131.258 75.7469L130.927 77.8302L144.584 79.9982L144.015 83.5861L130.358 81.418L129.995 83.7039L144.462 86.0006ZM120.9 92.9687L121.493 89.2362L145.943 93.1176L145.35 96.8501L120.9 92.9687ZM180.336 77.9019L176.087 104.666L171.66 103.964L173.731 90.9141L172.343 90.6936L170.455 102.586L166.057 101.887L167.205 94.6538L164.891 96.8969C162.794 95.3477 161.626 93.1749 161.062 90.6529C159.765 93.3096 157.97 95.3681 155.389 96.397L153.114 92.4169C157.678 90.6646 159.359 85.9627 160.14 81.0439L156.118 80.4054L156.702 76.7307L168.796 78.6507L168.213 82.3254L164.654 81.7604C163.991 86.0306 164.186 90.4073 167.423 93.2795L170.071 76.5987L174.469 77.2969L172.93 86.99L174.319 87.2104L175.909 77.1991L180.336 77.9019ZM204.455 83.8666L204.064 86.326C203.512 89.7091 202.906 93.5284 200.859 99.2253L196.241 98.0471C197.999 93.4169 198.694 89.7896 199.188 86.7682L183.911 84.3429L184.49 80.6971L204.455 83.8666ZM178.581 102.037L179.173 98.304L187.391 99.6085L188.81 90.6677L193.411 91.3981L191.991 100.339L203.594 102.181L203.001 105.913L178.581 102.037ZM237.183 86.9857L234.101 106.401L229.471 105.666L230.385 99.9079L224.757 99.0145C223.275 100.04 221.392 100.497 219.454 100.19C215.374 99.542 212.676 95.9841 213.341 91.9813C213.962 87.8825 217.623 85.3786 221.705 86.0118C223.658 86.3218 225.303 87.3543 226.408 88.8052L232.007 89.694L232.553 86.2508L237.183 86.9857ZM214.89 110.441L216.291 101.616L220.92 102.351L220.107 107.472L234.169 109.704L233.582 113.408L214.89 110.441ZM217.739 92.6795C217.4 94.628 218.43 95.8001 220.106 96.081C221.656 96.3123 223.013 95.5191 223.352 93.5706C223.64 91.5695 222.598 90.3807 221.048 90.1494C219.372 89.8685 218.027 90.6784 217.739 92.6795ZM227.381 95.6636L230.969 96.2332L231.423 93.3687L227.835 92.7991C227.849 93.2758 227.831 93.7625 227.75 94.2688C227.672 94.7607 227.541 95.2145 227.381 95.6636ZM262.559 103.532L261.98 107.178L237.501 103.292L238.08 99.6463L248.062 101.231L248.338 99.4949L241.249 98.3695L242.737 88.9947L261.458 91.9667L260.888 95.5545L246.768 93.313L246.424 95.4831L260.66 97.743L260.085 101.36L252.91 100.221L252.634 101.957L262.559 103.532ZM239.246 109.68C239.775 106.441 243.616 105.227 249.507 106.147C255.349 107.089 258.582 109.427 258.082 112.67C257.567 115.822 253.762 117.086 247.917 116.158C242.029 115.224 238.76 112.836 239.246 109.68ZM243.991 110.433C243.79 111.513 245.146 112.129 248.473 112.657C251.699 113.17 253.252 113.016 253.424 111.93C253.596 110.845 252.177 110.16 248.951 109.648C245.623 109.12 244.134 109.343 243.991 110.433Z" fill="#252728"/>
<g clip-path="url(#clip0_98_795)">
<g filter="url(#filter1_bi_98_795)">
<path d="M142.827 169.68C142.693 169.305 142.462 168.972 142.159 168.715L125.753 154.727C125.431 154.453 125.04 154.273 124.622 154.207C124.205 154.141 123.777 154.191 123.386 154.352L103.455 162.571C103.087 162.722 102.765 162.967 102.521 163.281L120.719 178.799L142.827 169.68Z" fill="url(#paint0_linear_98_795)"/>
<path d="M102.521 163.281C102.28 163.589 102.119 163.954 102.057 164.339L98.8565 184.501C98.795 184.89 98.8344 185.289 98.9711 185.658C99.1077 186.028 99.337 186.356 99.6368 186.611L116.043 200.599C116.364 200.873 116.755 201.054 117.173 201.12L120.719 178.799L102.521 163.281Z" fill="url(#paint1_linear_98_795)"/>
<path d="M142.827 169.68C142.961 170.046 142.997 170.443 142.936 170.828L139.736 190.991C139.674 191.38 139.513 191.746 139.268 192.055C139.024 192.364 138.704 192.605 138.34 192.755L118.409 200.974C118.018 201.136 117.591 201.186 117.173 201.12L120.719 178.799L142.827 169.68Z" fill="url(#paint2_linear_98_795)"/>
</g>
<g filter="url(#filter2_bi_98_795)">
<path d="M142.827 169.68C142.693 169.305 142.462 168.972 142.159 168.715L125.753 154.727C125.431 154.453 125.04 154.273 124.622 154.207C124.205 154.141 123.777 154.191 123.386 154.352L103.455 162.571C103.087 162.722 102.765 162.967 102.521 163.281L120.719 178.799L142.827 169.68Z" fill="url(#paint3_linear_98_795)"/>
<path d="M102.521 163.281C102.28 163.589 102.119 163.954 102.057 164.339L98.8565 184.501C98.795 184.89 98.8344 185.289 98.9711 185.658C99.1077 186.028 99.337 186.356 99.6368 186.611L116.043 200.599C116.364 200.873 116.755 201.054 117.173 201.12L120.719 178.799L102.521 163.281Z" fill="url(#paint4_linear_98_795)"/>
<path d="M142.827 169.68C142.961 170.046 142.997 170.443 142.936 170.828L139.736 190.991C139.674 191.38 139.513 191.746 139.268 192.055C139.024 192.364 138.704 192.605 138.34 192.755L118.409 200.974C118.018 201.136 117.591 201.186 117.173 201.12L120.719 178.799L142.827 169.68Z" fill="url(#paint5_linear_98_795)"/>
</g>
<g filter="url(#filter3_bi_98_795)">
<path d="M148.088 167.764C147.921 167.299 147.635 166.887 147.258 166.567L126.916 149.224C126.517 148.884 126.032 148.661 125.515 148.578C124.997 148.496 124.467 148.558 123.982 148.758L99.269 158.949C98.8123 159.136 98.4126 159.44 98.11 159.83L120.674 179.071L148.088 167.764Z" fill="#F1F1F1" fill-opacity="0.1"/>
<path d="M148.088 167.764C147.921 167.299 147.635 166.887 147.258 166.567L126.916 149.224C126.517 148.884 126.032 148.661 125.515 148.578C124.997 148.496 124.467 148.558 123.982 148.758L99.269 158.949C98.8123 159.136 98.4126 159.44 98.11 159.83L120.674 179.071L148.088 167.764Z" fill="url(#paint6_linear_98_795)" fill-opacity="0.2"/>
</g>
<g filter="url(#filter4_bi_98_795)">
<path d="M98.1053 159.831C97.8067 160.212 97.61 160.663 97.5337 161.141L93.5651 186.141C93.4888 186.623 93.5377 187.117 93.7071 187.575C93.8766 188.033 94.1608 188.44 94.5327 188.757L114.875 206.1C115.274 206.441 115.759 206.664 116.276 206.747L120.669 179.072L98.1053 159.831Z" fill="#F1F1F1" fill-opacity="0.1"/>
<path d="M98.1053 159.831C97.8067 160.212 97.61 160.663 97.5337 161.141L93.5651 186.141C93.4888 186.623 93.5377 187.117 93.7071 187.575C93.8766 188.033 94.1608 188.44 94.5327 188.757L114.875 206.1C115.274 206.441 115.759 206.664 116.276 206.747L120.669 179.072L98.1053 159.831Z" fill="url(#paint7_linear_98_795)" fill-opacity="0.2"/>
</g>
<g filter="url(#filter5_bi_98_795)">
<path d="M148.081 167.765C148.247 168.219 148.294 168.709 148.219 169.187L144.25 194.187C144.174 194.669 143.974 195.124 143.671 195.507C143.368 195.89 142.972 196.189 142.52 196.375L117.807 206.566C117.323 206.766 116.792 206.829 116.274 206.747L120.668 179.072L148.081 167.765Z" fill="#F1F1F1" fill-opacity="0.1"/>
<path d="M148.081 167.765C148.247 168.219 148.294 168.709 148.219 169.187L144.25 194.187C144.174 194.669 143.974 195.124 143.671 195.507C143.368 195.89 142.972 196.189 142.52 196.375L117.807 206.566C117.323 206.766 116.792 206.829 116.274 206.747L120.668 179.072L148.081 167.765Z" fill="url(#paint8_linear_98_795)" fill-opacity="0.2"/>
</g>
<g filter="url(#filter6_bi_98_795)">
<path d="M131.498 241.048C131.363 240.673 131.133 240.34 130.829 240.083L114.423 226.095C114.101 225.821 113.71 225.641 113.293 225.575C112.875 225.509 112.448 225.559 112.057 225.72L92.1257 233.939C91.7574 234.09 91.4351 234.335 91.191 234.65L109.389 250.167L131.498 241.048Z" fill="url(#paint9_linear_98_795)"/>
<path d="M91.191 234.65C90.9502 234.957 90.7891 235.322 90.7276 235.707L87.5269 255.87C87.4654 256.259 87.5048 256.657 87.6415 257.026C87.7781 257.396 88.0074 257.724 88.3073 257.979L104.713 271.967C105.035 272.241 105.426 272.422 105.843 272.488L109.389 250.167L91.191 234.65Z" fill="url(#paint10_linear_98_795)"/>
<path d="M131.498 241.048C131.632 241.415 131.667 241.811 131.607 242.196L128.406 262.359C128.344 262.748 128.183 263.114 127.939 263.423C127.694 263.732 127.375 263.973 127.011 264.123L107.08 272.342C106.689 272.504 106.261 272.554 105.843 272.488L109.389 250.167L131.498 241.048Z" fill="url(#paint11_linear_98_795)"/>
</g>
<g filter="url(#filter7_bi_98_795)">
<path d="M131.498 241.048C131.363 240.673 131.133 240.34 130.829 240.083L114.423 226.095C114.101 225.821 113.71 225.641 113.293 225.575C112.875 225.509 112.448 225.559 112.057 225.72L92.1257 233.939C91.7574 234.09 91.4351 234.335 91.191 234.65L109.389 250.167L131.498 241.048Z" fill="url(#paint12_linear_98_795)"/>
<path d="M91.191 234.65C90.9502 234.957 90.7891 235.322 90.7276 235.707L87.5269 255.87C87.4654 256.259 87.5048 256.657 87.6415 257.026C87.7781 257.396 88.0074 257.724 88.3073 257.979L104.713 271.967C105.035 272.241 105.426 272.422 105.843 272.488L109.389 250.167L91.191 234.65Z" fill="url(#paint13_linear_98_795)"/>
<path d="M131.498 241.048C131.632 241.415 131.667 241.811 131.607 242.196L128.406 262.359C128.344 262.748 128.183 263.114 127.939 263.423C127.694 263.732 127.375 263.973 127.011 264.123L107.08 272.342C106.689 272.504 106.261 272.554 105.843 272.488L109.389 250.167L131.498 241.048Z" fill="url(#paint14_linear_98_795)"/>
</g>
<g filter="url(#filter8_bi_98_795)">
<path d="M136.758 239.132C136.591 238.667 136.305 238.255 135.929 237.935L115.587 220.592C115.188 220.252 114.703 220.029 114.185 219.947C113.667 219.864 113.137 219.926 112.652 220.126L87.9394 230.317C87.4827 230.504 87.0831 230.808 86.7804 231.198L109.345 250.439L136.758 239.132Z" fill="#F1F1F1" fill-opacity="0.1"/>
<path d="M136.758 239.132C136.591 238.667 136.305 238.255 135.929 237.935L115.587 220.592C115.188 220.252 114.703 220.029 114.185 219.947C113.667 219.864 113.137 219.926 112.652 220.126L87.9394 230.317C87.4827 230.504 87.0831 230.808 86.7804 231.198L109.345 250.439L136.758 239.132Z" fill="url(#paint15_linear_98_795)" fill-opacity="0.2"/>
</g>
<g filter="url(#filter9_bi_98_795)">
<path d="M86.7757 231.2C86.4771 231.581 86.2804 232.031 86.2041 232.509L82.2355 257.509C82.1592 257.991 82.2081 258.485 82.3776 258.944C82.547 259.402 82.8312 259.808 83.2031 260.125L103.545 277.468C103.944 277.809 104.429 278.033 104.947 278.115L109.34 250.44L86.7757 231.2Z" fill="#F1F1F1" fill-opacity="0.1"/>
<path d="M86.7757 231.2C86.4771 231.581 86.2804 232.031 86.2041 232.509L82.2355 257.509C82.1592 257.991 82.2081 258.485 82.3776 258.944C82.547 259.402 82.8312 259.808 83.2031 260.125L103.545 277.468C103.944 277.809 104.429 278.033 104.947 278.115L109.34 250.44L86.7757 231.2Z" fill="url(#paint16_linear_98_795)" fill-opacity="0.2"/>
</g>
<g filter="url(#filter10_bi_98_795)">
<path d="M136.751 239.133C136.917 239.587 136.965 240.077 136.889 240.555L132.921 265.555C132.844 266.037 132.645 266.492 132.342 266.875C132.039 267.258 131.642 267.557 131.191 267.743L106.478 277.934C105.993 278.134 105.463 278.197 104.945 278.115L109.338 250.44L136.751 239.133Z" fill="#F1F1F1" fill-opacity="0.1"/>
<path d="M136.751 239.133C136.917 239.587 136.965 240.077 136.889 240.555L132.921 265.555C132.844 266.037 132.645 266.492 132.342 266.875C132.039 267.258 131.642 267.557 131.191 267.743L106.478 277.934C105.993 278.134 105.463 278.197 104.945 278.115L109.338 250.44L136.751 239.133Z" fill="url(#paint17_linear_98_795)" fill-opacity="0.2"/>
</g>
<path d="M191.797 248.759C204.59 250.79 216.607 242.066 218.638 229.273C220.669 216.48 211.944 204.463 199.151 202.432C186.358 200.402 174.342 209.126 172.311 221.919C170.28 234.712 179.004 246.729 191.797 248.759Z" fill="url(#paint18_linear_98_795)"/>
<g filter="url(#filter11_bi_98_795)">
<path d="M190.327 258.025C208.237 260.868 225.06 248.654 227.903 230.744C230.746 212.834 218.532 196.01 200.622 193.167C182.712 190.324 165.889 202.538 163.046 220.448C160.202 238.358 172.417 255.182 190.327 258.025Z" fill="#F1F1F1" fill-opacity="0.1"/>
<path d="M190.327 258.025C208.237 260.868 225.06 248.654 227.903 230.744C230.746 212.834 218.532 196.01 200.622 193.167C182.712 190.324 165.889 202.538 163.046 220.448C160.202 238.358 172.417 255.182 190.327 258.025Z" fill="url(#paint19_linear_98_795)" fill-opacity="0.2"/>
</g>
<path d="M142.254 235.158L144.732 229.599L159.344 235.463C160.881 236.148 161.569 237.944 160.884 239.481L152.154 253.854L146.595 251.377L152.335 243.714L125.256 254.098L123.077 248.414L150.155 238.031L142.254 235.158Z" fill="#33D8B3"/>
<path d="M158.38 186.823L164.433 186.189L166.661 201.775C166.837 203.448 165.626 204.943 163.952 205.118L147.139 204.744L146.505 198.691L156.011 199.831L133.479 181.572L137.312 176.843L159.843 195.101L158.38 186.823Z" fill="#33D8B3"/>
</g>
<defs>
<filter id="filter0_b_98_795" x="-45.6719" y="-45.6718" width="419.777" height="462.15" filterUnits="userSpaceOnUse" color-interpolation-filters="sRGB">
<feFlood flood-opacity="0" result="BackgroundImageFix"/>
<feGaussianBlur in="BackgroundImageFix" stdDeviation="25"/>
<feComposite in2="SourceAlpha" operator="in" result="effect1_backgroundBlur_98_795"/>
<feBlend mode="normal" in="SourceGraphic" in2="effect1_backgroundBlur_98_795" result="shape"/>
</filter>
<filter id="filter1_bi_98_795" x="89.9217" y="145.272" width="61.9496" height="64.7827" filterUnits="userSpaceOnUse" color-interpolation-filters="sRGB">
<feFlood flood-opacity="0" result="BackgroundImageFix"/>
<feGaussianBlur in="BackgroundImageFix" stdDeviation="4.45322"/>
<feComposite in2="SourceAlpha" operator="in" result="effect1_backgroundBlur_98_795"/>
<feBlend mode="normal" in="SourceGraphic" in2="effect1_backgroundBlur_98_795" result="shape"/>
<feColorMatrix in="SourceAlpha" type="matrix" values="0 0 0 0 0 0 0 0 0 0 0 0 0 0 0 0 0 0 127 0" result="hardAlpha"/>
<feOffset dy="1.48441"/>
<feGaussianBlur stdDeviation="2.96881"/>
<feComposite in2="hardAlpha" operator="arithmetic" k2="-1" k3="1"/>
<feColorMatrix type="matrix" values="0 0 0 0 1 0 0 0 0 1 0 0 0 0 1 0 0 0 0.4 0"/>
<feBlend mode="normal" in2="shape" result="effect2_innerShadow_98_795"/>
</filter>
<filter id="filter2_bi_98_795" x="89.9217" y="145.272" width="61.9496" height="64.7827" filterUnits="userSpaceOnUse" color-interpolation-filters="sRGB">
<feFlood flood-opacity="0" result="BackgroundImageFix"/>
<feGaussianBlur in="BackgroundImageFix" stdDeviation="4.45322"/>
<feComposite in2="SourceAlpha" operator="in" result="effect1_backgroundBlur_98_795"/>
<feBlend mode="normal" in="SourceGraphic" in2="effect1_backgroundBlur_98_795" result="shape"/>
<feColorMatrix in="SourceAlpha" type="matrix" values="0 0 0 0 0 0 0 0 0 0 0 0 0 0 0 0 0 0 127 0" result="hardAlpha"/>
<feOffset dy="1.48441"/>
<feGaussianBlur stdDeviation="2.96881"/>
<feComposite in2="hardAlpha" operator="arithmetic" k2="-1" k3="1"/>
<feColorMatrix type="matrix" values="0 0 0 0 1 0 0 0 0 1 0 0 0 0 1 0 0 0 0.4 0"/>
<feBlend mode="normal" in2="shape" result="effect2_innerShadow_98_795"/>
</filter>
<filter id="filter3_bi_98_795" x="76.0231" y="126.456" width="94.151" height="74.7011" filterUnits="userSpaceOnUse" color-interpolation-filters="sRGB">
<feFlood flood-opacity="0" result="BackgroundImageFix"/>
<feGaussianBlur in="BackgroundImageFix" stdDeviation="11.0434"/>
<feComposite in2="SourceAlpha" operator="in" result="effect1_backgroundBlur_98_795"/>
<feBlend mode="normal" in="SourceGraphic" in2="effect1_backgroundBlur_98_795" result="shape"/>
<feColorMatrix in="SourceAlpha" type="matrix" values="0 0 0 0 0 0 0 0 0 0 0 0 0 0 0 0 0 0 127 0" result="hardAlpha"/>
<feOffset dy="7.36225"/>
<feGaussianBlur stdDeviation="5.52168"/>
<feComposite in2="hardAlpha" operator="arithmetic" k2="-1" k3="1"/>
<feColorMatrix type="matrix" values="0 0 0 0 1 0 0 0 0 1 0 0 0 0 1 0 0 0 0.4 0"/>
<feBlend mode="normal" in2="shape" result="effect2_innerShadow_98_795"/>
</filter>
<filter id="filter4_bi_98_795" x="71.4435" y="137.745" width="71.3126" height="91.0891" filterUnits="userSpaceOnUse" color-interpolation-filters="sRGB">
<feFlood flood-opacity="0" result="BackgroundImageFix"/>
<feGaussianBlur in="BackgroundImageFix" stdDeviation="11.0434"/>
<feComposite in2="SourceAlpha" operator="in" result="effect1_backgroundBlur_98_795"/>
<feBlend mode="normal" in="SourceGraphic" in2="effect1_backgroundBlur_98_795" result="shape"/>
<feColorMatrix in="SourceAlpha" type="matrix" values="0 0 0 0 0 0 0 0 0 0 0 0 0 0 0 0 0 0 127 0" result="hardAlpha"/>
<feOffset dy="7.36225"/>
<feGaussianBlur stdDeviation="5.52168"/>
<feComposite in2="hardAlpha" operator="arithmetic" k2="-1" k3="1"/>
<feColorMatrix type="matrix" values="0 0 0 0 1 0 0 0 0 1 0 0 0 0 1 0 0 0 0.4 0"/>
<feBlend mode="normal" in2="shape" result="effect2_innerShadow_98_795"/>
</filter>
<filter id="filter5_bi_98_795" x="94.1877" y="145.678" width="76.153" height="83.1904" filterUnits="userSpaceOnUse" color-interpolation-filters="sRGB">
<feFlood flood-opacity="0" result="BackgroundImageFix"/>
<feGaussianBlur in="BackgroundImageFix" stdDeviation="11.0434"/>
<feComposite in2="SourceAlpha" operator="in" result="effect1_backgroundBlur_98_795"/>
<feBlend mode="normal" in="SourceGraphic" in2="effect1_backgroundBlur_98_795" result="shape"/>
<feColorMatrix in="SourceAlpha" type="matrix" values="0 0 0 0 0 0 0 0 0 0 0 0 0 0 0 0 0 0 127 0" result="hardAlpha"/>
<feOffset dy="7.36225"/>
<feGaussianBlur stdDeviation="5.52168"/>
<feComposite in2="hardAlpha" operator="arithmetic" k2="-1" k3="1"/>
<feColorMatrix type="matrix" values="0 0 0 0 1 0 0 0 0 1 0 0 0 0 1 0 0 0 0.4 0"/>
<feBlend mode="normal" in2="shape" result="effect2_innerShadow_98_795"/>
</filter>
<filter id="filter6_bi_98_795" x="78.5921" y="216.64" width="61.9496" height="64.7828" filterUnits="userSpaceOnUse" color-interpolation-filters="sRGB">
<feFlood flood-opacity="0" result="BackgroundImageFix"/>
<feGaussianBlur in="BackgroundImageFix" stdDeviation="4.45322"/>
<feComposite in2="SourceAlpha" operator="in" result="effect1_backgroundBlur_98_795"/>
<feBlend mode="normal" in="SourceGraphic" in2="effect1_backgroundBlur_98_795" result="shape"/>
<feColorMatrix in="SourceAlpha" type="matrix" values="0 0 0 0 0 0 0 0 0 0 0 0 0 0 0 0 0 0 127 0" result="hardAlpha"/>
<feOffset dy="1.48441"/>
<feGaussianBlur stdDeviation="2.96881"/>
<feComposite in2="hardAlpha" operator="arithmetic" k2="-1" k3="1"/>
<feColorMatrix type="matrix" values="0 0 0 0 1 0 0 0 0 1 0 0 0 0 1 0 0 0 0.4 0"/>
<feBlend mode="normal" in2="shape" result="effect2_innerShadow_98_795"/>
</filter>
<filter id="filter7_bi_98_795" x="78.5921" y="216.64" width="61.9496" height="64.7828" filterUnits="userSpaceOnUse" color-interpolation-filters="sRGB">
<feFlood flood-opacity="0" result="BackgroundImageFix"/>
<feGaussianBlur in="BackgroundImageFix" stdDeviation="4.45322"/>
<feComposite in2="SourceAlpha" operator="in" result="effect1_backgroundBlur_98_795"/>
<feBlend mode="normal" in="SourceGraphic" in2="effect1_backgroundBlur_98_795" result="shape"/>
<feColorMatrix in="SourceAlpha" type="matrix" values="0 0 0 0 0 0 0 0 0 0 0 0 0 0 0 0 0 0 127 0" result="hardAlpha"/>
<feOffset dy="1.48441"/>
<feGaussianBlur stdDeviation="2.96881"/>
<feComposite in2="hardAlpha" operator="arithmetic" k2="-1" k3="1"/>
<feColorMatrix type="matrix" values="0 0 0 0 1 0 0 0 0 1 0 0 0 0 1 0 0 0 0.4 0"/>
<feBlend mode="normal" in2="shape" result="effect2_innerShadow_98_795"/>
</filter>
<filter id="filter8_bi_98_795" x="64.6935" y="197.824" width="94.151" height="74.7013" filterUnits="userSpaceOnUse" color-interpolation-filters="sRGB">
<feFlood flood-opacity="0" result="BackgroundImageFix"/>
<feGaussianBlur in="BackgroundImageFix" stdDeviation="11.0434"/>
<feComposite in2="SourceAlpha" operator="in" result="effect1_backgroundBlur_98_795"/>
<feBlend mode="normal" in="SourceGraphic" in2="effect1_backgroundBlur_98_795" result="shape"/>
<feColorMatrix in="SourceAlpha" type="matrix" values="0 0 0 0 0 0 0 0 0 0 0 0 0 0 0 0 0 0 127 0" result="hardAlpha"/>
<feOffset dy="7.36225"/>
<feGaussianBlur stdDeviation="5.52168"/>
<feComposite in2="hardAlpha" operator="arithmetic" k2="-1" k3="1"/>
<feColorMatrix type="matrix" values="0 0 0 0 1 0 0 0 0 1 0 0 0 0 1 0 0 0 0.4 0"/>
<feBlend mode="normal" in2="shape" result="effect2_innerShadow_98_795"/>
</filter>
<filter id="filter9_bi_98_795" x="60.1139" y="209.113" width="71.3126" height="91.089" filterUnits="userSpaceOnUse" color-interpolation-filters="sRGB">
<feFlood flood-opacity="0" result="BackgroundImageFix"/>
<feGaussianBlur in="BackgroundImageFix" stdDeviation="11.0434"/>
<feComposite in2="SourceAlpha" operator="in" result="effect1_backgroundBlur_98_795"/>
<feBlend mode="normal" in="SourceGraphic" in2="effect1_backgroundBlur_98_795" result="shape"/>
<feColorMatrix in="SourceAlpha" type="matrix" values="0 0 0 0 0 0 0 0 0 0 0 0 0 0 0 0 0 0 127 0" result="hardAlpha"/>
<feOffset dy="7.36225"/>
<feGaussianBlur stdDeviation="5.52168"/>
<feComposite in2="hardAlpha" operator="arithmetic" k2="-1" k3="1"/>
<feColorMatrix type="matrix" values="0 0 0 0 1 0 0 0 0 1 0 0 0 0 1 0 0 0 0.4 0"/>
<feBlend mode="normal" in2="shape" result="effect2_innerShadow_98_795"/>
</filter>
<filter id="filter10_bi_98_795" x="82.8581" y="217.046" width="76.153" height="83.1903" filterUnits="userSpaceOnUse" color-interpolation-filters="sRGB">
<feFlood flood-opacity="0" result="BackgroundImageFix"/>
<feGaussianBlur in="BackgroundImageFix" stdDeviation="11.0434"/>
<feComposite in2="SourceAlpha" operator="in" result="effect1_backgroundBlur_98_795"/>
<feBlend mode="normal" in="SourceGraphic" in2="effect1_backgroundBlur_98_795" result="shape"/>
<feColorMatrix in="SourceAlpha" type="matrix" values="0 0 0 0 0 0 0 0 0 0 0 0 0 0 0 0 0 0 127 0" result="hardAlpha"/>
<feOffset dy="7.36225"/>
<feGaussianBlur stdDeviation="5.52168"/>
<feComposite in2="hardAlpha" operator="arithmetic" k2="-1" k3="1"/>
<feColorMatrix type="matrix" values="0 0 0 0 1 0 0 0 0 1 0 0 0 0 1 0 0 0 0.4 0"/>
<feBlend mode="normal" in2="shape" result="effect2_innerShadow_98_795"/>
</filter>
<filter id="filter11_bi_98_795" x="134.49" y="164.612" width="121.968" height="121.968" filterUnits="userSpaceOnUse" color-interpolation-filters="sRGB">
<feFlood flood-opacity="0" result="BackgroundImageFix"/>
<feGaussianBlur in="BackgroundImageFix" stdDeviation="14.0721"/>
<feComposite in2="SourceAlpha" operator="in" result="effect1_backgroundBlur_98_795"/>
<feBlend mode="normal" in="SourceGraphic" in2="effect1_backgroundBlur_98_795" result="shape"/>
<feColorMatrix in="SourceAlpha" type="matrix" values="0 0 0 0 0 0 0 0 0 0 0 0 0 0 0 0 0 0 127 0" result="hardAlpha"/>
<feOffset dy="9.38143"/>
<feGaussianBlur stdDeviation="7.03607"/>
<feComposite in2="hardAlpha" operator="arithmetic" k2="-1" k3="1"/>
<feColorMatrix type="matrix" values="0 0 0 0 1 0 0 0 0 1 0 0 0 0 1 0 0 0 0.4 0"/>
<feBlend mode="normal" in2="shape" result="effect2_innerShadow_98_795"/>
</filter>
<linearGradient id="paint0_linear_98_795" x1="104.395" y1="160.615" x2="148.3" y2="173.139" gradientUnits="userSpaceOnUse">
<stop stop-color="#8AE6CF"/>
<stop offset="1" stop-color="#26C6A2"/>
</linearGradient>
<linearGradient id="paint1_linear_98_795" x1="104.395" y1="160.615" x2="148.3" y2="173.139" gradientUnits="userSpaceOnUse">
<stop stop-color="#8AE6CF"/>
<stop offset="1" stop-color="#26C6A2"/>
</linearGradient>
<linearGradient id="paint2_linear_98_795" x1="104.395" y1="160.615" x2="148.3" y2="173.139" gradientUnits="userSpaceOnUse">
<stop stop-color="#8AE6CF"/>
<stop offset="1" stop-color="#26C6A2"/>
</linearGradient>
<linearGradient id="paint3_linear_98_795" x1="104.395" y1="160.615" x2="148.3" y2="173.139" gradientUnits="userSpaceOnUse">
<stop stop-color="#8AE6CF"/>
<stop offset="1" stop-color="#0E9576"/>
</linearGradient>
<linearGradient id="paint4_linear_98_795" x1="104.395" y1="160.615" x2="148.3" y2="173.139" gradientUnits="userSpaceOnUse">
<stop stop-color="#8AE6CF"/>
<stop offset="1" stop-color="#0E9576"/>
</linearGradient>
<linearGradient id="paint5_linear_98_795" x1="104.395" y1="160.615" x2="148.3" y2="173.139" gradientUnits="userSpaceOnUse">
<stop stop-color="#8AE6CF"/>
<stop offset="1" stop-color="#0E9576"/>
</linearGradient>
<linearGradient id="paint6_linear_98_795" x1="101.64" y1="151.041" x2="152.527" y2="171.44" gradientUnits="userSpaceOnUse">
<stop stop-color="#66FECB"/>
<stop offset="1" stop-color="#33D8B3"/>
</linearGradient>
<linearGradient id="paint7_linear_98_795" x1="97.4429" y1="168.533" x2="125.051" y2="175.265" gradientUnits="userSpaceOnUse">
<stop stop-color="#66FECB"/>
<stop offset="1" stop-color="#33D8B3"/>
</linearGradient>
<linearGradient id="paint8_linear_98_795" x1="122.785" y1="172.555" x2="150.392" y2="179.288" gradientUnits="userSpaceOnUse">
<stop stop-color="#66FECB"/>
<stop offset="1" stop-color="#33D8B3"/>
</linearGradient>
<linearGradient id="paint9_linear_98_795" x1="93.0649" y1="231.983" x2="136.97" y2="244.507" gradientUnits="userSpaceOnUse">
<stop stop-color="#8AE6CF"/>
<stop offset="1" stop-color="#26C6A2"/>
</linearGradient>
<linearGradient id="paint10_linear_98_795" x1="93.0649" y1="231.983" x2="136.97" y2="244.507" gradientUnits="userSpaceOnUse">
<stop stop-color="#8AE6CF"/>
<stop offset="1" stop-color="#26C6A2"/>
</linearGradient>
<linearGradient id="paint11_linear_98_795" x1="93.0649" y1="231.983" x2="136.97" y2="244.507" gradientUnits="userSpaceOnUse">
<stop stop-color="#8AE6CF"/>
<stop offset="1" stop-color="#26C6A2"/>
</linearGradient>
<linearGradient id="paint12_linear_98_795" x1="93.0649" y1="231.983" x2="136.97" y2="244.507" gradientUnits="userSpaceOnUse">
<stop stop-color="#8AE6CF"/>
<stop offset="1" stop-color="#0E9576"/>
</linearGradient>
<linearGradient id="paint13_linear_98_795" x1="93.0649" y1="231.983" x2="136.97" y2="244.507" gradientUnits="userSpaceOnUse">
<stop stop-color="#8AE6CF"/>
<stop offset="1" stop-color="#0E9576"/>
</linearGradient>
<linearGradient id="paint14_linear_98_795" x1="93.0649" y1="231.983" x2="136.97" y2="244.507" gradientUnits="userSpaceOnUse">
<stop stop-color="#8AE6CF"/>
<stop offset="1" stop-color="#0E9576"/>
</linearGradient>
<linearGradient id="paint15_linear_98_795" x1="90.3106" y1="222.409" x2="141.197" y2="242.808" gradientUnits="userSpaceOnUse">
<stop stop-color="#66FECB"/>
<stop offset="1" stop-color="#33D8B3"/>
</linearGradient>
<linearGradient id="paint16_linear_98_795" x1="86.1133" y1="239.901" x2="113.721" y2="246.633" gradientUnits="userSpaceOnUse">
<stop stop-color="#66FECB"/>
<stop offset="1" stop-color="#33D8B3"/>
</linearGradient>
<linearGradient id="paint17_linear_98_795" x1="111.455" y1="243.923" x2="139.063" y2="250.656" gradientUnits="userSpaceOnUse">
<stop stop-color="#66FECB"/>
<stop offset="1" stop-color="#33D8B3"/>
</linearGradient>
<linearGradient id="paint18_linear_98_795" x1="176.447" y1="208.327" x2="225.834" y2="223.358" gradientUnits="userSpaceOnUse">
<stop stop-color="#8AE6CF"/>
<stop offset="1" stop-color="#1ABC9F"/>
</linearGradient>
<linearGradient id="paint19_linear_98_795" x1="168.837" y1="201.419" x2="237.978" y2="222.462" gradientUnits="userSpaceOnUse">
<stop stop-color="#66FECB"/>
<stop offset="1" stop-color="#1DE4D8"/>
</linearGradient>
<clipPath id="clip0_98_795">
<rect width="140" height="140" fill="white" transform="translate(101 140) rotate(9.02)"/>
</clipPath>
</defs>
</svg>
