<svg width="307" height="354" viewBox="0 0 307 354" fill="none" xmlns="http://www.w3.org/2000/svg">
<g filter="url(#filter0_b_98_818)">
<rect y="23.3645" width="280" height="331" rx="30" transform="rotate(-4.7866 0 23.3645)" fill="white"/>
</g>
<path d="M63.5165 77.1622L63.8245 80.8408L61.9853 80.9948L62.5365 87.5782C63.4196 87.416 64.2736 87.2563 65.1116 87.0833L65.7164 90.443C60.4277 91.8854 54.4051 92.4632 49.9809 92.819L49.2057 89.1796C50.0086 89.1123 50.8686 89.0256 51.7724 88.9352L51.1832 81.8993L49.2856 82.0582L48.9775 78.3797L63.5165 77.1622ZM54.3593 102.625L53.6405 94.0413L58.3409 93.6477L58.7467 98.494L72.731 97.323L73.0439 101.06L54.3593 102.625ZM56.2598 88.4566C56.8717 88.3906 57.4823 88.3101 58.093 88.2296L57.5185 81.3688L55.6792 81.5228L56.2598 88.4566ZM66.9954 94.834L65.3306 74.9524L70.031 74.5588L70.6348 81.7699L73.9922 81.4887L74.3124 85.3132L70.9551 85.5944L71.6958 94.4404L66.9954 94.834ZM97.8194 72.1731L100.081 99.1782L95.614 99.5522L94.5114 86.3854L92.9349 86.5174L93.9397 98.5164L89.5313 98.8856L87.3946 73.3694L91.803 73.0002L92.6195 82.7513L94.1961 82.6193L93.3526 72.5471L97.8194 72.1731ZM76.5934 94.6476L75.09 76.6929L86.0672 75.7737L87.5707 93.7284L76.5934 94.6476ZM80.6671 90.6316L82.9151 90.4434L82.0228 79.7873L79.7748 79.9755L80.6671 90.6316ZM123.19 70.0486L125.458 97.1413L120.729 97.5374L119.616 84.2538L115.442 84.6034L115.131 80.8956L119.306 80.546L118.46 70.4447L123.19 70.0486ZM101.386 90.543C105.83 88.1423 106.993 83.4146 106.717 79.7774L106.688 79.4271L101.491 79.8622L101.181 76.1545L106.407 75.7169L106.111 72.1843L110.782 71.7932L111.078 75.3257L116.158 74.9004L116.468 78.6081L111.359 79.0359L111.389 79.3863C111.683 82.9042 113.639 87.121 118.463 88.7309L116.306 92.4688C113.23 91.5504 111.067 89.409 109.684 86.7613C108.791 89.7907 107.027 92.4227 104.108 93.9019L101.386 90.543ZM156.238 67.2813L158.499 94.2864L154.033 94.6604L152.93 81.4936L151.529 81.6109L152.533 93.61L148.096 93.9816L147.485 86.6829L145.773 89.4134C143.366 88.4095 141.714 86.5781 140.564 84.2636C139.939 87.153 138.687 89.5804 136.426 91.1956L133.267 87.8734C137.281 85.0824 137.791 80.1153 137.376 75.1522L133.318 75.492L133.007 71.7843L145.211 70.7624L145.521 74.4701L141.93 74.7708C142.305 79.0758 143.539 83.2795 147.369 85.2961L145.959 68.4654L150.397 68.0938L151.216 77.874L152.617 77.7567L151.771 67.6553L156.238 67.2813ZM181.084 67.3175L181.291 69.7991C181.563 73.2161 181.885 77.0698 181.258 83.0904L176.492 83.0486C177.094 78.1325 176.903 74.4442 176.662 71.3921L161.247 72.6829L160.939 69.0044L181.084 67.3175ZM160.294 91.1374L159.978 87.3713L168.27 86.677L167.514 77.6558L172.156 77.2671L172.912 86.2883L184.619 85.308L184.934 89.0741L160.294 91.1374ZM216.406 75.9137L216.712 79.563L207.107 80.3673L207.42 84.1042L202.778 84.4929L202.465 80.756L192.072 81.6263L191.766 77.977L216.406 75.9137ZM195.545 90.8021L194.914 83.2699L199.556 82.8812L199.874 86.6765L214.5 85.4517L214.813 89.1886L195.545 90.8021ZM194.714 76.319L193.768 65.0206L198.352 64.6368L198.555 67.06L207.78 66.2874L207.577 63.8643L212.219 63.4756L213.165 74.7739L194.714 76.319ZM198.992 72.2858L208.218 71.5133L208.066 69.7032L198.841 70.4757L198.992 72.2858ZM221.652 64.1263L222.136 69.9068L224.413 69.7161L223.929 63.9356L228.25 63.5738L229.802 82.1124L218.825 83.0316L217.273 64.493L221.652 64.1263ZM222.894 78.9572L225.171 78.7665L224.716 73.3363L222.439 73.527L222.894 78.9572ZM231.739 86.9776L229.602 61.4614L234.01 61.0923L234.827 70.8433L236.403 70.7113L235.56 60.6391L240.027 60.2651L242.288 87.2702L237.821 87.6442L236.719 74.4774L235.142 74.6094L236.147 86.6084L231.739 86.9776Z" fill="#252728"/>
<g clip-path="url(#clip0_98_818)">
<path d="M162.875 255.733L159.434 214.644L153.621 215.131L157.062 256.22C154.381 257.157 152.135 259.039 150.743 261.514C149.35 263.989 148.909 266.887 149.5 269.664C150.092 272.442 151.676 274.908 153.956 276.601C156.236 278.293 159.055 279.097 161.885 278.86C164.714 278.623 167.36 277.362 169.327 275.313C171.294 273.265 172.446 270.57 172.567 267.733C172.689 264.896 171.771 262.112 169.987 259.903C168.203 257.694 165.674 256.211 162.875 255.733Z" fill="#35D8B4"/>
<path d="M212.251 251.183C210.183 251.368 208.203 252.107 206.52 253.323L197.131 245.384L194.312 211.724L188.499 212.211L191.42 247.089C191.484 247.859 191.853 248.573 192.443 249.072L202.756 257.791C201.836 259.652 201.436 261.728 201.599 263.797C201.792 266.097 202.662 268.287 204.1 270.092C205.537 271.897 207.478 273.235 209.676 273.937C211.874 274.639 214.231 274.674 216.448 274.036C218.666 273.399 220.645 272.118 222.135 270.356C223.624 268.594 224.558 266.43 224.818 264.137C225.078 261.844 224.652 259.526 223.594 257.475C222.536 255.425 220.894 253.734 218.875 252.616C216.856 251.499 214.551 251.005 212.252 251.198L212.251 251.183Z" fill="#35D8B4"/>
<path d="M118.743 218.052L121.563 251.726L113.623 261.102C111.761 260.183 109.686 259.783 107.617 259.945C105.317 260.137 103.126 261.008 101.322 262.445C99.5167 263.883 98.1786 265.823 97.4765 268.021C96.7745 270.219 96.74 272.576 97.3774 274.794C98.0149 277.011 99.2956 278.99 101.058 280.48C102.82 281.97 104.984 282.904 107.277 283.163C109.57 283.423 111.888 282.997 113.939 281.939C115.989 280.882 117.68 279.239 118.798 277.221C119.915 275.202 120.409 272.897 120.216 270.597C120.033 268.529 119.293 266.549 118.077 264.867L126.795 254.549C127.293 253.96 127.538 253.197 127.475 252.428L124.556 217.565L118.743 218.052Z" fill="#35D8B4"/>
<g filter="url(#filter1_bi_98_818)">
<path d="M190.417 165.205C190.074 165.233 189.736 165.262 189.399 165.316C186.047 159.587 181.356 154.757 175.727 151.24C170.098 147.723 163.7 145.625 157.081 145.126L156.387 145.081C155.66 145.037 154.937 144.998 154.226 144.999C151.87 144.977 149.517 145.174 147.198 145.587C146.473 145.707 145.758 145.866 144.824 146.079L144.417 146.177C137.967 147.766 132 150.898 127.027 155.302C122.055 159.706 118.226 165.251 115.869 171.462C115.529 171.49 115.191 171.504 114.848 171.533C107.139 172.178 100.003 175.859 95.0086 181.767C90.0143 187.674 87.5711 195.323 88.2166 203.031C88.8621 210.74 92.5433 217.876 98.4505 222.871C104.358 227.865 112.007 230.308 119.715 229.663L195.284 223.335C202.993 222.689 210.129 219.008 215.123 213.101C220.118 207.194 222.561 199.544 221.915 191.836C221.27 184.127 217.589 176.991 211.681 171.997C205.774 167.002 198.125 164.559 190.417 165.205Z" fill="url(#paint0_linear_98_818)" fill-opacity="0.4"/>
</g>
</g>
<defs>
<filter id="filter0_b_98_818" x="-57.603" y="-57.603" width="421.85" height="468.416" filterUnits="userSpaceOnUse" color-interpolation-filters="sRGB">
<feFlood flood-opacity="0" result="BackgroundImageFix"/>
<feGaussianBlur in="BackgroundImageFix" stdDeviation="30"/>
<feComposite in2="SourceAlpha" operator="in" result="effect1_backgroundBlur_98_818"/>
<feBlend mode="normal" in="SourceGraphic" in2="effect1_backgroundBlur_98_818" result="shape"/>
</filter>
<filter id="filter1_bi_98_818" x="53.1147" y="109.997" width="203.902" height="154.767" filterUnits="userSpaceOnUse" color-interpolation-filters="sRGB">
<feFlood flood-opacity="0" result="BackgroundImageFix"/>
<feGaussianBlur in="BackgroundImageFix" stdDeviation="17.5"/>
<feComposite in2="SourceAlpha" operator="in" result="effect1_backgroundBlur_98_818"/>
<feBlend mode="normal" in="SourceGraphic" in2="effect1_backgroundBlur_98_818" result="shape"/>
<feColorMatrix in="SourceAlpha" type="matrix" values="0 0 0 0 0 0 0 0 0 0 0 0 0 0 0 0 0 0 127 0" result="hardAlpha"/>
<feOffset dy="5.83333"/>
<feGaussianBlur stdDeviation="8.75"/>
<feComposite in2="hardAlpha" operator="arithmetic" k2="-1" k3="1"/>
<feColorMatrix type="matrix" values="0 0 0 0 1 0 0 0 0 1 0 0 0 0 1 0 0 0 0.4 0"/>
<feBlend mode="normal" in2="shape" result="effect2_innerShadow_98_818"/>
</filter>
<linearGradient id="paint0_linear_98_818" x1="83.8369" y1="150.728" x2="231.617" y2="198.347" gradientUnits="userSpaceOnUse">
<stop stop-color="#83FFE1"/>
<stop offset="0.77" stop-color="#11B2BD"/>
</linearGradient>
<clipPath id="clip0_98_818">
<rect width="140" height="140" fill="white" transform="translate(80.687 148.067) rotate(-4.7866)"/>
</clipPath>
</defs>
</svg>
