<svg width="306" height="353" viewBox="0 0 306 353" fill="none" xmlns="http://www.w3.org/2000/svg">
<g filter="url(#filter0_b_98_788)">
<rect x="27.29" width="280" height="331" rx="30" transform="rotate(4.72927 27.29 0)" fill="#DFFAF5"/>
</g>
<path d="M100.76 63.0729L99.9363 73.0291L103.382 73.3141L103.065 77.1389L99.6198 76.8539L98.5305 90.0218L93.8297 89.6329L96.0592 62.684L100.76 63.0729ZM77.056 80.2493C83.3073 77.7092 86.8305 74.2084 88.0923 68.551L79.7857 67.8638L80.0997 64.0682L93.18 65.1503C92.4746 73.4995 89.019 80.2689 79.4183 84.0311L77.056 80.2493ZM115.069 68.4898C114.806 71.4959 115.901 74.5997 120.305 76.2722L117.523 79.6873C114.862 78.6294 113.156 76.8713 112.202 74.72C110.835 77.0321 108.722 78.7681 105.665 79.4706L103.456 75.6132C108.354 74.5045 110.081 71.0462 110.38 67.6022L110.564 65.3832L115.294 65.7745L115.069 68.4898ZM106.474 85.3287C106.741 81.926 110.571 80.2146 116.351 80.7074C121.973 81.1578 125.412 83.4707 125.131 86.8722C124.847 90.3029 121.076 92.0046 115.455 91.5396C109.674 91.0613 106.175 88.7582 106.474 85.3287ZM111.145 85.7152C111.039 86.9999 112.561 87.6108 115.757 87.8899C118.882 88.1338 120.397 87.774 120.488 86.4881C120.604 85.2631 119.177 84.5717 116.052 84.3279C112.856 84.0488 111.247 84.4889 111.145 85.7152ZM120.653 80.5929L121.957 64.8265L126.658 65.2154L126.172 71.084L129.53 71.3618L129.211 75.2158L125.853 74.938L125.353 80.9818L120.653 80.5929ZM161.198 68.0729L158.964 95.0802L154.497 94.7106L155.586 81.5427L154.184 81.4268L153.192 93.4268L148.754 93.0597L149.358 85.7604L147.218 88.1703C145.01 86.7824 143.683 84.703 142.932 82.2304C141.838 84.9766 140.202 87.1636 137.705 88.3828L135.139 84.5841C139.559 82.4951 140.884 77.6807 141.294 72.7172L137.236 72.3814L137.543 68.6734L149.747 69.6831L149.44 73.3911L145.849 73.094C145.507 77.4018 146.029 81.7516 149.472 84.3735L150.865 67.5414L155.303 67.9085L154.494 77.6896L155.895 77.8055L156.731 67.7033L161.198 68.0729ZM185.696 72.2161L185.49 74.6979C185.193 78.1127 184.874 81.9668 183.26 87.8008L178.566 86.9715C179.973 82.2227 180.394 78.5536 180.661 75.5037L165.245 74.2283L165.55 70.5495L185.696 72.2161ZM161.254 92.2712L161.565 88.5048L169.857 89.1907L170.604 80.1688L175.246 80.5529L174.5 89.5748L186.208 90.5434L185.896 94.3098L161.254 92.2712ZM217.193 72.7641L216.594 80.005L219.952 80.2828L219.638 84.0784L216.28 83.8006L215.546 92.6766L210.845 92.2877L212.493 72.3752L217.193 72.7641ZM194.867 86.7914L196.014 72.9228L200.657 73.3069L200.367 76.8105L204.425 77.1463L204.715 73.6426L209.387 74.0291L208.239 87.8977L194.867 86.7914ZM197.097 97.8528L197.822 89.0937L202.523 89.4826L202.107 94.5045L216.093 95.6615L215.784 99.3987L197.097 97.8528ZM199.809 83.555L203.867 83.8908L204.133 80.6791L200.075 80.3434L199.809 83.555ZM228.909 75.0562C230.968 75.2265 232.746 76.1232 233.957 77.4728L239.46 77.9281L239.738 74.5704L244.41 74.9569L243.108 90.6942L238.436 90.3077L238.671 87.4756L233.094 87.0142C231.694 88.1184 229.824 88.6986 227.796 88.5161C223.678 88.1901 220.705 85.0339 221.052 81.1969C221.345 77.2967 224.793 74.7157 228.909 75.0562ZM223.817 95.0364C224.084 91.6338 227.915 89.9223 233.665 90.4127C239.462 90.8776 242.96 93.1954 242.678 96.5968C242.397 99.9983 238.565 101.724 232.769 101.245C227.017 100.769 223.521 98.4367 223.817 95.0364ZM225.49 81.5641C225.312 83.3573 226.427 84.449 228.122 84.5745C229.756 84.7244 230.977 83.8259 231.154 82.0327C231.281 80.147 230.216 79.1623 228.581 79.0271C226.887 78.887 225.617 79.6784 225.49 81.5641ZM228.401 95.4157C228.279 96.7137 229.872 97.3599 233.069 97.6244C236.397 97.8998 237.987 97.5169 238.094 96.2176C238.204 94.8891 236.7 94.2356 233.373 93.9456C230.175 93.6957 228.496 94.086 228.401 95.4157ZM235.398 83.5008L238.975 83.7967L239.156 81.607L235.594 81.3123C235.624 81.6675 235.623 82.0348 235.592 82.3998C235.561 82.7794 235.502 83.1419 235.398 83.5008Z" fill="#252728"/>
<g clip-path="url(#clip0_98_788)">
<path fill-rule="evenodd" clip-rule="evenodd" d="M121.058 200.996C124.889 199.239 126.57 194.711 124.814 190.88C123.058 187.05 118.529 185.368 114.699 187.124L86.4046 200.096C83.8383 201.272 82.1314 203.769 81.9673 206.587C81.8031 209.406 83.2086 212.084 85.621 213.551L100.781 222.767L83.8884 230.511C81.3221 231.688 79.6152 234.185 79.4511 237.003C79.2869 239.821 80.6924 242.5 83.1048 243.967L141.42 279.415C143.472 280.662 145.992 280.87 148.221 279.977L211.568 254.594C214.189 253.544 216.015 251.133 216.316 248.326C216.618 245.519 215.345 242.775 213.007 241.193L197.615 230.778L214.084 224.179C216.705 223.128 218.532 220.717 218.833 217.91C219.134 215.103 217.861 212.36 215.523 210.777L189.745 193.333C186.254 190.971 181.511 191.885 179.15 195.375C176.788 198.865 177.702 203.608 181.192 205.97L195.067 215.36L148.602 233.978L105.829 207.977L121.058 200.996ZM180.514 237.63L150.737 249.562C148.508 250.455 145.988 250.246 143.936 248.999L116.524 232.336L103.313 238.393L146.086 264.393L192.551 245.775L180.514 237.63Z" fill="url(#paint0_linear_98_788)"/>
<g filter="url(#filter1_b_98_788)">
<path d="M159.411 144.713C157.359 143.466 154.839 143.257 152.61 144.15L89.2628 169.533C86.5801 170.608 84.735 173.107 84.4968 175.987C84.2585 178.867 85.6679 181.634 88.1375 183.136L146.452 218.583C148.504 219.831 151.024 220.04 153.253 219.146L216.601 193.763C219.283 192.688 221.128 190.19 221.367 187.31C221.605 184.43 220.196 181.662 217.726 180.161L159.411 144.713Z" fill="#6FE4C8" fill-opacity="0.4"/>
</g>
</g>
<defs>
<filter id="filter0_b_98_788" x="-57.6304" y="-57.6304" width="421.598" height="468.219" filterUnits="userSpaceOnUse" color-interpolation-filters="sRGB">
<feFlood flood-opacity="0" result="BackgroundImageFix"/>
<feGaussianBlur in="BackgroundImageFix" stdDeviation="30"/>
<feComposite in2="SourceAlpha" operator="in" result="effect1_backgroundBlur_98_788"/>
<feBlend mode="normal" in="SourceGraphic" in2="effect1_backgroundBlur_98_788" result="shape"/>
</filter>
<filter id="filter1_b_98_788" x="67.9902" y="127.122" width="169.883" height="109.052" filterUnits="userSpaceOnUse" color-interpolation-filters="sRGB">
<feFlood flood-opacity="0" result="BackgroundImageFix"/>
<feGaussianBlur in="BackgroundImageFix" stdDeviation="8.24025"/>
<feComposite in2="SourceAlpha" operator="in" result="effect1_backgroundBlur_98_788"/>
<feBlend mode="normal" in="SourceGraphic" in2="effect1_backgroundBlur_98_788" result="shape"/>
</filter>
<linearGradient id="paint0_linear_98_788" x1="155.624" y1="149.104" x2="147.698" y2="244.913" gradientUnits="userSpaceOnUse">
<stop stop-color="#A9F8E6"/>
<stop offset="1" stop-color="#2BCDA9"/>
</linearGradient>
<clipPath id="clip0_98_788">
<rect width="140" height="140" fill="white" transform="translate(86.251 136.325) rotate(4.72927)"/>
</clipPath>
</defs>
</svg>
