<svg width="166" height="195" viewBox="0 0 166 195" fill="none" xmlns="http://www.w3.org/2000/svg">
<g filter="url(#filter0_b_17_595)">
<rect x="0.586914" width="165" height="195" rx="17.6786" fill="#DFFAF5"/>
</g>
<g clip-path="url(#clip0_17_595)">
<g filter="url(#filter1_bi_17_595)">
<path d="M69.0854 91.4093C68.9724 91.2036 68.8075 91.0312 68.607 90.9092L57.7666 84.2844C57.554 84.1546 57.3097 84.0859 57.0606 84.0859C56.8115 84.0859 56.5672 84.1546 56.3546 84.2844L45.5141 90.9092C45.3137 91.0312 45.1488 91.2036 45.0358 91.4093L57.0606 98.7591L69.0854 91.4093Z" fill="url(#paint0_linear_17_595)"/>
<path d="M45.0358 91.4093C44.924 91.6103 44.864 91.8376 44.8638 92.0676V104.098C44.8639 104.33 44.9237 104.558 45.0373 104.76C45.151 104.963 45.3147 105.133 45.5128 105.254L56.3533 111.878C56.5658 112.009 56.8101 112.077 57.0593 112.078L57.0606 98.7591L45.0358 91.4093Z" fill="url(#paint1_linear_17_595)"/>
<path d="M69.0854 91.4093C69.1971 91.6103 69.2546 91.8376 69.2548 92.0676V104.098C69.2547 104.33 69.1949 104.558 69.0813 104.76C68.9676 104.963 68.8039 105.133 68.6057 105.254L57.7653 111.878C57.5527 112.009 57.3085 112.077 57.0593 112.078L57.0606 98.7591L69.0854 91.4093Z" fill="url(#paint2_linear_17_595)"/>
</g>
<g filter="url(#filter2_bi_17_595)">
<path d="M69.0854 91.4093C68.9724 91.2036 68.8075 91.0312 68.607 90.9092L57.7666 84.2844C57.554 84.1546 57.3097 84.0859 57.0606 84.0859C56.8115 84.0859 56.5672 84.1546 56.3546 84.2844L45.5141 90.9092C45.3137 91.0312 45.1488 91.2036 45.0358 91.4093L57.0606 98.7591L69.0854 91.4093Z" fill="url(#paint3_linear_17_595)"/>
<path d="M45.0358 91.4093C44.924 91.6103 44.864 91.8376 44.8638 92.0676V104.098C44.8639 104.33 44.9237 104.558 45.0373 104.76C45.151 104.963 45.3147 105.133 45.5128 105.254L56.3533 111.878C56.5658 112.009 56.8101 112.077 57.0593 112.078L57.0606 98.7591L45.0358 91.4093Z" fill="url(#paint4_linear_17_595)"/>
<path d="M69.0854 91.4093C69.1971 91.6103 69.2546 91.8376 69.2548 92.0676V104.098C69.2547 104.33 69.1949 104.558 69.0813 104.76C68.9676 104.963 68.8039 105.133 68.6057 105.254L57.7653 111.878C57.5527 112.009 57.3085 112.077 57.0593 112.078L57.0606 98.7591L69.0854 91.4093Z" fill="url(#paint5_linear_17_595)"/>
</g>
<g filter="url(#filter3_bi_17_595)">
<path d="M71.9697 89.8082C71.8296 89.5532 71.6251 89.3395 71.3766 89.1882L57.9352 80.9738C57.6715 80.8129 57.3686 80.7278 57.0598 80.7278C56.7509 80.7278 56.448 80.8129 56.1844 80.9738L42.743 89.1882C42.4945 89.3395 42.29 89.5532 42.1499 89.8082L57.0598 98.9215L71.9697 89.8082Z" fill="#F1F1F1" fill-opacity="0.1"/>
<path d="M71.9697 89.8082C71.8296 89.5532 71.6251 89.3395 71.3766 89.1882L57.9352 80.9738C57.6715 80.8129 57.3686 80.7278 57.0598 80.7278C56.7509 80.7278 56.448 80.8129 56.1844 80.9738L42.743 89.1882C42.4945 89.3395 42.29 89.5532 42.1499 89.8082L57.0598 98.9215L71.9697 89.8082Z" fill="url(#paint6_linear_17_595)" fill-opacity="0.2"/>
</g>
<g filter="url(#filter4_bi_17_595)">
<path d="M42.1472 89.8093C42.0087 90.0586 41.9358 90.339 41.9355 90.6242V105.541C41.9357 105.829 42.0098 106.112 42.1507 106.363C42.2917 106.614 42.4947 106.824 42.7404 106.974L56.1818 115.188C56.4453 115.35 56.7482 115.435 57.0571 115.435V98.9226L42.1472 89.8093Z" fill="#F1F1F1" fill-opacity="0.1"/>
<path d="M42.1472 89.8093C42.0087 90.0586 41.9358 90.339 41.9355 90.6242V105.541C41.9357 105.829 42.0098 106.112 42.1507 106.363C42.2917 106.614 42.4947 106.824 42.7404 106.974L56.1818 115.188C56.4453 115.35 56.7482 115.435 57.0571 115.435V98.9226L42.1472 89.8093Z" fill="url(#paint7_linear_17_595)" fill-opacity="0.2"/>
</g>
<g filter="url(#filter5_bi_17_595)">
<path d="M71.966 89.8093C72.1046 90.0586 72.1775 90.339 72.1777 90.6242V105.541C72.1776 105.829 72.1035 106.112 71.9626 106.363C71.8216 106.614 71.6186 106.824 71.3729 106.974L57.9315 115.188C57.668 115.35 57.3651 115.435 57.0562 115.435V98.9226L71.966 89.8093Z" fill="#F1F1F1" fill-opacity="0.1"/>
<path d="M71.966 89.8093C72.1046 90.0586 72.1775 90.339 72.1777 90.6242V105.541C72.1776 105.829 72.1035 106.112 71.9626 106.363C71.8216 106.614 71.6186 106.824 71.3729 106.974L57.9315 115.188C57.668 115.35 57.3651 115.435 57.0562 115.435V98.9226L71.966 89.8093Z" fill="url(#paint8_linear_17_595)" fill-opacity="0.2"/>
</g>
<g filter="url(#filter6_bi_17_595)">
<path d="M69.0854 133.992C68.9724 133.786 68.8075 133.614 68.607 133.492L57.7666 126.867C57.554 126.737 57.3097 126.669 57.0606 126.669C56.8115 126.669 56.5672 126.737 56.3546 126.867L45.5141 133.492C45.3137 133.614 45.1488 133.786 45.0358 133.992L57.0606 141.342L69.0854 133.992Z" fill="url(#paint9_linear_17_595)"/>
<path d="M45.0358 133.992C44.924 134.193 44.864 134.42 44.8638 134.65V146.681C44.8639 146.913 44.9237 147.141 45.0373 147.343C45.151 147.546 45.3147 147.716 45.5128 147.836L56.3533 154.461C56.5658 154.591 56.8101 154.66 57.0593 154.661L57.0606 141.342L45.0358 133.992Z" fill="url(#paint10_linear_17_595)"/>
<path d="M69.0854 133.992C69.1971 134.193 69.2546 134.42 69.2548 134.65V146.681C69.2547 146.913 69.1949 147.141 69.0813 147.343C68.9676 147.546 68.8039 147.716 68.6057 147.836L57.7653 154.461C57.5527 154.591 57.3085 154.66 57.0593 154.661L57.0606 141.342L69.0854 133.992Z" fill="url(#paint11_linear_17_595)"/>
</g>
<g filter="url(#filter7_bi_17_595)">
<path d="M69.0854 133.992C68.9724 133.786 68.8075 133.614 68.607 133.492L57.7666 126.867C57.554 126.737 57.3097 126.669 57.0606 126.669C56.8115 126.669 56.5672 126.737 56.3546 126.867L45.5141 133.492C45.3137 133.614 45.1488 133.786 45.0358 133.992L57.0606 141.342L69.0854 133.992Z" fill="url(#paint12_linear_17_595)"/>
<path d="M45.0358 133.992C44.924 134.193 44.864 134.42 44.8638 134.65V146.681C44.8639 146.913 44.9237 147.141 45.0373 147.343C45.151 147.546 45.3147 147.716 45.5128 147.836L56.3533 154.461C56.5658 154.591 56.8101 154.66 57.0593 154.661L57.0606 141.342L45.0358 133.992Z" fill="url(#paint13_linear_17_595)"/>
<path d="M69.0854 133.992C69.1971 134.193 69.2546 134.42 69.2548 134.65V146.681C69.2547 146.913 69.1949 147.141 69.0813 147.343C68.9676 147.546 68.8039 147.716 68.6057 147.836L57.7653 154.461C57.5527 154.591 57.3085 154.66 57.0593 154.661L57.0606 141.342L69.0854 133.992Z" fill="url(#paint14_linear_17_595)"/>
</g>
<g filter="url(#filter8_bi_17_595)">
<path d="M71.9697 132.391C71.8296 132.136 71.6251 131.922 71.3766 131.771L57.9352 123.557C57.6715 123.396 57.3686 123.311 57.0598 123.311C56.7509 123.311 56.448 123.396 56.1844 123.557L42.743 131.771C42.4945 131.922 42.29 132.136 42.1499 132.391L57.0598 141.504L71.9697 132.391Z" fill="#F1F1F1" fill-opacity="0.1"/>
<path d="M71.9697 132.391C71.8296 132.136 71.6251 131.922 71.3766 131.771L57.9352 123.557C57.6715 123.396 57.3686 123.311 57.0598 123.311C56.7509 123.311 56.448 123.396 56.1844 123.557L42.743 131.771C42.4945 131.922 42.29 132.136 42.1499 132.391L57.0598 141.504L71.9697 132.391Z" fill="url(#paint15_linear_17_595)" fill-opacity="0.2"/>
</g>
<g filter="url(#filter9_bi_17_595)">
<path d="M42.1472 132.392C42.0087 132.641 41.9358 132.922 41.9355 133.207V148.124C41.9357 148.411 42.0098 148.694 42.1507 148.945C42.2917 149.196 42.4947 149.407 42.7404 149.557L56.1818 157.771C56.4453 157.932 56.7482 158.018 57.0571 158.018V141.505L42.1472 132.392Z" fill="#F1F1F1" fill-opacity="0.1"/>
<path d="M42.1472 132.392C42.0087 132.641 41.9358 132.922 41.9355 133.207V148.124C41.9357 148.411 42.0098 148.694 42.1507 148.945C42.2917 149.196 42.4947 149.407 42.7404 149.557L56.1818 157.771C56.4453 157.932 56.7482 158.018 57.0571 158.018V141.505L42.1472 132.392Z" fill="url(#paint16_linear_17_595)" fill-opacity="0.2"/>
</g>
<g filter="url(#filter10_bi_17_595)">
<path d="M71.966 132.392C72.1046 132.641 72.1775 132.922 72.1777 133.207V148.124C72.1776 148.411 72.1035 148.694 71.9626 148.945C71.8216 149.196 71.6186 149.407 71.3729 149.557L57.9315 157.771C57.668 157.932 57.3651 158.018 57.0562 158.018V141.505L71.966 132.392Z" fill="#F1F1F1" fill-opacity="0.1"/>
<path d="M71.966 132.392C72.1046 132.641 72.1775 132.922 72.1777 133.207V148.124C72.1776 148.411 72.1035 148.694 71.9626 148.945C71.8216 149.196 71.6186 149.407 71.3729 149.557L57.9315 157.771C57.668 157.932 57.3651 158.018 57.0562 158.018V141.505L71.966 132.392Z" fill="url(#paint17_linear_17_595)" fill-opacity="0.2"/>
</g>
<path d="M104.892 132.909C112.525 132.909 118.713 126.721 118.713 119.088C118.713 111.455 112.525 105.268 104.892 105.268C97.2586 105.268 91.0708 111.455 91.0708 119.088C91.0708 126.721 97.2586 132.909 104.892 132.909Z" fill="url(#paint18_linear_17_595)"/>
<g filter="url(#filter11_bi_17_595)">
<path d="M104.892 138.438C115.578 138.438 124.241 129.775 124.241 119.088C124.241 108.402 115.578 99.7391 104.892 99.7391C94.2054 99.7391 85.5425 108.402 85.5425 119.088C85.5425 129.775 94.2054 138.438 104.892 138.438Z" fill="#F1F1F1" fill-opacity="0.1"/>
<path d="M104.892 138.438C115.578 138.438 124.241 129.775 124.241 119.088C124.241 108.402 115.578 99.7391 104.892 99.7391C94.2054 99.7391 85.5425 108.402 85.5425 119.088C85.5425 129.775 94.2054 138.438 104.892 138.438Z" fill="url(#paint19_linear_17_595)" fill-opacity="0.2"/>
</g>
<path d="M74.8015 129.57L75.7297 126.106L84.7754 128.169C85.7333 128.425 86.3001 129.407 86.0434 130.365L82.2904 139.537L78.8261 138.609L81.4586 133.619L66.6584 142.164L64.8649 139.057L79.6651 130.512L74.8015 129.57Z" fill="#33D8B3"/>
<path d="M79.721 99.9496L83.1852 99.0213L85.9219 107.886C86.1786 108.844 85.6118 109.826 84.6539 110.083L74.8342 111.418L73.9059 107.954L79.5436 107.739L64.7434 99.1941L66.5369 96.0877L81.3371 104.633L79.721 99.9496Z" fill="#33D8B3"/>
</g>
<path d="M39.6115 36.891C39.6115 39.5152 39.9913 42.1307 42.2357 43.6241L40.751 45.7476C39.5166 45.0052 38.7397 43.8571 38.2649 42.476C37.7211 44.0298 36.8665 45.3246 35.5544 46.1274L33.8798 44.0729C36.3486 42.5105 36.9183 39.7137 36.9183 37.0291L36.9183 34.4913L39.6115 34.4913L39.6115 36.891ZM40.5956 40.6028L40.5956 38.3757L42.253 38.3757L42.253 33.3864L44.8253 33.3864L44.8253 48.4753L42.253 48.4753L42.253 40.6028L40.5956 40.6028ZM45.5504 49.1659L45.5504 33.1965L48.1918 33.1965L48.1918 49.1659L45.5504 49.1659ZM62.6075 41.2243L62.6075 43.3651L51.1613 43.3651L51.1613 34.2496L62.5212 34.2496L62.5212 36.4767L53.9754 36.4767L53.9754 37.7197L62.1241 37.7197L62.1241 39.8605L53.9754 39.8605L53.9754 41.2243L62.6075 41.2243ZM49.5385 47.4567L49.5385 45.2296L64.1267 45.2296L64.1267 47.4567L49.5385 47.4567ZM82.7376 33.1965L82.7376 49.1659L80.0961 49.1659L80.0961 41.3797L79.2674 41.3797L79.2674 48.4753L76.6433 48.4753L76.6433 44.1593L75.5038 45.6785C74.14 44.9707 73.2595 43.814 72.6984 42.3983C72.1891 44.0643 71.3345 45.4282 69.9275 46.2655L68.2356 44.1593C70.7303 42.7177 71.2741 39.8259 71.2741 36.891L68.8744 36.891L68.8744 34.6985L76.0908 34.6985L76.0908 36.891L73.9673 36.891C73.976 39.4375 74.4939 41.9667 76.6433 43.3392L76.6433 33.3864L79.2674 33.3864L79.2674 39.1699L80.0961 39.1699L80.0961 33.1965L82.7376 33.1965ZM97.3258 34.4395L97.3258 35.907C97.3172 37.9269 97.3172 40.2058 96.6525 43.7104L93.8557 43.4514C94.4513 40.5942 94.5204 38.4189 94.529 36.6148L85.4135 36.6148L85.4135 34.4395L97.3258 34.4395ZM83.946 47.4049L83.946 45.1778L88.8491 45.1778L88.8491 39.8432L91.5941 39.8432L91.5941 45.1778L98.517 45.1778L98.517 47.4049L83.946 47.4049ZM116.662 33.231L116.662 44.8153L113.899 44.8153L113.899 41.3797L110.542 41.3797C109.773 42.1134 108.72 42.5537 107.563 42.5537C105.129 42.5537 103.23 40.7323 103.247 38.3412C103.23 35.8983 105.129 34.1029 107.563 34.0942C108.729 34.0942 109.782 34.5431 110.559 35.2855L113.899 35.2855L113.899 33.231L116.662 33.231ZM105.854 48.9414L105.854 43.6759L108.617 43.6759L108.617 46.7316L117.007 46.7316L117.007 48.9414L105.854 48.9414ZM105.872 38.3412C105.854 39.5066 106.562 40.0935 107.563 40.1022C108.487 40.0935 109.204 39.5066 109.221 38.3412C109.204 37.15 108.487 36.5544 107.563 36.563C106.562 36.5544 105.854 37.15 105.872 38.3412ZM111.759 39.1872L113.899 39.1872L113.899 37.478L111.759 37.478C111.81 37.7542 111.845 38.0391 111.845 38.3412C111.845 38.6347 111.81 38.9109 111.759 39.1872ZM132.959 40.5165L132.959 42.6918L118.354 42.6918L118.354 40.5165L124.31 40.5165L124.31 39.4807L120.08 39.4807L120.08 33.887L131.25 33.887L131.25 36.0278L122.825 36.0278L122.825 37.3226L131.319 37.3226L131.319 39.4807L127.038 39.4807L127.038 40.5165L132.959 40.5165ZM119.959 46.2482C119.968 44.3146 122.091 43.2529 125.605 43.2443C129.092 43.2529 131.19 44.3146 131.198 46.2482C131.19 48.13 129.092 49.2177 125.605 49.2177C122.091 49.2177 119.968 48.13 119.959 46.2482ZM122.791 46.2482C122.773 46.8956 123.619 47.1287 125.605 47.1287C127.53 47.1287 128.419 46.8956 128.419 46.2482C128.419 45.6008 127.53 45.3332 125.605 45.3332C123.619 45.3332 122.773 45.6008 122.791 46.2482Z" fill="#252728"/>
<defs>
<filter id="filter0_b_17_595" x="-28.8774" y="-29.4643" width="223.929" height="253.929" filterUnits="userSpaceOnUse" color-interpolation-filters="sRGB">
<feFlood flood-opacity="0" result="BackgroundImageFix"/>
<feGaussianBlur in="BackgroundImageFix" stdDeviation="14.7321"/>
<feComposite in2="SourceAlpha" operator="in" result="effect1_backgroundBlur_17_595"/>
<feBlend mode="normal" in="SourceGraphic" in2="effect1_backgroundBlur_17_595" result="shape"/>
</filter>
<filter id="filter1_bi_17_595" x="39.6153" y="78.8375" width="34.888" height="38.4886" filterUnits="userSpaceOnUse" color-interpolation-filters="sRGB">
<feFlood flood-opacity="0" result="BackgroundImageFix"/>
<feGaussianBlur in="BackgroundImageFix" stdDeviation="2.62422"/>
<feComposite in2="SourceAlpha" operator="in" result="effect1_backgroundBlur_17_595"/>
<feBlend mode="normal" in="SourceGraphic" in2="effect1_backgroundBlur_17_595" result="shape"/>
<feColorMatrix in="SourceAlpha" type="matrix" values="0 0 0 0 0 0 0 0 0 0 0 0 0 0 0 0 0 0 127 0" result="hardAlpha"/>
<feOffset dy="0.87474"/>
<feGaussianBlur stdDeviation="1.74948"/>
<feComposite in2="hardAlpha" operator="arithmetic" k2="-1" k3="1"/>
<feColorMatrix type="matrix" values="0 0 0 0 1 0 0 0 0 1 0 0 0 0 1 0 0 0 0.4 0"/>
<feBlend mode="normal" in2="shape" result="effect2_innerShadow_17_595"/>
</filter>
<filter id="filter2_bi_17_595" x="39.6153" y="78.8375" width="34.888" height="38.4886" filterUnits="userSpaceOnUse" color-interpolation-filters="sRGB">
<feFlood flood-opacity="0" result="BackgroundImageFix"/>
<feGaussianBlur in="BackgroundImageFix" stdDeviation="2.62422"/>
<feComposite in2="SourceAlpha" operator="in" result="effect1_backgroundBlur_17_595"/>
<feBlend mode="normal" in="SourceGraphic" in2="effect1_backgroundBlur_17_595" result="shape"/>
<feColorMatrix in="SourceAlpha" type="matrix" values="0 0 0 0 0 0 0 0 0 0 0 0 0 0 0 0 0 0 127 0" result="hardAlpha"/>
<feOffset dy="0.87474"/>
<feGaussianBlur stdDeviation="1.74948"/>
<feComposite in2="hardAlpha" operator="arithmetic" k2="-1" k3="1"/>
<feColorMatrix type="matrix" values="0 0 0 0 1 0 0 0 0 1 0 0 0 0 1 0 0 0 0.4 0"/>
<feBlend mode="normal" in2="shape" result="effect2_innerShadow_17_595"/>
</filter>
<filter id="filter3_bi_17_595" x="29.1345" y="67.7124" width="55.8506" height="44.2245" filterUnits="userSpaceOnUse" color-interpolation-filters="sRGB">
<feFlood flood-opacity="0" result="BackgroundImageFix"/>
<feGaussianBlur in="BackgroundImageFix" stdDeviation="6.5077"/>
<feComposite in2="SourceAlpha" operator="in" result="effect1_backgroundBlur_17_595"/>
<feBlend mode="normal" in="SourceGraphic" in2="effect1_backgroundBlur_17_595" result="shape"/>
<feColorMatrix in="SourceAlpha" type="matrix" values="0 0 0 0 0 0 0 0 0 0 0 0 0 0 0 0 0 0 127 0" result="hardAlpha"/>
<feOffset dy="4.33847"/>
<feGaussianBlur stdDeviation="3.25385"/>
<feComposite in2="hardAlpha" operator="arithmetic" k2="-1" k3="1"/>
<feColorMatrix type="matrix" values="0 0 0 0 1 0 0 0 0 1 0 0 0 0 1 0 0 0 0.4 0"/>
<feBlend mode="normal" in2="shape" result="effect2_innerShadow_17_595"/>
</filter>
<filter id="filter4_bi_17_595" x="28.9201" y="76.7939" width="41.1524" height="51.6568" filterUnits="userSpaceOnUse" color-interpolation-filters="sRGB">
<feFlood flood-opacity="0" result="BackgroundImageFix"/>
<feGaussianBlur in="BackgroundImageFix" stdDeviation="6.5077"/>
<feComposite in2="SourceAlpha" operator="in" result="effect1_backgroundBlur_17_595"/>
<feBlend mode="normal" in="SourceGraphic" in2="effect1_backgroundBlur_17_595" result="shape"/>
<feColorMatrix in="SourceAlpha" type="matrix" values="0 0 0 0 0 0 0 0 0 0 0 0 0 0 0 0 0 0 127 0" result="hardAlpha"/>
<feOffset dy="4.33847"/>
<feGaussianBlur stdDeviation="3.25385"/>
<feComposite in2="hardAlpha" operator="arithmetic" k2="-1" k3="1"/>
<feColorMatrix type="matrix" values="0 0 0 0 1 0 0 0 0 1 0 0 0 0 1 0 0 0 0.4 0"/>
<feBlend mode="normal" in2="shape" result="effect2_innerShadow_17_595"/>
</filter>
<filter id="filter5_bi_17_595" x="44.0408" y="76.7939" width="41.1524" height="51.6568" filterUnits="userSpaceOnUse" color-interpolation-filters="sRGB">
<feFlood flood-opacity="0" result="BackgroundImageFix"/>
<feGaussianBlur in="BackgroundImageFix" stdDeviation="6.5077"/>
<feComposite in2="SourceAlpha" operator="in" result="effect1_backgroundBlur_17_595"/>
<feBlend mode="normal" in="SourceGraphic" in2="effect1_backgroundBlur_17_595" result="shape"/>
<feColorMatrix in="SourceAlpha" type="matrix" values="0 0 0 0 0 0 0 0 0 0 0 0 0 0 0 0 0 0 127 0" result="hardAlpha"/>
<feOffset dy="4.33847"/>
<feGaussianBlur stdDeviation="3.25385"/>
<feComposite in2="hardAlpha" operator="arithmetic" k2="-1" k3="1"/>
<feColorMatrix type="matrix" values="0 0 0 0 1 0 0 0 0 1 0 0 0 0 1 0 0 0 0.4 0"/>
<feBlend mode="normal" in2="shape" result="effect2_innerShadow_17_595"/>
</filter>
<filter id="filter6_bi_17_595" x="39.6153" y="121.42" width="34.888" height="38.4886" filterUnits="userSpaceOnUse" color-interpolation-filters="sRGB">
<feFlood flood-opacity="0" result="BackgroundImageFix"/>
<feGaussianBlur in="BackgroundImageFix" stdDeviation="2.62422"/>
<feComposite in2="SourceAlpha" operator="in" result="effect1_backgroundBlur_17_595"/>
<feBlend mode="normal" in="SourceGraphic" in2="effect1_backgroundBlur_17_595" result="shape"/>
<feColorMatrix in="SourceAlpha" type="matrix" values="0 0 0 0 0 0 0 0 0 0 0 0 0 0 0 0 0 0 127 0" result="hardAlpha"/>
<feOffset dy="0.87474"/>
<feGaussianBlur stdDeviation="1.74948"/>
<feComposite in2="hardAlpha" operator="arithmetic" k2="-1" k3="1"/>
<feColorMatrix type="matrix" values="0 0 0 0 1 0 0 0 0 1 0 0 0 0 1 0 0 0 0.4 0"/>
<feBlend mode="normal" in2="shape" result="effect2_innerShadow_17_595"/>
</filter>
<filter id="filter7_bi_17_595" x="39.6153" y="121.42" width="34.888" height="38.4886" filterUnits="userSpaceOnUse" color-interpolation-filters="sRGB">
<feFlood flood-opacity="0" result="BackgroundImageFix"/>
<feGaussianBlur in="BackgroundImageFix" stdDeviation="2.62422"/>
<feComposite in2="SourceAlpha" operator="in" result="effect1_backgroundBlur_17_595"/>
<feBlend mode="normal" in="SourceGraphic" in2="effect1_backgroundBlur_17_595" result="shape"/>
<feColorMatrix in="SourceAlpha" type="matrix" values="0 0 0 0 0 0 0 0 0 0 0 0 0 0 0 0 0 0 127 0" result="hardAlpha"/>
<feOffset dy="0.87474"/>
<feGaussianBlur stdDeviation="1.74948"/>
<feComposite in2="hardAlpha" operator="arithmetic" k2="-1" k3="1"/>
<feColorMatrix type="matrix" values="0 0 0 0 1 0 0 0 0 1 0 0 0 0 1 0 0 0 0.4 0"/>
<feBlend mode="normal" in2="shape" result="effect2_innerShadow_17_595"/>
</filter>
<filter id="filter8_bi_17_595" x="29.1345" y="110.295" width="55.8506" height="44.2245" filterUnits="userSpaceOnUse" color-interpolation-filters="sRGB">
<feFlood flood-opacity="0" result="BackgroundImageFix"/>
<feGaussianBlur in="BackgroundImageFix" stdDeviation="6.5077"/>
<feComposite in2="SourceAlpha" operator="in" result="effect1_backgroundBlur_17_595"/>
<feBlend mode="normal" in="SourceGraphic" in2="effect1_backgroundBlur_17_595" result="shape"/>
<feColorMatrix in="SourceAlpha" type="matrix" values="0 0 0 0 0 0 0 0 0 0 0 0 0 0 0 0 0 0 127 0" result="hardAlpha"/>
<feOffset dy="4.33847"/>
<feGaussianBlur stdDeviation="3.25385"/>
<feComposite in2="hardAlpha" operator="arithmetic" k2="-1" k3="1"/>
<feColorMatrix type="matrix" values="0 0 0 0 1 0 0 0 0 1 0 0 0 0 1 0 0 0 0.4 0"/>
<feBlend mode="normal" in2="shape" result="effect2_innerShadow_17_595"/>
</filter>
<filter id="filter9_bi_17_595" x="28.9201" y="119.377" width="41.1524" height="51.6568" filterUnits="userSpaceOnUse" color-interpolation-filters="sRGB">
<feFlood flood-opacity="0" result="BackgroundImageFix"/>
<feGaussianBlur in="BackgroundImageFix" stdDeviation="6.5077"/>
<feComposite in2="SourceAlpha" operator="in" result="effect1_backgroundBlur_17_595"/>
<feBlend mode="normal" in="SourceGraphic" in2="effect1_backgroundBlur_17_595" result="shape"/>
<feColorMatrix in="SourceAlpha" type="matrix" values="0 0 0 0 0 0 0 0 0 0 0 0 0 0 0 0 0 0 127 0" result="hardAlpha"/>
<feOffset dy="4.33847"/>
<feGaussianBlur stdDeviation="3.25385"/>
<feComposite in2="hardAlpha" operator="arithmetic" k2="-1" k3="1"/>
<feColorMatrix type="matrix" values="0 0 0 0 1 0 0 0 0 1 0 0 0 0 1 0 0 0 0.4 0"/>
<feBlend mode="normal" in2="shape" result="effect2_innerShadow_17_595"/>
</filter>
<filter id="filter10_bi_17_595" x="44.0408" y="119.377" width="41.1524" height="51.6568" filterUnits="userSpaceOnUse" color-interpolation-filters="sRGB">
<feFlood flood-opacity="0" result="BackgroundImageFix"/>
<feGaussianBlur in="BackgroundImageFix" stdDeviation="6.5077"/>
<feComposite in2="SourceAlpha" operator="in" result="effect1_backgroundBlur_17_595"/>
<feBlend mode="normal" in="SourceGraphic" in2="effect1_backgroundBlur_17_595" result="shape"/>
<feColorMatrix in="SourceAlpha" type="matrix" values="0 0 0 0 0 0 0 0 0 0 0 0 0 0 0 0 0 0 127 0" result="hardAlpha"/>
<feOffset dy="4.33847"/>
<feGaussianBlur stdDeviation="3.25385"/>
<feComposite in2="hardAlpha" operator="arithmetic" k2="-1" k3="1"/>
<feColorMatrix type="matrix" values="0 0 0 0 1 0 0 0 0 1 0 0 0 0 1 0 0 0 0.4 0"/>
<feBlend mode="normal" in2="shape" result="effect2_innerShadow_17_595"/>
</filter>
<filter id="filter11_bi_17_595" x="68.9575" y="83.1541" width="71.8683" height="71.8684" filterUnits="userSpaceOnUse" color-interpolation-filters="sRGB">
<feFlood flood-opacity="0" result="BackgroundImageFix"/>
<feGaussianBlur in="BackgroundImageFix" stdDeviation="8.29251"/>
<feComposite in2="SourceAlpha" operator="in" result="effect1_backgroundBlur_17_595"/>
<feBlend mode="normal" in="SourceGraphic" in2="effect1_backgroundBlur_17_595" result="shape"/>
<feColorMatrix in="SourceAlpha" type="matrix" values="0 0 0 0 0 0 0 0 0 0 0 0 0 0 0 0 0 0 127 0" result="hardAlpha"/>
<feOffset dy="5.52834"/>
<feGaussianBlur stdDeviation="4.14626"/>
<feComposite in2="hardAlpha" operator="arithmetic" k2="-1" k3="1"/>
<feColorMatrix type="matrix" values="0 0 0 0 1 0 0 0 0 1 0 0 0 0 1 0 0 0 0.4 0"/>
<feBlend mode="normal" in2="shape" result="effect2_innerShadow_17_595"/>
</filter>
<linearGradient id="paint0_linear_17_595" x1="45.8801" y1="89.6843" x2="72.59" y2="92.9168" gradientUnits="userSpaceOnUse">
<stop stop-color="#8AE6CF"/>
<stop offset="1" stop-color="#26C6A2"/>
</linearGradient>
<linearGradient id="paint1_linear_17_595" x1="45.8801" y1="89.6843" x2="72.59" y2="92.9168" gradientUnits="userSpaceOnUse">
<stop stop-color="#8AE6CF"/>
<stop offset="1" stop-color="#26C6A2"/>
</linearGradient>
<linearGradient id="paint2_linear_17_595" x1="45.8801" y1="89.6843" x2="72.59" y2="92.9168" gradientUnits="userSpaceOnUse">
<stop stop-color="#8AE6CF"/>
<stop offset="1" stop-color="#26C6A2"/>
</linearGradient>
<linearGradient id="paint3_linear_17_595" x1="45.8801" y1="89.6843" x2="72.59" y2="92.9168" gradientUnits="userSpaceOnUse">
<stop stop-color="#8AE6CF"/>
<stop offset="1" stop-color="#0E9576"/>
</linearGradient>
<linearGradient id="paint4_linear_17_595" x1="45.8801" y1="89.6843" x2="72.59" y2="92.9168" gradientUnits="userSpaceOnUse">
<stop stop-color="#8AE6CF"/>
<stop offset="1" stop-color="#0E9576"/>
</linearGradient>
<linearGradient id="paint5_linear_17_595" x1="45.8801" y1="89.6843" x2="72.59" y2="92.9168" gradientUnits="userSpaceOnUse">
<stop stop-color="#8AE6CF"/>
<stop offset="1" stop-color="#0E9576"/>
</linearGradient>
<linearGradient id="paint6_linear_17_595" x1="43.3924" y1="84.3665" x2="74.8931" y2="91.5374" gradientUnits="userSpaceOnUse">
<stop stop-color="#66FECB"/>
<stop offset="1" stop-color="#33D8B3"/>
</linearGradient>
<linearGradient id="paint7_linear_17_595" x1="42.5656" y1="94.9345" x2="59.2553" y2="96.3024" gradientUnits="userSpaceOnUse">
<stop stop-color="#66FECB"/>
<stop offset="1" stop-color="#33D8B3"/>
</linearGradient>
<linearGradient id="paint8_linear_17_595" x1="57.6862" y1="94.9345" x2="74.3759" y2="96.3024" gradientUnits="userSpaceOnUse">
<stop stop-color="#66FECB"/>
<stop offset="1" stop-color="#33D8B3"/>
</linearGradient>
<linearGradient id="paint9_linear_17_595" x1="45.8801" y1="132.267" x2="72.59" y2="135.5" gradientUnits="userSpaceOnUse">
<stop stop-color="#8AE6CF"/>
<stop offset="1" stop-color="#26C6A2"/>
</linearGradient>
<linearGradient id="paint10_linear_17_595" x1="45.8801" y1="132.267" x2="72.59" y2="135.5" gradientUnits="userSpaceOnUse">
<stop stop-color="#8AE6CF"/>
<stop offset="1" stop-color="#26C6A2"/>
</linearGradient>
<linearGradient id="paint11_linear_17_595" x1="45.8801" y1="132.267" x2="72.59" y2="135.5" gradientUnits="userSpaceOnUse">
<stop stop-color="#8AE6CF"/>
<stop offset="1" stop-color="#26C6A2"/>
</linearGradient>
<linearGradient id="paint12_linear_17_595" x1="45.8801" y1="132.267" x2="72.59" y2="135.5" gradientUnits="userSpaceOnUse">
<stop stop-color="#8AE6CF"/>
<stop offset="1" stop-color="#0E9576"/>
</linearGradient>
<linearGradient id="paint13_linear_17_595" x1="45.8801" y1="132.267" x2="72.59" y2="135.5" gradientUnits="userSpaceOnUse">
<stop stop-color="#8AE6CF"/>
<stop offset="1" stop-color="#0E9576"/>
</linearGradient>
<linearGradient id="paint14_linear_17_595" x1="45.8801" y1="132.267" x2="72.59" y2="135.5" gradientUnits="userSpaceOnUse">
<stop stop-color="#8AE6CF"/>
<stop offset="1" stop-color="#0E9576"/>
</linearGradient>
<linearGradient id="paint15_linear_17_595" x1="43.3924" y1="126.949" x2="74.8931" y2="134.12" gradientUnits="userSpaceOnUse">
<stop stop-color="#66FECB"/>
<stop offset="1" stop-color="#33D8B3"/>
</linearGradient>
<linearGradient id="paint16_linear_17_595" x1="42.5656" y1="137.517" x2="59.2553" y2="138.885" gradientUnits="userSpaceOnUse">
<stop stop-color="#66FECB"/>
<stop offset="1" stop-color="#33D8B3"/>
</linearGradient>
<linearGradient id="paint17_linear_17_595" x1="57.6862" y1="137.517" x2="74.3759" y2="138.885" gradientUnits="userSpaceOnUse">
<stop stop-color="#66FECB"/>
<stop offset="1" stop-color="#33D8B3"/>
</linearGradient>
<linearGradient id="paint18_linear_17_595" x1="92.2225" y1="110.796" x2="122.354" y2="114.981" gradientUnits="userSpaceOnUse">
<stop stop-color="#8AE6CF"/>
<stop offset="1" stop-color="#1ABC9F"/>
</linearGradient>
<linearGradient id="paint19_linear_17_595" x1="87.1549" y1="107.479" x2="129.339" y2="113.338" gradientUnits="userSpaceOnUse">
<stop stop-color="#66FECB"/>
<stop offset="1" stop-color="#1DE4D8"/>
</linearGradient>
<clipPath id="clip0_17_595">
<rect width="82.5" height="82.5" fill="white" transform="translate(42 78)"/>
</clipPath>
</defs>
</svg>
