<svg width="65" height="45" viewBox="0 0 65 45" fill="none" xmlns="http://www.w3.org/2000/svg">
<g clip-path="url(#clip0_26_5)">
<path d="M25.012 0.52002H30.688V16.468H28.563C26.012 16.468 24.077 17.515 22.803 19.409C21.547 21.274 20.961 23.914 20.961 27.074V43.52H0.5V24.742C0.5 17.145 2.746 11.104 6.896 6.96402C11.045 2.82302 17.158 0.52002 25.012 0.52002ZM58.824 0.52002H64.5V16.468H62.375C59.825 16.468 57.889 17.515 56.615 19.409C55.359 21.274 54.773 23.914 54.773 27.074V43.52H34.313V24.742C34.313 17.145 36.559 11.104 40.708 6.96402C44.858 2.82302 50.97 0.52002 58.824 0.52002Z" stroke="#A7A7A7"/>
</g>
<defs>
<clipPath id="clip0_26_5">
<rect width="65" height="45" fill="white"/>
</clipPath>
</defs>
</svg>
