<svg width="32" height="32" viewBox="0 0 32 32" fill="none" xmlns="http://www.w3.org/2000/svg">
<path fill-rule="evenodd" clip-rule="evenodd" d="M4.13077 12.815C3.40943 12.623 2.95877 13.2043 2.88543 13.6016C2.70277 14.595 2.66277 15.4563 2.66677 16.087C2.7121 22.927 8.2041 29.327 16.0028 29.327C19.4268 29.327 22.6814 27.9976 25.1201 25.7163L24.4841 28.0763C24.3401 28.6096 24.6588 29.1576 25.1908 29.3003C25.7241 29.4416 26.2734 29.1256 26.4161 28.5936L27.5828 24.2723C27.7254 23.739 27.4081 23.191 26.8761 23.047L22.5761 21.895C22.0441 21.7523 21.4948 22.0683 21.3508 22.6016C21.2094 23.135 21.5254 23.6843 22.0574 23.827L23.7254 24.2816C21.6574 26.207 18.9001 27.327 16.0028 27.327C9.4681 27.327 4.66677 21.9603 4.66677 16.0003C4.66677 15.2179 4.73107 14.7891 4.8152 14.2282C4.82799 14.143 4.84123 14.0547 4.85477 13.9616C4.94677 13.4496 4.63343 12.951 4.13077 12.815ZM27.8708 19.1883C28.5921 19.3803 29.0428 18.799 29.1148 18.4016C29.2254 17.8096 29.3334 16.967 29.3334 16.0016C29.3334 9.11497 23.8174 2.67497 15.9974 2.67497C12.5748 2.67497 9.31877 4.0043 6.87877 6.28564L7.5161 3.92697C7.65877 3.3923 7.34143 2.84564 6.8081 2.70164C6.27477 2.55897 5.72677 2.8763 5.5841 3.40964L4.41743 7.73097C4.27477 8.2643 4.59077 8.8123 5.1241 8.95497L9.4241 10.107C9.95743 10.2496 10.5054 9.93364 10.6494 9.4003C10.7921 8.86697 10.4748 8.31897 9.94143 8.1763L8.27343 7.72164C10.3441 5.7963 13.1014 4.67497 15.9988 4.67497C22.5201 4.67497 27.3321 10.0296 27.3321 16.0016C27.3321 16.7813 27.2625 17.2532 27.1855 17.7753C27.1727 17.8621 27.1597 17.9504 27.1468 18.0416C27.0521 18.5536 27.3668 19.0523 27.8708 19.1883Z" fill="#292C4D"/>
<path d="M10.0801 17.41L13.9788 20.7473C14.1681 20.918 14.4068 21.0007 14.6441 21.0007C14.9134 21.0007 15.1841 20.8927 15.3801 20.678L21.9841 13.3327C22.1588 13.142 22.2454 12.902 22.2454 12.6633C22.2454 12.1167 21.8041 11.6673 21.2481 11.6673C20.9761 11.6673 20.7081 11.7767 20.5094 11.9913L14.5721 18.6073L11.4108 15.926C11.2188 15.7567 10.9828 15.6727 10.7454 15.6727C10.1921 15.6727 9.7481 16.1193 9.7481 16.6673C9.7481 16.9407 9.8601 17.2127 10.0801 17.41Z" fill="#4693FF"/>
</svg>
