<svg width="30" height="29" viewBox="0 0 30 29" fill="none" xmlns="http://www.w3.org/2000/svg">
<g clip-path="url(#clip0_1_251)">
<path d="M19.964 11.3354L14.6827 8.43972L9.40128 5.54405L4.58301 8.31255L15.0017 14.0246L19.964 11.3354Z" fill="#ACCDFB"/>
<path d="M10.5734 4.87089L21.1705 10.6809L25.416 8.38022L14.9962 2.33105L10.5734 4.87089Z" fill="#ACCDFB"/>
<path fill-rule="evenodd" clip-rule="evenodd" d="M27.1875 8.077V22.1528L14.9994 29L2.8125 22.1528V8L14.9994 1L27.1875 8.077ZM3.9204 21.4528L14.4455 27.3667V15.035L3.9204 9.26467V21.4528ZM26.0796 9.3335L15.5534 15.0373V27.3667L26.0796 21.4528V9.3335ZM19.964 11.3355L9.40121 5.54417L4.58293 8.31267L15.0017 14.0247L19.964 11.3355ZM10.5734 4.871L21.1705 10.681L25.416 8.38033L14.9961 2.33117L10.5734 4.871Z" fill="#031527" stroke="black"/>
</g>
<defs>
<clipPath id="clip0_1_251">
<rect width="30" height="29" fill="white"/>
</clipPath>
</defs>
</svg>
