<svg width="28" height="27" viewBox="0 0 28 27" fill="none" xmlns="http://www.w3.org/2000/svg">
<g clip-path="url(#clip0_1_264)">
<path d="M11.9927 14.6484C12.4698 15.2863 13.0786 15.8142 13.7777 16.1961C14.4768 16.5781 15.2499 16.8052 16.0445 16.8621C16.8391 16.919 17.6367 16.8044 18.3831 16.5259C19.1295 16.2475 19.8073 15.8118 20.3705 15.2484L23.7038 11.9151C24.7158 10.8673 25.2757 9.46393 25.2631 8.00728C25.2504 6.55063 24.6662 5.15723 23.6361 4.12718C22.6061 3.09714 21.2127 2.51287 19.756 2.50021C18.2994 2.48755 16.896 3.04752 15.8482 4.05951L13.9371 5.95951M16.4371 12.4262C15.96 11.7883 15.3512 11.2604 14.6521 10.8785C13.953 10.4965 13.1799 10.2694 12.3853 10.2125C11.5907 10.1556 10.7931 10.2702 10.0467 10.5486C9.30034 10.8271 8.62255 11.2628 8.05935 11.8262L4.72601 15.1595C3.71402 16.2073 3.15406 17.6106 3.16671 19.0673C3.17937 20.5239 3.76364 21.9173 4.79369 22.9474C5.82373 23.9774 7.21714 24.5617 8.67378 24.5744C10.1304 24.587 11.5338 24.0271 12.5816 23.0151L14.4816 21.1151" stroke="#4693FF" stroke-width="3" stroke-linecap="round" stroke-linejoin="round"/>
<path d="M11.9927 14.6484C12.4698 15.2863 13.0786 15.8142 13.7777 16.1961C14.4768 16.5781 15.2499 16.8052 16.0445 16.8621C16.8391 16.919 17.6367 16.8044 18.3831 16.5259C19.1295 16.2475 19.8072 15.8118 20.3705 15.2484L23.7038 11.9151C24.7158 10.8673 25.2757 9.46393 25.2631 8.00728C25.2504 6.55063 24.6662 5.15723 23.6361 4.12718C22.6061 3.09714 21.2127 2.51287 19.756 2.50021C18.2994 2.48755 16.896 3.04752 15.8482 4.05951L13.9371 5.95951" stroke="#292C4D" stroke-width="3" stroke-linecap="round" stroke-linejoin="round"/>
</g>
<defs>
<clipPath id="clip0_1_264">
<rect width="26.6667" height="26.6667" fill="white" transform="translate(0.666504)"/>
</clipPath>
</defs>
</svg>
