<svg width="32" height="32" viewBox="0 0 32 32" fill="none" xmlns="http://www.w3.org/2000/svg">
<path fill-rule="evenodd" clip-rule="evenodd" d="M4.13052 12.8147C3.40919 12.6227 2.95852 13.2041 2.88519 13.6014C2.70252 14.5947 2.66252 15.4561 2.66652 16.0867C2.71186 22.9267 8.20386 29.3267 16.0025 29.3267C19.4265 29.3267 22.6812 27.9974 25.1199 25.7161L24.4839 28.0761C24.3399 28.6094 24.6585 29.1574 25.1905 29.3001C25.7239 29.4414 26.2732 29.1254 26.4159 28.5934L27.5825 24.2721C27.7252 23.7387 27.4079 23.1907 26.8759 23.0467L22.5759 21.8947C22.0439 21.7521 21.4945 22.0681 21.3505 22.6014C21.2092 23.1347 21.5252 23.6841 22.0572 23.8267L23.7252 24.2814C21.6572 26.2067 18.8999 27.3267 16.0025 27.3267C9.46786 27.3267 4.66652 21.9601 4.66652 16.0001C4.66652 15.2176 4.73083 14.7889 4.81496 14.2279C4.82774 14.1427 4.84098 14.0544 4.85452 13.9614C4.94652 13.4494 4.63319 12.9507 4.13052 12.8147ZM27.8705 19.1881C28.5919 19.3801 29.0425 18.7987 29.1145 18.4014C29.2252 17.8094 29.3332 16.9667 29.3332 16.0014C29.3332 9.11473 23.8172 2.67473 15.9972 2.67473C12.5745 2.67473 9.31852 4.00406 6.87852 6.28539L7.51586 3.92673C7.65852 3.39206 7.34119 2.84539 6.80786 2.70139C6.27452 2.55873 5.72652 2.87606 5.58386 3.40939L4.41719 7.73073C4.27452 8.26406 4.59052 8.81206 5.12386 8.95473L9.42386 10.1067C9.95719 10.2494 10.5052 9.93339 10.6492 9.40006C10.7919 8.86673 10.4745 8.31873 9.94119 8.17606L8.27319 7.72139C10.3439 5.79606 13.1012 4.67473 15.9985 4.67473C22.5199 4.67473 27.3319 10.0294 27.3319 16.0014C27.3319 16.781 27.2623 17.2529 27.1853 17.775C27.1725 17.8619 27.1595 17.9501 27.1465 18.0414C27.0519 18.5534 27.3665 19.0521 27.8705 19.1881Z" fill="#292C4D"/>
<path d="M10.0803 17.4102L13.979 20.7476C14.1683 20.9182 14.407 21.0009 14.6443 21.0009C14.9137 21.0009 15.1843 20.8929 15.3803 20.6782L21.9843 13.3329C22.159 13.1422 22.2457 12.9022 22.2457 12.6636C22.2457 12.1169 21.8043 11.6676 21.2483 11.6676C20.9763 11.6676 20.7083 11.7769 20.5097 11.9916L14.5723 18.6076L11.411 15.9262C11.219 15.7569 10.983 15.6729 10.7457 15.6729C10.1923 15.6729 9.74835 16.1196 9.74835 16.6676C9.74835 16.9409 9.86035 17.2129 10.0803 17.4102Z" fill="#4693FF"/>
</svg>
