<svg width="32" height="32" viewBox="0 0 32 32" fill="none" xmlns="http://www.w3.org/2000/svg">
<path fill-rule="evenodd" clip-rule="evenodd" d="M29 9.077V23.1528L15.9994 30L3 23.1528V9L15.9994 2L29 9.077ZM4.18176 22.4528L15.4085 28.3667V16.035L4.18176 10.2647V22.4528ZM27.8182 10.3335L16.5903 16.0373V28.3667L27.8182 22.4528V10.3335ZM21.2949 12.3355L10.028 6.54417L4.88846 9.31267L16.0018 15.0247L21.2949 12.3355ZM11.2783 5.871L22.5818 11.681L27.1104 9.38033L15.9959 3.33117L11.2783 5.871Z" fill="#292C4D"/>
<path d="M21.2949 12.3355L10.028 6.54417L4.88846 9.31267L16.0018 15.0247L21.2949 12.3355Z" fill="#ACCDFB"/>
<path d="M11.2783 5.871L22.5818 11.681L27.1104 9.38033L15.9959 3.33117L11.2783 5.871Z" fill="#ACCDFB"/>
</svg>
