<svg width="28" height="28" viewBox="0 0 28 28" fill="none" xmlns="http://www.w3.org/2000/svg">
<path fill-rule="evenodd" clip-rule="evenodd" d="M4.10889 11.3454C3.50778 11.1854 3.13223 11.6698 3.07111 12.001C2.91889 12.8287 2.88556 13.5465 2.88889 14.0721C2.92667 19.7721 7.50334 25.1054 14.0022 25.1054C16.8556 25.1054 19.5678 23.9976 21.6 22.0965L21.07 24.0632C20.95 24.5076 21.2156 24.9643 21.6589 25.0832C22.1033 25.201 22.5611 24.9376 22.68 24.4943L23.6522 20.8932C23.7711 20.4487 23.5067 19.9921 23.0633 19.8721L19.48 18.9121C19.0367 18.7932 18.5789 19.0565 18.4589 19.501C18.3411 19.9454 18.6044 20.4032 19.0478 20.5221L20.4378 20.901C18.7144 22.5054 16.4167 23.4387 14.0022 23.4387C8.55667 23.4387 4.55556 18.9665 4.55556 13.9998C4.55556 13.3478 4.60915 12.9905 4.67925 12.5231C4.68991 12.4521 4.70094 12.3785 4.71223 12.301C4.78889 11.8743 4.52778 11.4587 4.10889 11.3454ZM23.8922 16.6565C24.4933 16.8165 24.8689 16.3321 24.9289 16.001C25.0211 15.5076 25.1111 14.8054 25.1111 14.001C25.1111 8.26207 20.5144 2.8954 13.9978 2.8954C11.1456 2.8954 8.43223 4.00318 6.39889 5.90429L6.93 3.93874C7.04889 3.49318 6.78445 3.03762 6.34 2.91762C5.89556 2.79874 5.43889 3.06318 5.32 3.50762L4.34778 7.10874C4.22889 7.55318 4.49223 8.00985 4.93667 8.12874L8.52 9.08874C8.96445 9.20763 9.42111 8.94429 9.54111 8.49985C9.66 8.0554 9.39556 7.59874 8.95111 7.47985L7.56111 7.10096C9.28667 5.49651 11.5844 4.56207 13.9989 4.56207C19.4333 4.56207 23.4433 9.02429 23.4433 14.001C23.4433 14.6507 23.3853 15.0439 23.3212 15.479C23.3105 15.5514 23.2997 15.6249 23.2889 15.701C23.21 16.1276 23.4722 16.5432 23.8922 16.6565Z" fill="#292C4D" stroke="#292C4D"/>
<path d="M9.06671 15.1752L12.3156 17.9563C12.4734 18.0985 12.6723 18.1674 12.87 18.1674C13.0945 18.1674 13.32 18.0774 13.4834 17.8985L18.9867 11.7774C19.1323 11.6185 19.2045 11.4185 19.2045 11.2196C19.2045 10.7641 18.8367 10.3896 18.3734 10.3896C18.1467 10.3896 17.9234 10.4808 17.7578 10.6596L12.81 16.173L10.1756 13.9385C10.0156 13.7974 9.81893 13.7274 9.62115 13.7274C9.16004 13.7274 8.79004 14.0996 8.79004 14.5563C8.79004 14.7841 8.88337 15.0108 9.06671 15.1752Z" fill="#4693FF" stroke="#4693FF"/>
</svg>
