<svg width="32" height="32" viewBox="0 0 32 32" fill="none" xmlns="http://www.w3.org/2000/svg">
<path d="M13.5914 17.5781C14.164 18.3436 14.8946 18.977 15.7335 19.4353C16.5724 19.8937 17.5001 20.1662 18.4536 20.2345C19.4071 20.3028 20.3642 20.1652 21.2599 19.8311C22.1555 19.497 22.9689 18.9742 23.6447 18.2981L27.6447 14.2981C28.8591 13.0407 29.5311 11.3567 29.5159 9.60874C29.5007 7.86076 28.7996 6.18868 27.5635 4.95262C26.3275 3.71657 24.6554 3.01544 22.9074 3.00025C21.1594 2.98506 19.4754 3.65703 18.2181 4.87141L15.9247 7.15141M18.9247 14.9114C18.3521 14.1459 17.6216 13.5125 16.7827 13.0542C15.9438 12.5958 15.0161 12.3233 14.0625 12.255C13.109 12.1867 12.152 12.3243 11.2563 12.6584C10.3606 12.9925 9.54726 13.5153 8.87141 14.1914L4.87141 18.1914C3.65703 19.4488 2.98506 21.1328 3.00025 22.8808C3.01544 24.6287 3.71657 26.3008 4.95262 27.5369C6.18868 28.7729 7.86076 29.4741 9.60874 29.4892C11.3567 29.5044 13.0407 28.8325 14.2981 27.6181L16.5781 25.3381" stroke="#4693FF" stroke-width="2" stroke-linecap="round" stroke-linejoin="round"/>
<path d="M13.5913 17.5781C14.1639 18.3436 14.8945 18.977 15.7334 19.4353C16.5723 19.8937 17.5 20.1662 18.4535 20.2345C19.407 20.3028 20.3641 20.1652 21.2598 19.8311C22.1554 19.497 22.9688 18.9742 23.6446 18.2981L27.6446 14.2981C28.859 13.0407 29.531 11.3567 29.5158 9.60874C29.5006 7.86076 28.7995 6.18868 27.5634 4.95262C26.3274 3.71657 24.6553 3.01544 22.9073 3.00025C21.1593 2.98506 19.4753 3.65703 18.218 4.87141L15.9246 7.15141" stroke="#292C4D" stroke-width="2" stroke-linecap="round" stroke-linejoin="round"/>
</svg>
