<svg width="24" height="25" viewBox="0 0 24 25" fill="none" xmlns="http://www.w3.org/2000/svg">
<g clip-path="url(#clip0_26_277)">
<path fill-rule="evenodd" clip-rule="evenodd" d="M3.09795 9.73269C2.55695 9.58869 2.21895 10.0247 2.16395 10.3227C2.02695 11.0677 1.99695 11.7137 1.99995 12.1867C2.03395 17.3167 6.15295 22.1167 12.002 22.1167C14.57 22.1167 17.011 21.1197 18.84 19.4087L18.363 21.1787C18.255 21.5787 18.494 21.9897 18.893 22.0967C19.293 22.2027 19.705 21.9657 19.812 21.5667L20.687 18.3257C20.794 17.9257 20.556 17.5147 20.157 17.4067L16.932 16.5427C16.533 16.4357 16.121 16.6727 16.013 17.0727C15.907 17.4727 16.144 17.8847 16.543 17.9917L17.794 18.3327C16.243 19.7767 14.175 20.6167 12.002 20.6167C7.10095 20.6167 3.49995 16.5917 3.49995 12.1217C3.49995 11.5349 3.54818 11.2133 3.61128 10.7926C3.62087 10.7287 3.6308 10.6625 3.64095 10.5927C3.70995 10.2087 3.47495 9.83469 3.09795 9.73269ZM20.903 14.5127C21.444 14.6567 21.782 14.2207 21.836 13.9227C21.919 13.4787 22 12.8467 22 12.1227C22 6.95769 17.863 2.12769 11.998 2.12769C9.43095 2.12769 6.98895 3.12469 5.15895 4.83569L5.63695 3.06669C5.74395 2.66569 5.50595 2.25569 5.10595 2.14769C4.70595 2.04069 4.29495 2.27869 4.18795 2.67869L3.31295 5.91969C3.20595 6.31969 3.44295 6.73069 3.84295 6.83769L7.06795 7.70169C7.46795 7.80869 7.87895 7.57169 7.98695 7.17169C8.09395 6.77169 7.85595 6.36069 7.45595 6.25369L6.20495 5.91269C7.75795 4.46869 9.82595 3.62769 11.999 3.62769C16.89 3.62769 20.499 7.64369 20.499 12.1227C20.499 12.7074 20.4468 13.0613 20.389 13.4529C20.3794 13.518 20.3697 13.5842 20.36 13.6527C20.289 14.0367 20.525 14.4107 20.903 14.5127Z" fill="white"/>
<path d="M7.5602 13.1792L10.4842 15.6822C10.6262 15.8102 10.8052 15.8722 10.9832 15.8722C11.1852 15.8722 11.3882 15.7912 11.5352 15.6302L16.4882 10.1212C16.6192 9.9782 16.6842 9.7982 16.6842 9.6192C16.6842 9.2092 16.3532 8.8722 15.9362 8.8722C15.7322 8.8722 15.5312 8.9542 15.3822 9.1152L10.9292 14.0772L8.5582 12.0662C8.4142 11.9392 8.2372 11.8762 8.0592 11.8762C7.6442 11.8762 7.3112 12.2112 7.3112 12.6222C7.3112 12.8272 7.3952 13.0312 7.5602 13.1792Z" fill="white"/>
</g>
<defs>
<clipPath id="clip0_26_277">
<rect width="24" height="24" fill="white" transform="translate(0 0.133301)"/>
</clipPath>
</defs>
</svg>
