<svg width="24" height="24" viewBox="0 0 24 24" fill="none" xmlns="http://www.w3.org/2000/svg">
<path d="M10.3909 12.8171C10.7364 13.2794 11.1772 13.662 11.6835 13.9389C12.1897 14.2157 12.7494 14.3803 13.3248 14.4216C13.9002 14.4628 14.4777 14.3797 15.0181 14.1779C15.5586 13.9761 16.0493 13.6603 16.4572 13.252L18.8708 10.8359C19.6035 10.0765 20.009 9.05928 19.9998 8.00348C19.9907 6.94768 19.5676 5.93772 18.8218 5.19113C18.0759 4.44454 17.067 4.02105 16.0122 4.01187C14.9575 4.0027 13.9414 4.40857 13.1827 5.14208L11.7989 6.51923M13.6091 11.2064C13.2636 10.744 12.8228 10.3614 12.3165 10.0846C11.8103 9.80772 11.2506 9.64309 10.6752 9.60184C10.0998 9.56059 9.52235 9.64369 8.98189 9.8455C8.44143 10.0473 7.95065 10.3631 7.54284 10.7715L5.12922 13.1875C4.39645 13.947 3.99099 14.9642 4.00015 16.02C4.00932 17.0758 4.43238 18.0857 5.17822 18.8323C5.92407 19.5789 6.93301 20.0024 7.98775 20.0116C9.04249 20.0207 10.0586 19.6149 10.8173 18.8814L12.1931 17.5042" stroke="white" stroke-linecap="round" stroke-linejoin="round"/>
</svg>
