<svg width="214" height="214" viewBox="0 0 214 214" fill="none" xmlns="http://www.w3.org/2000/svg">
<g filter="url(#filter0_d_216_1248)">
<circle cx="107" cy="103" r="90" fill="white"/>
<g clip-path="url(#clip0_216_1248)">
<path d="M90.5298 62.7646C84.411 62.7646 80.7334 66.5374 80.7334 71.2295C80.7334 75.9216 84.411 79.6626 90.5298 79.6626C96.6485 79.6626 100.326 75.8899 100.326 71.2295C100.326 66.5691 96.6485 62.7646 90.5298 62.7646ZM90.5298 77.8555C87.613 77.8555 85.3621 74.8754 85.3621 71.2295C85.3621 67.5836 87.5813 64.6034 90.5298 64.6034C93.4782 64.6034 95.6974 67.5836 95.6974 71.2295C95.6974 74.8754 93.4782 77.8555 90.5298 77.8555Z" fill="#ED1C24"/>
<path d="M101.15 65.2689H107.586V78.9648H112.469V65.2689H117.89V63.3984H101.15V65.2689Z" fill="#ED1C24"/>
<path d="M119.665 65.2689H125.086V78.9648H129.937V65.2689H136.404V63.3984H119.665V65.2689Z" fill="#ED1C24"/>
<path d="M71.0955 76.1749V63.3984H66.4351V77.0943C66.4351 78.1088 67.2593 78.9648 68.2739 78.9648H80.1944V77.0943H72.0149C71.5076 77.0943 71.0955 76.6822 71.0955 76.1749Z" fill="#ED1C24"/>
<path d="M144.616 65.2372H153.588V63.3984H140.875C139.86 63.3984 139.004 64.2227 139.004 65.2372V77.0943C139.004 78.1088 139.829 78.9331 140.875 78.9331H153.588V77.0943H144.616C144.109 77.0943 143.697 76.6822 143.697 76.1749V71.5779H153.429V69.7391H143.697V66.1566C143.697 65.6494 144.109 65.2372 144.616 65.2372Z" fill="#ED1C24"/>
<path d="M86.6938 91.2659C72.1736 91.2659 60.4116 103.028 60.4116 117.548C60.4116 132.068 72.1736 143.83 86.6938 143.83C101.214 143.83 112.976 132.068 112.976 117.548C112.976 103.028 101.214 91.2659 86.6938 91.2659ZM86.6938 131.846C78.7996 131.846 72.3955 125.442 72.3955 117.548C72.3955 109.654 78.7996 103.25 86.6938 103.25C94.5879 103.25 100.992 109.654 100.992 117.548C100.992 125.442 94.5879 131.846 86.6938 131.846Z" fill="#ED1C24"/>
<path d="M141.953 95.1653V118.689L124.389 95.1653H113.198V104.137C115.512 108.069 116.939 112.634 116.939 117.548C116.939 122.462 115.481 127.154 113.071 131.117V139.772H124.675V115.17L143.063 139.772H153.62V95.1653H141.985H141.953Z" fill="#ED1C24"/>
</g>
</g>
<defs>
<filter id="filter0_d_216_1248" x="0" y="0" width="214" height="214" filterUnits="userSpaceOnUse" color-interpolation-filters="sRGB">
<feFlood flood-opacity="0" result="BackgroundImageFix"/>
<feColorMatrix in="SourceAlpha" type="matrix" values="0 0 0 0 0 0 0 0 0 0 0 0 0 0 0 0 0 0 127 0" result="hardAlpha"/>
<feOffset dy="4"/>
<feGaussianBlur stdDeviation="8.5"/>
<feComposite in2="hardAlpha" operator="out"/>
<feColorMatrix type="matrix" values="0 0 0 0 0.490196 0 0 0 0 0.337255 0 0 0 0 0.815686 0 0 0 0.05 0"/>
<feBlend mode="normal" in2="BackgroundImageFix" result="effect1_dropShadow_216_1248"/>
<feBlend mode="normal" in="SourceGraphic" in2="effect1_dropShadow_216_1248" result="shape"/>
</filter>
<clipPath id="clip0_216_1248">
<rect width="93.1765" height="81.0658" fill="white" transform="translate(60.4116 62.7646)"/>
</clipPath>
</defs>
</svg>
