<svg width="214" height="214" viewBox="0 0 214 214" fill="none" xmlns="http://www.w3.org/2000/svg">
<g filter="url(#filter0_d_216_1247)">
<circle cx="107" cy="103" r="90" fill="white"/>
<g clip-path="url(#clip0_216_1247)">
<path d="M123.946 86.0588C114.356 86.0588 106.615 93.8385 106.615 103.39C106.615 112.941 114.356 120.721 123.946 120.721C133.535 120.721 141.277 112.98 141.277 103.39C141.277 93.8 133.535 86.0588 123.946 86.0588ZM123.946 111.901C119.286 111.901 115.434 108.088 115.434 103.39C115.434 98.6911 119.247 94.8783 123.946 94.8783C128.644 94.8783 132.457 98.6911 132.457 103.39C132.457 108.088 128.644 111.901 123.946 111.901Z" fill="#FF5001"/>
<path d="M68.063 88.3315H37.0214C36.0586 88.3315 36.0586 88.9092 36.0586 88.9092C36.0586 88.9092 36.0586 89.2944 36.4437 89.5254C37.5991 90.0646 38.2538 90.8734 38.4079 92.3754V96.0342C38.4079 96.6504 38.9471 97.1896 39.5633 97.1896H48.2673C48.922 97.1896 49.4226 97.6902 49.4226 98.3064V117.332C49.4226 117.948 49.9233 118.487 50.5395 118.487H57.0868C57.703 118.487 58.2422 117.987 58.2422 117.332V98.3064C58.2422 97.6902 58.7428 97.1896 59.359 97.1896H68.063C68.7177 97.1896 69.2184 96.6504 69.2184 96.0342V89.4869C69.2184 88.8707 68.7177 88.3315 68.063 88.3315Z" fill="#231717"/>
<path d="M177.556 117.255C176.401 116.716 175.746 115.907 175.592 114.366V89.4869C175.592 88.8707 175.091 88.3315 174.475 88.3315H167.928C167.312 88.3315 166.811 88.8322 166.811 89.4869V103.429C166.811 104.045 166.503 104.16 166.118 103.66L154.525 89.2173C154.14 88.7167 153.293 88.3315 152.677 88.3315H145.975C145.359 88.3315 144.858 88.8322 144.858 89.4869V117.332C144.858 117.948 145.359 118.449 145.975 118.449H152.523C153.139 118.449 153.678 117.948 153.678 117.332V103.39C153.678 102.774 154.025 102.658 154.41 103.159L166.156 117.602C166.58 118.064 167.389 118.487 168.005 118.487H177.094C178.057 118.487 178.057 117.91 178.057 117.91C178.057 117.91 178.095 117.524 177.672 117.293L177.556 117.255Z" fill="#231717"/>
<path d="M107.27 117.101C106.384 116.639 105.96 115.945 105.69 114.79L99.0662 89.4099C98.9122 88.7937 98.4115 88.3316 97.9879 88.3316C97.9879 88.3316 97.3331 88.1775 96.5629 89.2559L87.4353 102.196C87.2427 102.466 87.0116 102.581 86.7805 102.581C86.5495 102.581 86.3184 102.466 86.1258 102.196L77.0367 89.2559C76.2665 88.1775 75.6117 88.3316 75.6117 88.3316C75.1496 88.3316 74.6874 88.8323 74.5334 89.4099L67.9476 114.79C67.6395 115.945 67.2159 116.6 66.3301 117.101C65.7139 117.409 65.7139 117.833 65.7139 117.833C65.7139 117.833 65.7139 118.449 66.2531 118.449H74.6489C75.2651 118.449 75.9198 117.948 76.0739 117.37L78.5387 107.973C78.6928 107.357 79.1164 107.28 79.4631 107.819L86.1258 117.293C86.3184 117.563 86.5495 117.679 86.7805 117.679C87.0116 117.679 87.2427 117.563 87.4353 117.293L94.098 107.819C94.4832 107.28 94.9068 107.396 95.0609 107.973L97.5257 117.37C97.6798 117.987 98.3345 118.449 98.9507 118.449H107.347C107.924 118.449 107.886 117.833 107.886 117.833C107.886 117.833 107.886 117.37 107.27 117.101Z" fill="#231717"/>
<path d="M128.567 103.39C128.567 105.932 126.526 107.973 123.984 107.973C121.442 107.973 119.362 105.932 119.362 103.39C119.362 100.848 121.404 98.8069 123.984 98.8069C126.564 98.8069 128.567 100.848 128.567 103.39Z" fill="#231717"/>
</g>
</g>
<defs>
<filter id="filter0_d_216_1247" x="0" y="0" width="214" height="214" filterUnits="userSpaceOnUse" color-interpolation-filters="sRGB">
<feFlood flood-opacity="0" result="BackgroundImageFix"/>
<feColorMatrix in="SourceAlpha" type="matrix" values="0 0 0 0 0 0 0 0 0 0 0 0 0 0 0 0 0 0 127 0" result="hardAlpha"/>
<feOffset dy="4"/>
<feGaussianBlur stdDeviation="8.5"/>
<feComposite in2="hardAlpha" operator="out"/>
<feColorMatrix type="matrix" values="0 0 0 0 0.490196 0 0 0 0 0.337255 0 0 0 0 0.815686 0 0 0 0.05 0"/>
<feBlend mode="normal" in2="BackgroundImageFix" result="effect1_dropShadow_216_1247"/>
<feBlend mode="normal" in="SourceGraphic" in2="effect1_dropShadow_216_1247" result="shape"/>
</filter>
<clipPath id="clip0_216_1247">
<rect width="141.882" height="34.6618" fill="white" transform="translate(36.0586 86.0588)"/>
</clipPath>
</defs>
</svg>
