<svg width="214" height="214" viewBox="0 0 214 214" fill="none" xmlns="http://www.w3.org/2000/svg">
<g filter="url(#filter0_d_216_1236)">
<circle cx="107" cy="103" r="90" fill="white"/>
<g clip-path="url(#clip0_216_1236)">
<path d="M114.083 58.7858L122.174 54.3911L126.337 62.5859L135.333 60.6471L137.039 69.695L146.216 70.3413L145.285 79.5185L153.92 82.7499L150.456 91.2808L157.823 96.7871L152.084 104L157.617 111.367L150.068 116.667L153.274 125.301L144.562 128.274L145.208 137.451L136.005 137.839L134.066 146.835L125.122 144.612L120.701 152.703L112.739 148.05L106.224 154.565L99.9166 147.869L91.8251 152.264L87.6631 144.069L78.6668 146.008L76.9607 136.96L67.7835 136.288L68.7141 127.136L60.0798 123.905L63.5439 115.374L56.1763 109.868L61.9152 102.655L56.3831 95.2619L63.9316 89.9882L60.7002 81.3539L69.438 78.381L68.7917 69.2038L77.9947 68.8161L79.9336 59.8199L88.8781 62.0431L93.2986 53.9516L101.261 58.6048L107.775 52.0903L114.083 58.7858Z" fill="url(#paint0_linear_216_1236)"/>
<path d="M107.749 53.3829L113.437 59.4062L113.928 59.9233L114.548 59.5872L121.813 55.632L125.561 63.0254L125.871 63.6458L126.543 63.4907L134.635 61.7328L136.16 69.876L136.289 70.574L136.987 70.6257L145.234 71.2202L144.407 79.4668L144.329 80.1648L144.975 80.3974L152.731 83.2928L149.603 90.9706L149.344 91.6169L149.913 92.0305L156.531 96.9939L151.386 103.483L150.947 104.025L151.361 104.594L156.324 111.212L149.551 115.969L148.982 116.382L149.215 117.029L152.11 124.784L144.277 127.447L143.605 127.679L143.657 128.377L144.251 136.624L135.979 136.96H135.281L135.126 137.684L133.368 145.775L125.328 143.785L124.656 143.604L124.32 144.224L120.339 151.488L113.204 147.3L112.61 146.939L112.118 147.43L106.25 153.272L100.563 147.249L100.072 146.732L99.4512 147.068L92.187 151.023L88.4386 143.63L88.1284 143.009L87.4563 143.164L79.3648 144.922L77.8396 136.779L77.7104 136.081L77.0124 136.029L68.7658 135.435L69.5931 127.188L69.6706 126.49L69.0243 126.258L61.269 123.362L64.397 115.684L64.6555 115.038L64.0867 114.624L57.4688 109.661L62.6132 103.172L63.0527 102.63L62.6391 102.061L57.6756 95.4429L64.4487 90.6862L65.0174 90.2726L64.7847 89.6263L61.8894 81.871L69.7223 79.2083L70.3945 78.9756L70.3427 78.2776L69.7482 70.0311L78.0206 69.695H78.7185L78.8737 68.9712L80.6315 60.8798L88.6713 62.8703L89.3434 63.0513L89.6795 62.4308L93.6606 55.1666L100.796 59.3545L101.39 59.7164L101.881 59.2253L107.749 53.3829ZM107.775 52.0903L101.261 58.6048L93.2986 53.9516L88.8781 62.0431L79.9336 59.8199L77.9689 68.8161L68.7658 69.2039L69.4121 78.381L60.7002 81.3539L63.9058 89.9883L56.3831 95.2619L61.8894 102.63L56.1763 109.868L63.5439 115.4L60.0798 123.931L68.7141 127.162L67.7835 136.34L76.9607 137.012L78.641 146.06L87.6372 144.095L91.7993 152.316L99.8907 147.895L106.198 154.59L112.713 148.076L120.675 152.729L125.096 144.638L134.04 146.861L136.005 137.865L145.208 137.477L144.562 128.3L153.274 125.327L150.068 116.693L157.591 111.393L152.084 104.025L157.823 96.813L150.456 91.2808L153.92 82.7499L145.285 79.5185L146.216 70.3413L137.039 69.6692L135.359 60.6212L126.362 62.5859L122.2 54.3652L114.109 58.7858L107.775 52.0903Z" fill="url(#paint1_linear_216_1236)"/>
<path d="M78.9255 104.775C78.9255 105.318 79.2874 107.18 81.4847 107.18C83.6821 107.18 84.044 105.292 84.044 104.775V101.001C84.044 100.458 83.6821 98.597 81.4847 98.597C79.2874 98.597 78.9255 100.484 78.9255 101.001V104.775ZM76.3403 101.13C76.3403 100.898 76.3403 99.7344 76.9866 98.6228C77.5812 97.5629 78.8479 96.3738 81.433 96.3738H81.4589C84.044 96.3738 85.3107 97.5629 85.9053 98.6228C86.5516 99.7344 86.5774 100.898 86.5774 101.13V104.698C86.5774 104.931 86.5516 106.094 85.9053 107.205C85.3107 108.265 84.044 109.455 81.4589 109.455H81.433C78.8479 109.455 77.5812 108.265 76.9866 107.205C76.3662 106.094 76.3403 104.931 76.3403 104.698V101.13Z" fill="white"/>
<path d="M75.5907 106.869L75.4873 106.714L73.5485 105.732H73.4709L73.3158 105.809C73.0056 106.482 72.3593 107.18 71.0151 107.18C68.8177 107.18 68.4558 105.292 68.4558 104.775V101.001C68.4558 100.458 68.8177 98.597 71.0151 98.597C72.3593 98.597 73.0315 99.3208 73.3158 99.993L73.4709 100.096H73.5485L75.4873 99.0882L75.5907 98.9331V98.8555L75.4615 98.6228C74.8669 97.5629 73.6002 96.3738 71.0151 96.3738C68.4299 96.3738 67.1632 97.5629 66.5686 98.6228C65.9482 99.7344 65.9224 100.898 65.9224 101.13V104.698C65.9224 104.931 65.9482 106.094 66.5686 107.205C67.1632 108.265 68.4299 109.455 71.0151 109.455H71.0409C73.626 109.455 74.8927 108.265 75.4873 107.205C75.539 107.128 75.5649 107.05 75.6166 106.973V106.895" fill="white"/>
<path d="M98.5725 109.015V96.7872C98.5725 96.7872 98.4949 96.6062 98.3915 96.6062H96.1683C96.1683 96.6062 95.9874 96.6838 95.9874 96.7872V101.13V104.801C95.9874 105.344 95.6254 107.205 93.4281 107.205C91.2307 107.205 90.8688 105.318 90.8688 104.801V96.813C90.8688 96.813 90.7913 96.6321 90.6879 96.6321H88.4646C88.3612 96.6321 88.2837 96.7096 88.2837 96.813V104.698C88.2837 104.93 88.3095 106.094 88.8783 107.205C89.4211 108.265 90.5586 109.454 92.8852 109.454H92.9111C94.4621 109.454 95.4703 108.808 96.1425 108.162V109.041C96.1425 109.041 96.22 109.222 96.3234 109.222H98.3657C98.3657 109.222 98.5466 109.144 98.5466 109.041" fill="white"/>
<path d="M119.641 104.982C119.641 105.473 119.279 107.231 117.16 107.257C115.014 107.257 114.678 105.499 114.678 104.982V104.775C114.678 104.284 115.014 102.526 117.16 102.5C119.305 102.5 119.641 104.258 119.641 104.775V104.982ZM122.02 100.975C122.02 99.967 121.528 97.6145 119.228 96.6839C116.901 95.7274 113.825 96.8907 113.049 97.2009C113.049 97.2009 112.92 97.2784 112.92 97.3818V97.4594L113.54 99.2431L113.696 99.3465H113.773C114.626 98.9071 116.927 98.1315 118.323 98.7778C119.693 99.3982 119.564 100.846 119.59 101.001V101.363C118.918 100.872 118.013 100.432 116.694 100.406C114.368 100.406 113.23 101.544 112.687 102.526C112.119 103.56 112.093 104.672 112.093 104.905C112.093 105.137 112.119 106.223 112.687 107.283C113.23 108.265 114.368 109.403 116.694 109.403C118.064 109.403 118.995 108.911 119.667 108.394V108.989C119.667 109.092 119.745 109.17 119.848 109.17H121.787C121.89 109.17 121.968 109.092 121.968 108.989V102.345V100.949" fill="white"/>
<path d="M134.273 101.104C134.273 100.872 134.273 99.7083 133.678 98.5967C133.135 97.5368 131.998 96.3477 129.671 96.3477C128.146 96.3477 127.138 96.9681 126.466 97.6402V96.7871C126.466 96.7871 126.388 96.6062 126.285 96.6062H124.217C124.217 96.6062 124.036 96.6837 124.036 96.7871V109.041C124.036 109.041 124.113 109.196 124.217 109.196H126.414C126.414 109.196 126.595 109.118 126.595 109.041V100.897C126.647 100.251 127.086 98.6226 129.154 98.6226C131.352 98.6226 131.713 100.484 131.713 101.027V109.015C131.713 109.015 131.791 109.196 131.894 109.196H134.118C134.118 109.196 134.299 109.118 134.299 109.015V101.13L134.273 101.104Z" fill="white"/>
<path d="M143.631 101.027C143.631 101.518 143.27 103.302 141.072 103.302C138.875 103.302 138.513 101.518 138.513 101.027V100.872C138.513 100.381 138.875 98.597 141.072 98.597C143.27 98.597 143.631 100.381 143.631 100.872V101.027ZM147.613 96.6064C147.613 96.6064 147.535 96.4255 147.432 96.4255C146.113 96.3738 145.26 96.9425 144.691 97.5371C143.942 96.8908 142.804 96.3738 141.072 96.3738C138.487 96.3738 137.22 97.5112 136.626 98.5194C136.005 99.5793 135.954 100.691 135.954 100.898V101.027C135.954 101.26 135.979 102.371 136.626 103.405C136.884 103.845 137.298 104.336 137.892 104.724C136.91 105.292 136.057 106.275 136.057 108.059V108.989C136.057 108.989 136.135 109.17 136.238 109.17H143.657C144.536 109.17 145.002 109.765 145.131 110.308C145.286 111.006 145.027 111.962 143.838 112.583C143.838 112.583 143.709 112.686 143.709 112.763V112.841L144.665 114.599L144.821 114.702H144.898C147.147 113.565 147.638 111.393 147.276 109.816C146.889 108.084 145.415 106.921 143.631 106.921L138.513 107.05C138.797 105.499 140.607 105.525 140.814 105.551C140.814 105.551 140.995 105.551 141.072 105.551H141.098C143.683 105.551 144.95 104.414 145.544 103.405C146.191 102.345 146.217 101.234 146.217 101.027V100.898C146.217 100.717 146.217 99.8895 145.803 98.9848C146.139 98.7521 146.682 98.5453 147.457 98.5711C147.457 98.5711 147.638 98.4936 147.638 98.416V96.6064H147.613Z" fill="white"/>
<path d="M108.215 104.775C108.215 105.318 107.853 107.179 105.656 107.179C103.458 107.179 103.096 105.318 103.096 104.775V101.001C103.096 100.458 103.458 98.5967 105.656 98.5967C107.853 98.5967 108.215 100.458 108.215 101.001V104.775ZM110.206 98.5967C109.663 97.5368 108.525 96.3477 106.199 96.3477C104.673 96.3477 103.639 96.9939 102.967 97.6402V96.7613C102.967 96.7613 102.89 96.5803 102.786 96.5803H100.77C100.666 96.5803 100.589 96.6579 100.589 96.7613V114.237C100.589 114.237 100.666 114.418 100.77 114.418H103.019C103.019 114.418 103.174 114.34 103.174 114.237V108.291C103.846 108.86 104.803 109.428 106.224 109.428H106.25C108.577 109.428 109.714 108.239 110.257 107.179C110.826 106.068 110.852 104.904 110.852 104.672V101.104C110.852 100.872 110.852 99.7083 110.257 98.5967" fill="white"/>
</g>
</g>
<defs>
<filter id="filter0_d_216_1236" x="0" y="0" width="214" height="214" filterUnits="userSpaceOnUse" color-interpolation-filters="sRGB">
<feFlood flood-opacity="0" result="BackgroundImageFix"/>
<feColorMatrix in="SourceAlpha" type="matrix" values="0 0 0 0 0 0 0 0 0 0 0 0 0 0 0 0 0 0 127 0" result="hardAlpha"/>
<feOffset dy="4"/>
<feGaussianBlur stdDeviation="8.5"/>
<feComposite in2="hardAlpha" operator="out"/>
<feColorMatrix type="matrix" values="0 0 0 0 0.490196 0 0 0 0 0.337255 0 0 0 0 0.815686 0 0 0 0.05 0"/>
<feBlend mode="normal" in2="BackgroundImageFix" result="effect1_dropShadow_216_1236"/>
<feBlend mode="normal" in="SourceGraphic" in2="effect1_dropShadow_216_1236" result="shape"/>
</filter>
<linearGradient id="paint0_linear_216_1236" x1="107" y1="52.0903" x2="107" y2="154.565" gradientUnits="userSpaceOnUse">
<stop stop-color="#FF5953"/>
<stop offset="1" stop-color="#B50500"/>
</linearGradient>
<linearGradient id="paint1_linear_216_1236" x1="107" y1="52.0903" x2="107" y2="154.565" gradientUnits="userSpaceOnUse">
<stop stop-color="#9B0000"/>
<stop offset="1" stop-color="#7F0000"/>
</linearGradient>
<clipPath id="clip0_216_1236">
<rect width="101.647" height="102.474" fill="white" transform="translate(56.1763 52.0903)"/>
</clipPath>
</defs>
</svg>
