<svg width="214" height="214" viewBox="0 0 214 214" fill="none" xmlns="http://www.w3.org/2000/svg">
<g filter="url(#filter0_d_216_1237)">
<circle cx="107" cy="103" r="90" fill="white"/>
<g clip-path="url(#clip0_216_1237)">
<path d="M52.3127 105.623C48.8571 105.623 45.611 104.261 43.1502 101.801C40.6894 99.3398 39.3281 96.0936 39.3281 92.638C39.3281 85.5175 45.1398 79.7058 52.3127 79.7058C55.7683 79.7058 59.0144 81.0671 61.4752 83.5279C63.936 85.9887 65.2973 89.2348 65.2973 92.6904C65.2973 99.8633 59.4856 105.675 52.3127 105.675V105.623ZM52.3127 86.5122C48.9095 86.5122 46.1346 89.2872 46.1346 92.6904C46.1346 94.3135 46.7628 95.8842 47.9671 97.036C49.1189 98.1879 50.6896 98.8162 52.3127 98.8162C55.7159 98.8162 58.4909 96.0413 58.4909 92.638C58.4909 91.015 57.8626 89.4442 56.7107 88.2924C55.5589 87.1405 53.9881 86.4599 52.3651 86.4599L52.3127 86.5122Z" fill="#E40922"/>
<path d="M71.7897 126.827H73.308C73.9363 126.827 74.1981 126.723 74.5646 126.408C74.6693 126.356 76.9207 124.052 77.8107 123.215C78.3343 122.691 78.439 122.377 78.439 121.749V81.3289C78.439 80.2817 77.3395 79.7058 76.2924 79.7058H71.7373V126.827H71.7897Z" fill="#E40922"/>
<path d="M38.1763 108.502V113.215C38.1763 114.262 38.8046 115.361 39.7993 115.361H48.8048V126.827H50.3231C50.9514 126.827 51.2132 126.723 51.5797 126.409C51.6844 126.356 53.9358 124.053 54.8259 123.215C55.3494 122.691 55.4541 122.377 55.4541 121.749V115.361H66.7633C67.8104 115.361 68.3864 114.262 68.3864 113.215V108.502H38.1763Z" fill="#E40922"/>
<path d="M134.252 122.168C133.205 122.168 132.629 121.068 132.629 120.021V115.309H175.876V120.021C175.876 121.068 175.248 122.168 174.253 122.168H134.304H134.252Z" fill="#E40922"/>
<path d="M165.352 98.345C165.876 97.8214 165.981 97.5073 165.981 96.879V86.4075H172.316C173.363 86.4075 173.939 85.308 173.939 84.2609V79.7058H134.409V84.2609C134.409 85.308 135.037 86.4075 136.032 86.4075H147.551C146.923 86.4075 146.661 86.5122 146.294 86.8264C146.19 86.8787 143.938 89.1825 143.1 90.0202C142.577 90.5438 142.472 90.8579 142.472 91.4862V101.958H134.409V106.513C134.409 107.56 135.037 108.659 136.032 108.659H172.263C173.311 108.659 173.887 107.56 173.887 106.513V101.958H160.797C161.426 101.958 161.687 101.853 162.054 101.539C162.159 101.486 164.41 99.1827 165.248 98.345H165.352ZM149.174 101.958V86.4075H159.331V101.958H149.174Z" fill="#E40922"/>
<path d="M120.901 126.827H122.419C123.047 126.827 123.309 126.723 123.675 126.408C123.78 126.356 126.032 124.052 126.922 123.215C127.445 122.691 127.55 122.377 127.55 121.749V81.3289C127.55 80.2817 126.45 79.7058 125.403 79.7058H120.848V126.827H120.901Z" fill="#E40922"/>
<path d="M115.403 79.7058H110.848V94.2088H105.822V88.4495C105.822 87.35 105.56 86.8264 104.722 85.9363C103.256 84.4703 99.3294 80.5435 99.1723 80.4388C98.5441 79.9152 98.0205 79.7058 96.9733 79.7058H85.1406V106.617C85.1406 107.717 85.4024 108.24 86.2401 109.131C87.7061 110.597 91.6329 114.523 91.79 114.628C92.4183 115.152 92.9418 115.361 93.989 115.361H105.822V100.858H110.848V126.827H112.366C112.995 126.827 113.256 126.723 113.623 126.408C113.728 126.356 115.979 124.052 116.869 123.215C117.393 122.691 117.497 122.377 117.497 121.749V81.3289C117.497 80.2817 116.398 79.7058 115.351 79.7058H115.403ZM91.8947 108.659V86.4075H99.1723V108.659H91.8947Z" fill="#E40922"/>
</g>
</g>
<defs>
<filter id="filter0_d_216_1237" x="0" y="0" width="214" height="214" filterUnits="userSpaceOnUse" color-interpolation-filters="sRGB">
<feFlood flood-opacity="0" result="BackgroundImageFix"/>
<feColorMatrix in="SourceAlpha" type="matrix" values="0 0 0 0 0 0 0 0 0 0 0 0 0 0 0 0 0 0 127 0" result="hardAlpha"/>
<feOffset dy="4"/>
<feGaussianBlur stdDeviation="8.5"/>
<feComposite in2="hardAlpha" operator="out"/>
<feColorMatrix type="matrix" values="0 0 0 0 0.490196 0 0 0 0 0.337255 0 0 0 0 0.815686 0 0 0 0.05 0"/>
<feBlend mode="normal" in2="BackgroundImageFix" result="effect1_dropShadow_216_1237"/>
<feBlend mode="normal" in="SourceGraphic" in2="effect1_dropShadow_216_1237" result="shape"/>
</filter>
<clipPath id="clip0_216_1237">
<rect width="137.647" height="47.1215" fill="white" transform="translate(38.1763 79.7058)"/>
</clipPath>
</defs>
</svg>
