<svg width="214" height="214" viewBox="0 0 214 214" fill="none" xmlns="http://www.w3.org/2000/svg">
<g filter="url(#filter0_d_216_1225)">
<circle cx="107" cy="103" r="90" fill="white"/>
<g clip-path="url(#clip0_216_1225)">
<path d="M63.5884 79.4412V127.81C63.5884 128.891 64.1443 129.88 65.071 130.436L105.409 155.269C106.398 155.887 107.664 155.887 108.653 155.269L148.991 130.436C149.918 129.88 150.474 128.891 150.474 127.81V79.4412C150.474 78.3601 149.918 77.3718 148.991 76.8158L108.622 51.9826C107.633 51.3649 106.367 51.3649 105.379 51.9826L65.071 76.8158C64.1443 77.3718 63.5884 78.3601 63.5884 79.4412Z" fill="white"/>
<path d="M107.016 55.9052L146.211 80.0589V127.162L107.016 151.315L67.789 127.193V80.0589L107.016 55.9052ZM107.016 51.1177C107.016 51.1177 106.707 51.1486 106.583 51.2412L63.9899 77.4643C63.7428 77.6188 63.5884 77.8968 63.5884 78.1747V129.077C63.5884 129.355 63.7428 129.633 63.9899 129.787L106.552 156.01C106.552 156.01 106.83 156.134 106.985 156.134C107.139 156.134 107.294 156.103 107.417 156.01L149.979 129.787C150.227 129.633 150.381 129.355 150.381 129.077V78.1747C150.381 77.8968 150.227 77.6188 149.979 77.4643L107.448 51.2412C107.448 51.2412 107.17 51.1177 107.016 51.1177Z" fill="#00C63B"/>
<path d="M107.589 98.8142L64.1738 125.565L66.3774 129.141L109.792 102.39L107.589 98.8142Z" fill="#00C63B"/>
<path d="M106.438 99.6508L104.234 103.227L147.649 129.978L149.853 126.402L106.438 99.6508Z" fill="#00C63B"/>
<path d="M79.5571 91.8267V127.223L107.016 144.736L133.609 127.223V91.8267L107.016 79.1321L79.5571 91.8267Z" fill="white"/>
<path d="M106.985 82.4065L130.675 93.6802V125.617L106.985 141.215L82.4914 125.587V93.7111L106.985 82.4065ZM106.985 79.1633L79.5571 91.827V127.224L107.016 144.737L133.609 127.224V91.827L107.016 79.1633H106.985Z" fill="#00C63B"/>
<path d="M108.745 106.961H105.378V142.358H108.745V106.961Z" fill="#00C63B"/>
<path d="M98.429 113.633C98.429 113.633 98.6452 114.251 99.1085 115.116C101.271 119.1 106.367 120.428 110.259 118.05L134.443 103.379V87.0703L104.112 69.8044L88.2671 79.3485C82.6457 82.7461 79.5879 88.4293 79.2172 95.3789L78.7539 100.383C78.9083 102.205 79.2172 103.996 80.2365 105.51C81.5337 107.425 84.2827 109.834 88.0818 108.321C88.0818 108.321 90.491 116.815 98.429 113.633Z" fill="#B2EEC4"/>
<path d="M106.058 120.922C105.193 120.922 104.359 120.799 103.525 120.583C100.962 119.903 98.8613 118.235 97.6258 115.919C97.595 115.857 97.5641 115.764 97.5023 115.702C95.3402 116.258 93.3634 116.104 91.572 115.239C89.1937 114.065 87.7729 111.872 87.0625 110.359C83.4178 111.039 80.4835 108.907 78.8465 106.467C77.5801 104.614 77.2404 102.452 77.0859 100.568C77.0859 100.475 77.0859 100.352 77.0859 100.259L77.5492 95.2861C77.9817 87.6879 81.4719 81.5105 87.4022 77.9276L103.247 68.3835C103.772 68.0746 104.421 68.0746 104.946 68.3835L135.246 85.6185C135.771 85.9274 136.111 86.4833 136.111 87.0702V103.379C136.111 103.965 135.802 104.521 135.308 104.83L111.123 119.532C109.579 120.459 107.819 120.953 106.058 120.953V120.922ZM100.004 113.108C100.004 113.108 100.189 113.633 100.56 114.343C101.363 115.826 102.722 116.907 104.39 117.339C106.058 117.803 107.88 117.525 109.363 116.629L132.714 102.421V88.0277L104.143 71.7811L89.1628 80.831C84.1282 83.8579 81.2866 88.9543 80.9159 95.5023C80.9159 95.5023 80.9159 95.5023 80.9159 95.5332L80.4526 100.382C80.5762 101.865 80.8542 103.379 81.6572 104.552C82.3676 105.633 84.4062 107.95 87.464 106.745C87.8964 106.56 88.3906 106.591 88.823 106.807C89.2554 107.023 89.5643 107.394 89.6879 107.857C89.6879 107.857 90.6454 111.039 93.0854 112.212C94.3827 112.861 95.9888 112.799 97.8112 112.058C98.2436 111.903 98.7069 111.903 99.1393 112.089C99.5717 112.274 99.8806 112.645 100.035 113.077L100.004 113.108Z" fill="#00C63B"/>
<path d="M89.8423 108.876H86.4756V99.3322C86.4756 91.4869 92.375 86.9156 97.5023 83.8269L99.2319 86.6994C92.653 90.6838 89.8423 94.4521 89.8423 99.3322V108.876Z" fill="#00C63B"/>
<path d="M113.351 74.2642L97.5034 83.8125L99.2409 86.6962L115.088 77.1479L113.351 74.2642Z" fill="#00C63B"/>
<path d="M100.004 114.529H96.6377V104.985C96.6377 98.4983 100.19 93.0622 107.201 88.8616L108.931 91.7341C103 95.317 100.004 99.7647 100.004 104.985V114.529Z" fill="#00C63B"/>
<path d="M123.05 79.2801L107.208 88.8367L108.947 91.7195L124.789 82.1629L123.05 79.2801Z" fill="#00C63B"/>
<path d="M109.981 119.316H106.614V112.892C106.614 105.417 109.981 99.1162 115.849 95.5642L117.579 98.4367C112.73 101.34 109.95 106.622 109.95 112.892V119.316H109.981Z" fill="#00C63B"/>
<path d="M131.736 85.9986L115.894 95.5552L117.633 98.438L133.475 88.8814L131.736 85.9986Z" fill="#00C63B"/>
<path d="M95.5255 135.162L88.6377 131.054L88.823 118.637C88.823 118.297 89.2246 118.112 89.5025 118.297L95.5564 122.683V135.162H95.5255Z" fill="#00C63B"/>
</g>
</g>
<defs>
<filter id="filter0_d_216_1225" x="0" y="0" width="214" height="214" filterUnits="userSpaceOnUse" color-interpolation-filters="sRGB">
<feFlood flood-opacity="0" result="BackgroundImageFix"/>
<feColorMatrix in="SourceAlpha" type="matrix" values="0 0 0 0 0 0 0 0 0 0 0 0 0 0 0 0 0 0 127 0" result="hardAlpha"/>
<feOffset dy="4"/>
<feGaussianBlur stdDeviation="8.5"/>
<feComposite in2="hardAlpha" operator="out"/>
<feColorMatrix type="matrix" values="0 0 0 0 0.490196 0 0 0 0 0.337255 0 0 0 0 0.815686 0 0 0 0.05 0"/>
<feBlend mode="normal" in2="BackgroundImageFix" result="effect1_dropShadow_216_1225"/>
<feBlend mode="normal" in="SourceGraphic" in2="effect1_dropShadow_216_1225" result="shape"/>
</filter>
<clipPath id="clip0_216_1225">
<rect width="86.8235" height="105.016" fill="white" transform="translate(63.5884 51.1177)"/>
</clipPath>
</defs>
</svg>
