<svg width="214" height="214" viewBox="0 0 214 214" fill="none" xmlns="http://www.w3.org/2000/svg">
<g filter="url(#filter0_d_216_1400)">
<circle cx="107" cy="103" r="90" fill="white"/>
<g clip-path="url(#clip0_216_1400)">
<path d="M77.5236 93.6025V91.3024H82.4389V114.524H77.5551V112.035C75.0029 114.461 72.0726 115.123 68.7958 114.713C65.4874 114.304 62.8092 112.728 60.8556 110.113C57.1377 105.135 57.7048 98.8014 61.8324 94.4218C65.1408 90.9243 72.3562 88.8763 77.4921 93.571L77.5236 93.6025ZM70.4342 95.5561C66.4641 95.367 63.2503 98.959 63.1243 102.519C62.9667 106.899 66.4641 110.239 70.4657 110.239C74.6248 110.239 77.7757 106.899 77.8072 102.898C77.8387 98.8329 74.3412 95.367 70.4027 95.5876L70.4342 95.5561Z" fill="#011422"/>
<path d="M113.884 105.513C115.019 109.294 120.816 112.381 125.763 108.222C126.897 109.231 128.032 110.207 129.166 111.216C126.519 114.555 119.997 116.351 114.703 113.327C109.253 110.176 107.078 103.559 109.662 97.9821C112.498 91.8694 119.178 89.2227 125.385 91.8064C131.088 94.2011 133.672 100.093 132.348 105.513H113.853H113.884ZM127.842 101.322C127.307 98.2656 124.377 95.1778 119.965 95.5559C116.752 95.8395 114.042 98.3287 113.569 101.322H127.842Z" fill="#011422"/>
<path d="M138.681 97.9819C137.547 96.9736 136.413 95.9654 135.247 94.8941C136.129 93.7598 137.232 92.9721 138.461 92.3734C142.399 90.4199 146.401 90.2938 150.371 92.2159C154.341 94.1379 155.665 98.9587 153.364 102.551C152.356 104.095 150.844 104.882 149.174 105.323C147.315 105.827 145.393 106.174 143.534 106.741C142.179 107.151 140.95 107.813 140.572 109.388C140.54 109.545 140.572 109.703 140.54 109.924H154.719V114.524H135.279C135.405 112.444 134.963 110.333 135.657 108.317C136.57 105.67 138.524 104.032 141.045 103.086C142.904 102.393 144.92 102.015 146.842 101.511C147.976 101.196 149.016 100.818 149.394 99.5258C149.804 98.0449 149.079 96.564 147.472 96.0599C144.195 94.9886 141.234 95.5242 138.713 97.9819H138.681Z" fill="#0071BC"/>
<path d="M173.845 106.332H177.941V110.396H173.876V114.524H168.772V110.428C168.425 110.428 168.205 110.428 167.953 110.428C164.802 110.428 161.683 110.396 158.532 110.428C155.98 110.459 154.53 107.907 155.507 105.765C155.98 104.693 156.799 103.779 157.555 102.866C160.296 99.5889 163.069 96.3435 165.842 93.0666C167.228 91.4282 168.866 90.5774 171.072 91.0816C172.805 91.4597 173.876 92.7515 173.876 94.516C173.876 98.234 173.876 101.952 173.876 105.701C173.876 105.891 173.876 106.048 173.876 106.332H173.845ZM168.74 96.1229C165.81 99.5573 162.974 102.866 160.076 106.3H168.74V96.1229Z" fill="#0071BC"/>
<path d="M57.5789 111.814C53.0732 116.414 45.4167 116.824 40.3753 112.349C34.8613 107.434 34.8298 99.6201 39.178 94.6417C44.0933 89.0017 52.5691 88.9072 57.6419 93.9801C56.4446 95.0513 55.2473 96.0911 53.9869 97.2254C51.9074 95.3349 49.4182 94.8308 46.7085 95.4295C44.9755 95.8391 43.5577 96.8473 42.5179 98.2652C40.1548 101.479 40.5329 105.575 43.3056 108.379C45.7002 110.774 50.395 111.782 54.302 108.316C55.3733 109.451 56.4446 110.585 57.5789 111.782V111.814Z" fill="#011422"/>
<path d="M92.5846 114.586C90.9776 114.586 89.5283 114.586 88.0789 114.586C87.6693 114.586 87.5117 114.46 87.5117 114.019C87.5117 108.6 87.5117 103.212 87.5117 97.7924C87.5117 96.1225 87.8898 94.4841 89.1186 93.1922C90.2845 91.9634 91.7338 91.3017 93.3723 91.2702C97.6259 91.2072 101.88 91.2702 106.133 91.2702C106.196 91.2702 106.291 91.2702 106.417 91.3017V95.8704C106.165 95.8704 105.881 95.8704 105.629 95.8704C102.1 95.8704 98.5397 95.8704 95.0107 95.8704C93.5298 95.8704 92.7106 96.6266 92.5846 98.1075C92.5846 98.2651 92.5846 98.4226 92.5846 98.5801C92.5846 99.4624 92.5846 100.376 92.5846 101.353H105.535V105.512H92.5846V114.618V114.586Z" fill="#011422"/>
</g>
</g>
<defs>
<filter id="filter0_d_216_1400" x="0" y="0" width="214" height="214" filterUnits="userSpaceOnUse" color-interpolation-filters="sRGB">
<feFlood flood-opacity="0" result="BackgroundImageFix"/>
<feColorMatrix in="SourceAlpha" type="matrix" values="0 0 0 0 0 0 0 0 0 0 0 0 0 0 0 0 0 0 127 0" result="hardAlpha"/>
<feOffset dy="4"/>
<feGaussianBlur stdDeviation="8.5"/>
<feComposite in2="hardAlpha" operator="out"/>
<feColorMatrix type="matrix" values="0 0 0 0 0.490196 0 0 0 0 0.337255 0 0 0 0 0.815686 0 0 0 0.05 0"/>
<feBlend mode="normal" in2="BackgroundImageFix" result="effect1_dropShadow_216_1400"/>
<feBlend mode="normal" in="SourceGraphic" in2="effect1_dropShadow_216_1400" result="shape"/>
</filter>
<clipPath id="clip0_216_1400">
<rect width="141.882" height="25.2067" fill="white" transform="translate(36.0586 90.2939)"/>
</clipPath>
</defs>
</svg>
