<svg width="214" height="214" viewBox="0 0 214 214" fill="none" xmlns="http://www.w3.org/2000/svg">
<g filter="url(#filter0_d_216_1197)">
<circle cx="107" cy="103" r="90" fill="white"/>
<g clip-path="url(#clip0_216_1197)">
<path d="M149.26 104.918C149.26 103.248 148.611 101.485 147.776 100.001C146.662 98.0525 144.992 96.5681 142.951 95.6403C142.302 95.362 141.467 95.0836 140.817 94.9909C139.982 94.9909 139.055 94.8981 138.22 94.8981C137.292 94.8981 136.364 94.8981 135.436 94.8981H108.531V111.598H132.189C131.354 116.515 129.498 120.69 125.695 124.03C122.169 127.092 117.994 129.504 113.355 130.246C111.871 130.525 110.386 130.617 108.902 130.617C93.5936 130.617 81.1614 118.185 81.1614 102.877C81.1614 87.5687 93.408 75.1365 108.809 75.1365C115.582 75.1365 121.798 77.5487 126.622 81.5381C128.107 82.837 129.962 83.5792 132.003 83.5792C136.55 83.5792 140.261 79.8681 140.261 75.322C140.261 73.1881 139.426 71.147 138.034 69.6626C138.034 69.6626 138.034 69.6626 137.941 69.6626C137.57 69.2915 137.199 69.0132 136.828 68.7348C129.22 62.3332 119.386 58.5293 108.716 58.5293C84.3158 58.5293 64.647 78.2909 64.647 102.599C64.647 126.906 84.3158 146.668 108.624 146.668C112.706 146.668 116.974 146.111 120.963 144.905C125.88 143.421 130.705 141.194 134.787 138.04C143.972 130.989 148.703 120.505 149.26 109.093C149.26 107.701 149.353 106.31 149.26 104.918Z" fill="#00C11E"/>
<path d="M117.808 103.248C117.808 107.887 114.097 111.598 109.458 111.598C104.819 111.598 101.108 107.887 101.108 103.248C101.108 98.6095 104.819 94.8984 109.458 94.8984C114.097 94.8984 117.808 98.6095 117.808 103.248Z" fill="#0028AC"/>
</g>
</g>
<defs>
<filter id="filter0_d_216_1197" x="0" y="0" width="214" height="214" filterUnits="userSpaceOnUse" color-interpolation-filters="sRGB">
<feFlood flood-opacity="0" result="BackgroundImageFix"/>
<feColorMatrix in="SourceAlpha" type="matrix" values="0 0 0 0 0 0 0 0 0 0 0 0 0 0 0 0 0 0 127 0" result="hardAlpha"/>
<feOffset dy="4"/>
<feGaussianBlur stdDeviation="8.5"/>
<feComposite in2="hardAlpha" operator="out"/>
<feColorMatrix type="matrix" values="0 0 0 0 0.490196 0 0 0 0 0.337255 0 0 0 0 0.815686 0 0 0 0.05 0"/>
<feBlend mode="normal" in2="BackgroundImageFix" result="effect1_dropShadow_216_1197"/>
<feBlend mode="normal" in="SourceGraphic" in2="effect1_dropShadow_216_1197" result="shape"/>
</filter>
<clipPath id="clip0_216_1197">
<rect width="84.7059" height="88.1386" fill="white" transform="translate(64.647 58.5293)"/>
</clipPath>
</defs>
</svg>
