<svg width="214" height="214" viewBox="0 0 214 214" fill="none" xmlns="http://www.w3.org/2000/svg">
<g filter="url(#filter0_d_216_1192)">
<circle cx="107" cy="103" r="90" fill="white"/>
<g clip-path="url(#clip0_216_1192)">
<path d="M159.941 126.755C159.941 132.602 155.208 137.335 149.361 137.335C143.514 137.335 138.781 132.602 138.781 126.755C138.781 120.908 143.514 116.206 149.361 116.206C155.208 116.206 159.941 120.939 159.941 126.755Z" fill="#FF0000"/>
<path d="M108.959 64.8823H70.9687C70.6284 64.8823 70.35 65.1608 70.35 65.5011V78.7418C70.35 79.0821 70.6284 79.3606 70.9687 79.3606H80.3115L61.5022 135.448C61.3784 135.85 61.6569 136.253 62.09 136.253H80.0331C80.2806 136.253 80.559 136.067 80.6209 135.789L84.3642 122.857H109.546L113.259 135.789C113.352 136.036 113.568 136.253 113.878 136.253H132.532C132.965 136.253 133.275 135.82 133.12 135.448L109.546 65.3154C109.454 65.037 109.237 64.8823 108.959 64.8823ZM88.5715 108.441L96.9862 79.3606L105.37 108.441H88.5715V108.441Z" fill="#FF0000"/>
</g>
</g>
<defs>
<filter id="filter0_d_216_1192" x="0" y="0" width="214" height="214" filterUnits="userSpaceOnUse" color-interpolation-filters="sRGB">
<feFlood flood-opacity="0" result="BackgroundImageFix"/>
<feColorMatrix in="SourceAlpha" type="matrix" values="0 0 0 0 0 0 0 0 0 0 0 0 0 0 0 0 0 0 127 0" result="hardAlpha"/>
<feOffset dy="4"/>
<feGaussianBlur stdDeviation="8.5"/>
<feComposite in2="hardAlpha" operator="out"/>
<feColorMatrix type="matrix" values="0 0 0 0 0.490196 0 0 0 0 0.337255 0 0 0 0 0.815686 0 0 0 0.05 0"/>
<feBlend mode="normal" in2="BackgroundImageFix" result="effect1_dropShadow_216_1192"/>
<feBlend mode="normal" in="SourceGraphic" in2="effect1_dropShadow_216_1192" result="shape"/>
</filter>
<clipPath id="clip0_216_1192">
<rect width="98.4706" height="72.4531" fill="white" transform="translate(61.4707 64.8823)"/>
</clipPath>
</defs>
</svg>
